<svg width="201" height="72" viewBox="0 0 201 72" fill="none" xmlns="http://www.w3.org/2000/svg">
<g opacity="0.7">
<g opacity="0.02">
<path d="M79.9097 46.2827V37.1623H35.9486L47.0216 13.719H79.9733V5.25366H121.072L120.939 13.1338V13.719H165.555L153.7 37.1623H120.939V46.2827H79.9097Z" fill="black"/>
</g>
<g opacity="0.04">
<path d="M79.9097 46.2827V37.1623H35.9486L47.0216 13.719H79.9733V5.25366H121.072L120.939 13.0639V13.719H165.555L153.7 37.1623H120.939V46.2827H79.9097Z" fill="black"/>
</g>
<g opacity="0.06">
<path d="M79.9097 46.2827V37.1623H35.9486L47.0216 13.719H79.9733V5.25366H121.072L120.939 13.0003V13.719H165.555L153.7 36.5136H120.939V46.2827H79.9097Z" fill="black"/>
</g>
<g opacity="0.08">
<path d="M79.9097 46.2828V37.1624H35.9486L47.0216 13.719H79.9733V4.59863H121.072L120.939 12.9367V13.719H165.555L153.7 36.5137H120.939V46.2828H79.9097Z" fill="black"/>
</g>
<g opacity="0.1">
<path d="M79.9097 45.6277V36.5137H35.9486L47.0216 13.719H79.9733V4.59863H121.072L120.939 12.8731V13.719H165.555L153.7 36.5137H120.939V45.6277H79.9097Z" fill="black"/>
</g>
<g opacity="0.12">
<path d="M79.9097 45.6277V36.5137H35.9486L47.0216 13.719H79.9733V4.59863H121.072L120.939 12.8032V13.719H165.555L153.7 36.5137H120.939V45.6277H79.9097Z" fill="black"/>
</g>
<g opacity="0.14">
<path d="M79.9097 45.6277V36.5137H35.9486L47.0216 13.719H79.9733V4.59863H121.072L120.939 12.7396V13.719H165.555L153.7 36.5137H120.939V45.6277H79.9097Z" fill="black"/>
</g>
<g opacity="0.16">
<path d="M79.9097 45.6277V36.5137H35.9486L47.0216 13.719H79.9733V4.59863H121.072L120.939 12.676V13.0639H165.555L153.7 36.5137H120.939V45.6277H79.9097Z" fill="black"/>
</g>
<g opacity="0.18">
<path d="M79.9097 45.6277V36.5137H35.9486L47.0216 13.719H79.9733V4.59863H121.072L120.939 12.6124V13.0639H165.555L153.7 36.5137H120.939V45.6277H79.9097Z" fill="black"/>
</g>
<g opacity="0.2">
<path d="M79.9097 45.6277V36.5137H35.9486L47.0216 13.719H79.9733V4.59863H121.072L120.939 12.5424V13.0639H165.555L153.7 36.5137H120.939V45.6277H79.9097Z" fill="black"/>
</g>
<g opacity="0.22">
<path d="M79.9097 45.6277V36.5137H35.9486L47.0216 13.0639H79.9733V4.59863H121.072L120.939 12.4788V13.0639H165.555L153.7 36.5137H120.939V45.6277H79.9097Z" fill="black"/>
</g>
<g opacity="0.24">
<path d="M79.9097 45.6277V36.5137H35.9486L47.0216 13.0639H79.9733V4.59863H121.072L120.939 12.4152V13.0639H165.555L153.7 36.5137H120.939V45.6277H79.9097Z" fill="black"/>
</g>
<g opacity="0.26">
<path d="M79.9097 45.6277V36.5137H35.9486L47.0216 13.0639H79.9733V4.59863H121.072L120.939 12.3516V13.0639H165.555L153.7 35.8586H120.939V45.6277H79.9097Z" fill="black"/>
</g>
<g opacity="0.28">
<path d="M79.9097 45.6278V36.5137H35.9486L47.0216 13.064H79.9733V3.94995H121.072L120.939 12.2881V13.064H165.555L153.7 35.8586H120.939V45.6278H79.9097Z" fill="black"/>
</g>
<g opacity="0.3">
<path d="M79.9097 44.979V35.8586H35.9486L47.0216 13.064H79.9733V3.94995H121.072L120.939 12.2181V13.064H165.555L153.7 35.8586H120.939V44.979H79.9097Z" fill="black"/>
</g>
<g opacity="0.32">
<path d="M79.9097 44.979V35.8586H35.9486L47.0216 13.064H79.9733V3.94995H121.072L120.939 12.1545V13.064H165.555L153.7 35.8586H120.939V44.979H79.9097Z" fill="black"/>
</g>
<g opacity="0.34">
<path d="M79.9097 44.979V35.8586H35.9486L47.0216 13.064H79.9733V3.94995H121.072L120.939 12.0909V13.064H165.555L153.7 35.8586H120.939V44.979H79.9097Z" fill="black"/>
</g>
<g opacity="0.36">
<path d="M79.9097 44.979V35.8586H35.9486L47.0216 13.064H79.9733V3.94995H121.072L120.939 12.0273V12.4153H165.555L153.7 35.8586H120.939V44.979H79.9097Z" fill="black"/>
</g>
<g opacity="0.38">
<path d="M79.9097 44.979V35.8586H35.9486L47.0216 13.064H79.9733V3.94995H121.072L120.939 11.9573V12.4153H165.555L153.7 35.8586H120.939V44.979H79.9097Z" fill="black"/>
</g>
<g opacity="0.4">
<path d="M79.9097 44.979V35.8586H35.9486L47.0216 13.064H79.9733V3.94995H121.072L120.939 11.8937V12.4153H165.555L153.7 35.8586H120.939V44.979H79.9097Z" fill="black"/>
</g>
<g opacity="0.42">
<path d="M79.9097 44.979V35.8586H35.9486L47.0216 12.4153H79.9733V3.94995H121.072L120.939 11.8301V12.4153H165.555L153.7 35.8586H120.939V44.979H79.9097Z" fill="black"/>
</g>
<g opacity="0.44">
<path d="M79.9097 44.979V35.8586H35.9486L47.0216 12.4153H79.9733V3.94995H121.072L120.939 11.7665V12.4153H165.555L153.7 35.8586H120.939V44.979H79.9097Z" fill="black"/>
</g>
<g opacity="0.46">
<path d="M79.9097 44.979V35.8586H35.9486L47.0216 12.4153H79.9733V3.94995H121.072L120.939 11.6966V12.4153H165.555L153.7 35.2099H120.939V44.979H79.9097Z" fill="black"/>
</g>
<g opacity="0.48">
<path d="M79.9097 44.9791V35.8587H35.9486L47.0216 12.4153H79.9733V3.29492H121.072L120.939 11.633V12.4153H165.555L153.7 35.2099H120.939V44.9791H79.9097Z" fill="black"/>
</g>
<g opacity="0.5">
<path d="M79.9097 44.3303V35.2099H35.9486L47.0216 12.4153H79.9733V3.29492H121.072L120.939 11.5694V12.4153H165.555L153.7 35.2099H120.939V44.3303H79.9097Z" fill="black"/>
</g>
<g opacity="0.52">
<path d="M79.9097 44.3303V35.2099H35.9486L47.0216 12.4153H79.9733V3.29492H121.072L120.939 11.5058V12.4153H165.555L153.7 35.2099H120.939V44.3303H79.9097Z" fill="black"/>
</g>
<g opacity="0.54">
<path d="M79.9097 44.3303V35.2099H35.9486L47.0216 12.4153H79.9733V3.29492H121.072L120.939 11.4359V12.4153H165.555L153.7 35.2099H120.939V44.3303H79.9097Z" fill="black"/>
</g>
<g opacity="0.56">
<path d="M79.9097 44.3303V35.2099H35.9486L47.0216 12.4153H79.9733V3.29492H121.072L120.939 11.3723V11.7666H165.555L153.7 35.2099H120.939V44.3303H79.9097Z" fill="black"/>
</g>
<g opacity="0.58">
<path d="M79.9097 44.3303V35.2099H35.9486L47.0216 12.4153H79.9733V3.29492H121.072L120.939 11.3087V11.7666H165.555L153.7 35.2099H120.939V44.3303H79.9097Z" fill="black"/>
</g>
<g opacity="0.6">
<path d="M79.9097 44.3303V35.2099H35.9486L47.0216 12.4153H79.9733V3.29492H121.072L120.939 11.2451V11.7666H165.555L153.7 35.2099H120.939V44.3303H79.9097Z" fill="black"/>
</g>
<g opacity="0.62">
<path d="M79.9097 44.3303V35.2099H35.9486L47.0216 11.7666H79.9733V3.29492H121.072L120.939 11.1751V11.7666H165.555L153.7 35.2099H120.939V44.3303H79.9097Z" fill="black"/>
</g>
<g opacity="0.64">
<path d="M79.9097 44.3303V35.2099H35.9486L47.0216 11.7666H79.9733V3.29492H121.072L120.939 11.1115V11.7666H165.555L153.7 35.2099H120.939V44.3303H79.9097Z" fill="black"/>
</g>
<g opacity="0.66">
<path d="M79.9097 44.3303V35.2099H35.9486L47.0216 11.7666H79.9733V3.29492H121.072L120.939 11.0479V11.7666H165.555L153.7 34.5612H120.939V44.3303H79.9097Z" fill="black"/>
</g>
<g opacity="0.68">
<path d="M79.9097 44.3304V35.21H35.9486L47.0216 11.7666H79.9733V2.64624H121.072L120.939 10.9843V11.7666H165.555L153.7 34.5613H120.939V44.3304H79.9097Z" fill="black"/>
</g>
<g opacity="0.7">
<path d="M79.9097 43.6753V34.5613H35.9486L47.0216 11.7666H79.9733V2.64624H121.072L120.939 10.9144V11.7666H165.555L153.7 34.5613H120.939V43.6753H79.9097Z" fill="black"/>
</g>
<g opacity="0.72">
<path d="M79.9097 43.6753V34.5613H35.9486L47.0216 11.7666H79.9733V2.64624H121.072L120.939 10.8508V11.7666H165.555L153.7 34.5613H120.939V43.6753H79.9097Z" fill="black"/>
</g>
<g opacity="0.74">
<path d="M79.9097 43.6753V34.5613H35.9486L47.0216 11.7666H79.9733V2.64624H121.072L120.939 10.7872V11.7666H165.555L153.7 34.5613H120.939V43.6753H79.9097Z" fill="black"/>
</g>
<g opacity="0.76">
<path d="M79.9097 43.6753V34.5613H35.9486L47.0216 11.7666H79.9733V2.64624H121.072L120.939 10.7236V11.1115H165.555L153.7 34.5613H120.939V43.6753H79.9097Z" fill="black"/>
</g>
<g opacity="0.78">
<path d="M79.9097 43.6753V34.5613H35.9486L47.0216 11.7666H79.9733V2.64624H121.072L120.939 10.66V11.1115H165.555L153.7 34.5613H120.939V43.6753H79.9097Z" fill="black"/>
</g>
<g opacity="0.8">
<path d="M79.9097 43.6753V34.5613H35.9486L47.0216 11.7666H79.9733V2.64624H121.072L120.939 10.59V11.1115H165.555L153.7 34.5613H120.939V43.6753H79.9097Z" fill="black"/>
</g>
<g opacity="0.82">
<path d="M79.9097 43.6753V34.5613H35.9486L47.0216 11.1115H79.9733V2.64624H121.072L120.939 10.5264V11.1115H165.555L153.7 34.5613H120.939V43.6753H79.9097Z" fill="black"/>
</g>
<g opacity="0.84">
<path d="M79.9097 43.6753V34.5613H35.9486L47.0216 11.1115H79.9733V2.64624H121.072L120.939 10.4628V11.1115H165.555L153.7 34.5613H120.939V43.6753H79.9097Z" fill="black"/>
</g>
<g opacity="0.86">
<path d="M79.9097 43.6753V34.5613H35.9486L47.0216 11.1115H79.9733V2.64624H121.072L120.939 10.3992V11.1115H165.555L153.7 33.9062H120.939V43.6753H79.9097Z" fill="black"/>
</g>
<g opacity="0.88">
<path d="M79.9097 43.6751V34.5611H35.9486L47.0216 11.1114H79.9733V1.99731H121.072L120.939 10.3291V11.1114H165.555L153.7 33.906H120.939V43.6751H79.9097Z" fill="black"/>
</g>
<g opacity="0.9">
<path d="M79.9097 43.0264V33.906H35.9486L47.0216 11.1114H79.9733V1.99731H121.072L120.939 10.2655V11.1114H165.555L153.7 33.906H120.939V43.0264H79.9097Z" fill="black"/>
</g>
<g opacity="0.92">
<path d="M79.9097 43.0264V33.906H35.9486L47.0216 11.1114H79.9733V1.99731H121.072L120.939 10.2019V11.1114H165.555L153.7 33.906H120.939V43.0264H79.9097Z" fill="black"/>
</g>
<g opacity="0.94">
<path d="M79.9097 43.0264V33.906H35.9486L47.0216 11.1114H79.9733V1.99731H121.072L120.939 10.1383V11.1114H165.555L153.7 33.906H120.939V43.0264H79.9097Z" fill="black"/>
</g>
<g opacity="0.96">
<path d="M79.9097 43.0264V33.906H35.9486L47.0216 11.1114H79.9733V1.99731H121.072L120.939 10.0683V10.4626H165.555L153.7 33.906H120.939V43.0264H79.9097Z" fill="black"/>
</g>
<g opacity="0.98">
<path d="M79.9097 43.0264V33.906H35.9486L47.0216 11.1114H79.9733V1.99731H121.072L120.939 10.0047V10.4626H165.555L153.7 33.906H120.939V43.0264H79.9097Z" fill="black"/>
</g>
<path d="M79.9097 43.0264V33.906H35.9486L47.0216 11.1114H79.9733V1.99731H121.072L120.939 9.9411V10.4626H165.555L153.7 33.906H120.939V43.0264H79.9097Z" fill="black"/>
</g>
<path fill-rule="evenodd" clip-rule="evenodd" d="M138.073 57.8073C138.073 54.0294 136.445 52.9863 133.449 52.9863H127.064H120.748C117.752 52.9863 116.124 54.0294 116.124 57.8073C116.124 57.8073 116.061 59.957 116.061 62.0431C116.061 64.1292 116.124 66.3426 116.124 66.3426C116.124 70.0569 117.752 71.0999 120.748 71.0999H127.064H133.449C136.445 71.0999 138.073 69.9933 138.073 66.3426C138.073 66.3426 138.137 64.1292 138.137 62.0431C138.137 59.957 138.073 57.8073 138.073 57.8073ZM123.222 55.9883H127.127H131.032C131.878 55.9883 132.075 56.1855 132.075 57.0313V66.9977C132.075 67.8435 131.878 68.0407 131.032 68.0407H123.279C122.433 68.0407 122.236 67.8435 122.236 66.9977V57.0313C122.179 56.1791 122.376 55.9883 123.222 55.9883ZM7.88149 55.9883H19.8639V52.9927H5.4074C2.41179 52.9927 0.783601 54.0358 0.783601 57.8137C0.783601 57.8137 0.720001 59.9634 0.720001 62.0495C0.720001 64.1356 0.783601 66.2853 0.783601 66.2853C0.783601 69.9996 2.41179 71.0427 5.4074 71.0427H20.2583V67.9835H7.88149C7.03559 67.9835 6.83842 67.7863 6.83842 66.9404V57.0441C6.83842 56.2491 7.03559 55.9883 7.88149 55.9883ZM38.162 52.9927V60.0906H28.4628V52.9927H22.4016V71.0936H28.4628V63.0162H38.162V71.0936H44.2231V52.9927H38.162ZM80.8828 67.7736L86.7468 52.9927L91.307 53.0054C91.307 53.0054 84.9215 68.1806 84.5335 69.0901C84.1456 70.0632 83.5604 71.1063 81.9958 71.1063H76.329C74.7644 71.1063 73.9821 69.9996 73.5941 69.0901C73.5057 68.87 73.0577 67.8247 72.4305 66.3613L72.4301 66.3605C71.2089 63.511 69.3087 59.0772 68.0608 56.0646H54.3166C53.4708 56.0646 53.2736 56.2618 53.2736 57.1077V60.1033H66.0383V63.0989H53.2736V67.004C53.2736 67.8499 53.4708 68.0471 54.3166 68.0471H67.215V71.1063H51.8426C48.847 71.1063 47.2188 70.0632 47.2188 66.3489C47.2188 66.3489 47.1552 64.1356 47.1552 62.0495C47.1552 59.9634 47.2188 57.8137 47.2188 57.8137C47.2188 54.0358 48.847 52.9927 51.8426 52.9927H73.7213L79.5854 67.7736C79.7126 68.0343 79.8461 68.0343 80.234 68.0343H80.2341H80.2342C80.6221 68.0343 80.7556 68.0343 80.8828 67.7736ZM147.251 52.9927V68.0343H159.888V71.0936H141.132V52.9927H147.251ZM165.161 52.9927C162.165 52.9927 160.537 54.0358 160.537 57.8137C160.537 57.8137 160.473 59.9634 160.473 62.0495V66.2853C160.473 69.9996 162.101 71.0427 165.097 71.0427H180.469V67.9835H167.571C166.725 67.9835 166.528 67.7863 166.528 66.9404V63.0353H179.293V60.0397H166.528V57.1077C166.528 56.2618 166.725 56.0646 167.571 56.0646H187.695V71.1063H193.749V56.0646H200.72V53.069L165.161 52.9927ZM106.807 63.1498C106.679 63.1498 106.546 63.2197 106.743 63.3469C106.877 63.4105 116.906 71.0935 116.906 71.1063H108.568L99.7087 63.2261V60.4912H106.87C107.265 60.4912 107.525 60.3577 107.589 60.0333C107.653 59.7725 107.653 59.1874 107.653 58.4051C107.653 58.0349 107.632 57.6241 107.615 57.2668C107.601 56.9918 107.589 56.7485 107.589 56.5798C107.589 56.249 107.392 56.1218 106.87 56.1218H97.947V71.1635H91.9558V53.1262H109.802C112.079 53.1262 113.644 54.2329 113.644 57.2285C113.644 57.2285 113.707 59.0475 113.58 59.7662C113.447 62.501 111.558 63.1498 109.541 63.1498H106.807Z" fill="#212121"/>
<path d="M121.721 0.890625H79.3246V9.75026V9.87746H79.1974H46.57L34.9119 34.1731H79.331H79.4582V34.3003V43.2871H100.497H121.6V34.1667V34.0395H121.727H154.094L166.598 9.6167H121.791H121.664V9.4895L121.721 0.890625ZM83.6876 4.79573H117.492H117.619V4.92294V14.0433L153.115 13.9797H153.312L153.185 14.1769L145.502 29.6765L145.438 29.7401H145.374L117.568 29.6765V39.3184V39.4456H117.441H100.44H83.6367H83.5095V39.3184V29.7401L48.0774 29.2822H47.8802L48.0074 29.085L55.6268 14.1069L55.6904 14.0433H55.754H83.5604V4.92294V4.79573H83.6876Z" fill="#F2F4F6"/>
<path d="M121.721 0.890625H119.12L116.315 4.79573H117.492H117.619V4.92294V14.0433H119.641L126.021 9.6167H121.657L121.721 0.890625Z" fill="url(#paint0_linear_8_6293)"/>
<path d="M145.495 29.7401L154.094 34.0395L166.598 9.6167L153.312 13.9797L149.922 20.8169L145.495 29.7401Z" fill="url(#paint1_linear_8_6293)"/>
<mask id="mask0_8_6293" style="mask-type:luminance" maskUnits="userSpaceOnUse" x="149" y="9" width="18" height="14">
<path d="M153.312 13.9798L149.928 20.817L149.019 22.6423L155.207 22.5151C158.921 22.4515 160.74 20.7597 162.438 17.8277L166.604 9.68677L153.312 13.9798Z" fill="white"/>
</mask>
<g mask="url(#mask0_8_6293)">
<path d="M169.136 8.37646H147.581V23.876H169.136V8.37646Z" fill="url(#paint2_linear_8_6293)"/>
</g>
<path d="M79.3246 0.890625L83.5604 4.79573H109.281H117.619L121.721 0.890625H79.3246Z" fill="url(#paint3_linear_8_6293)"/>
<path d="M100.491 0.890625V4.79573H109.281H117.619L121.721 0.890625H100.491Z" fill="url(#paint4_linear_8_6293)"/>
<path d="M79.4582 34.1668L83.5604 29.7401L47.7403 29.4158L34.9056 34.1668H79.4582Z" fill="url(#paint5_linear_8_6293)"/>
<path d="M46.5637 9.87744L34.9056 34.1667L47.7403 29.4157L55.6841 14.0433L46.5637 9.87744Z" fill="url(#paint6_linear_8_6293)"/>
<path d="M46.5637 9.87744L41.7427 19.9073C42.0671 20.8868 42.5886 21.5355 44.0196 21.5355C45.775 21.5991 47.664 21.5991 49.4257 21.6627C50.4052 21.6627 51.1811 21.5355 51.9634 21.2048L55.6077 13.9734L46.5637 9.87744Z" fill="url(#paint7_linear_8_6293)"/>
<path d="M79.1974 0.629883H121.855H121.982V0.757083L121.918 9.35595H166.859H167.056L166.929 9.55312L154.291 34.2367L154.228 34.3003H154.164H121.861V43.4207V43.5479H121.734H100.504H79.3373H79.2101V43.4207V34.4339H34.7275H34.5303L34.5939 34.2367L46.3792 9.68667L46.4428 9.62308H46.5064H79.0702V0.76344V0.636239H79.1974V0.629883ZM79.3246 0.89064V9.75028V9.87748H79.1974H46.57L34.912 34.1731H79.331H79.4582V34.3003V43.2871H100.497H121.6V34.1667V34.0395H121.727H154.094L166.598 9.61671H121.791H121.664V9.48951L121.727 0.89064H79.3246Z" fill="#98A0A9"/>
<mask id="mask1_8_6293" style="mask-type:luminance" maskUnits="userSpaceOnUse" x="47" y="4" width="107" height="36">
<path d="M83.6876 4.7959H117.492H117.619V4.92311V14.0435L153.115 13.9799H153.312L153.242 14.1707L145.559 29.6767L145.495 29.7403H145.432L117.619 29.6067V39.3122V39.4458H117.492H100.491H83.6876H83.5604V39.3122V29.7403L48.1283 29.2823H47.9311L48.0011 29.0852L55.6205 14.1071V14.0435H55.7477H83.5604V4.92311V4.7959H83.6876Z" fill="white"/>
</mask>
<g mask="url(#mask1_8_6293)">
<path d="M155.913 3.49194H46.3029V40.2915H155.913V3.49194Z" fill="url(#paint8_linear_8_6293)"/>
</g>
<mask id="mask2_8_6293" style="mask-type:luminance" maskUnits="userSpaceOnUse" x="100" y="4" width="54" height="36">
<path d="M100.427 4.7959H117.492H117.619V4.92311V14.0435L153.115 13.9799H153.312L153.242 14.1707L145.559 29.6767L145.495 29.7403H145.432L117.619 29.6067V39.3122V39.4458H117.492H100.491L100.427 4.7959Z" fill="white"/>
</mask>
<g mask="url(#mask2_8_6293)">
<path d="M153.503 4.33789H99.1236V40.0308H153.503V4.33789Z" fill="url(#paint9_linear_8_6293)"/>
</g>
<path d="M83.6876 4.7959H117.492H117.619V4.92311V14.0435L153.115 13.9799H153.312L153.185 14.1771L145.502 29.6767L145.438 29.7403H145.374L117.568 29.6767V39.3186V39.4458H117.441H100.44H83.6367H83.5095V39.3186V29.7403L47.9502 29.4795H47.753L47.8802 29.2823L55.6332 14.1707L55.6968 14.1071H55.7604H83.5668V4.9867V4.8595H83.694V4.7959H83.6876ZM117.358 5.05667H83.8148V14.1771V14.3043H83.6876H55.8113L48.1919 29.1551L83.6876 29.4159H83.8148V29.5431V39.1151H100.485H117.352V29.4731V29.3459H117.479L145.355 29.4095L152.911 14.1707L117.479 14.2343H117.352V14.1071V5.05667H117.358Z" fill="#98A0A9"/>
<mask id="mask3_8_6293" style="mask-type:luminance" maskUnits="userSpaceOnUse" x="49" y="5" width="104" height="34">
<path d="M84.4699 5.57812H116.709H116.837V5.70533V14.4314L152.135 14.3678L144.713 29.3459L116.837 29.2822V38.4662V38.5935H116.709H100.491H84.4699H84.3427V38.4662V29.3459L49.1077 28.9579L56.4664 14.4314H84.3427V5.70533V5.57812H84.4699Z" fill="white"/>
</mask>
<g mask="url(#mask3_8_6293)">
<path d="M141.329 14.8257H140.286V15.3472H141.329V14.8257Z" fill="#EAC173"/>
<path d="M143.085 14.8257H142.042V15.3472H143.085V14.8257Z" fill="#EAC173"/>
<path d="M144.91 14.8257H143.867V15.3472H144.91V14.8257Z" fill="#EAC173"/>
<path d="M146.665 14.8257H145.622V15.3472H146.665V14.8257Z" fill="#EAC173"/>
<path d="M148.427 14.8257H147.384V15.3472H148.427V14.8257Z" fill="#EAC173"/>
<path d="M150.253 14.8257H149.209V15.3472H150.253V14.8257Z" fill="#EAC173"/>
<path d="M152.008 14.8257H150.965V15.3472H152.008V14.8257Z" fill="#EAC173"/>
<path d="M141.329 16.6511H140.286V17.1726H141.329V16.6511Z" fill="#EAC173"/>
<path d="M143.085 16.6511H142.042V17.1726H143.085V16.6511Z" fill="#EAC173"/>
<path d="M144.91 16.6511H143.867V17.1726H144.91V16.6511Z" fill="#EAC173"/>
<path d="M146.665 16.6511H145.622V17.1726H146.665V16.6511Z" fill="#EAC173"/>
<path d="M148.427 16.6511H147.384V17.1726H148.427V16.6511Z" fill="#EAC173"/>
<path d="M150.253 16.6511H149.209V17.1726H150.253V16.6511Z" fill="#EAC173"/>
<path d="M152.008 16.6511H150.965V17.1726H152.008V16.6511Z" fill="#EAC173"/>
<path d="M141.329 18.4065H140.286V18.928H141.329V18.4065Z" fill="#EAC173"/>
<path d="M143.085 18.4065H142.042V18.928H143.085V18.4065Z" fill="#EAC173"/>
<path d="M144.91 18.4065H143.867V18.928H144.91V18.4065Z" fill="#EAC173"/>
<path d="M146.665 18.4065H145.622V18.928H146.665V18.4065Z" fill="#EAC173"/>
<path d="M148.427 18.4065H147.384V18.928H148.427V18.4065Z" fill="#EAC173"/>
<path d="M150.253 18.4065H149.209V18.928H150.253V18.4065Z" fill="#EAC173"/>
<path d="M152.008 18.4065H150.965V18.928H152.008V18.4065Z" fill="#EAC173"/>
<path d="M141.329 20.1682H140.286V20.6897H141.329V20.1682Z" fill="#EAC173"/>
<path d="M143.085 20.1682H142.042V20.6897H143.085V20.1682Z" fill="#EAC173"/>
<path d="M144.91 20.1682H143.867V20.6897H144.91V20.1682Z" fill="#EAC173"/>
<path d="M146.665 20.1682H145.622V20.6897H146.665V20.1682Z" fill="#EAC173"/>
<path d="M148.427 20.1682H147.384V20.6897H148.427V20.1682Z" fill="#EAC173"/>
<path d="M150.253 20.1682H149.209V20.6897H150.253V20.1682Z" fill="#EAC173"/>
<path d="M152.008 20.1682H150.965V20.6897H152.008V20.1682Z" fill="#EAC173"/>
<path d="M141.329 21.9871H140.286V22.5086H141.329V21.9871Z" fill="#EAC173"/>
<path d="M143.085 21.9871H142.042V22.5086H143.085V21.9871Z" fill="#EAC173"/>
<path d="M144.91 21.9871H143.867V22.5086H144.91V21.9871Z" fill="#EAC173"/>
<path d="M146.665 21.9871H145.622V22.5086H146.665V21.9871Z" fill="#EAC173"/>
<path d="M148.427 21.9871H147.384V22.5086H148.427V21.9871Z" fill="#EAC173"/>
<path d="M150.253 21.9871H149.209V22.5086H150.253V21.9871Z" fill="#EAC173"/>
<path d="M152.008 21.9871H150.965V22.5086H152.008V21.9871Z" fill="#EAC173"/>
<path d="M141.329 23.749H140.286V24.2706H141.329V23.749Z" fill="#EAC173"/>
<path d="M143.085 23.749H142.042V24.2706H143.085V23.749Z" fill="#EAC173"/>
<path d="M144.91 23.749H143.867V24.2706H144.91V23.749Z" fill="#EAC173"/>
<path d="M146.665 23.749H145.622V24.2706H146.665V23.749Z" fill="#EAC173"/>
<path d="M148.427 23.749H147.384V24.2706H148.427V23.749Z" fill="#EAC173"/>
<path d="M150.253 23.749H149.209V24.2706H150.253V23.749Z" fill="#EAC173"/>
<path d="M152.008 23.749H150.965V24.2706H152.008V23.749Z" fill="#EAC173"/>
<path d="M141.329 25.5681H140.286V26.0896H141.329V25.5681Z" fill="#EAC173"/>
<path d="M143.085 25.5681H142.042V26.0896H143.085V25.5681Z" fill="#EAC173"/>
<path d="M144.91 25.5681H143.867V26.0896H144.91V25.5681Z" fill="#EAC173"/>
<path d="M146.665 25.5681H145.622V26.0896H146.665V25.5681Z" fill="#EAC173"/>
<path d="M148.427 25.5681H147.384V26.0896H148.427V25.5681Z" fill="#EAC173"/>
<path d="M150.253 25.5681H149.209V26.0896H150.253V25.5681Z" fill="#EAC173"/>
<path d="M152.008 25.5681H150.965V26.0896H152.008V25.5681Z" fill="#EAC173"/>
<path d="M141.329 27.3298H140.286V27.8514H141.329V27.3298Z" fill="#EAC173"/>
<path d="M143.085 27.3298H142.042V27.8514H143.085V27.3298Z" fill="#EAC173"/>
<path d="M144.91 27.3298H143.867V27.8514H144.91V27.3298Z" fill="#EAC173"/>
<path d="M146.665 27.3298H145.622V27.8514H146.665V27.3298Z" fill="#EAC173"/>
<path d="M148.427 27.3298H147.384V27.8514H148.427V27.3298Z" fill="#EAC173"/>
<path d="M150.253 27.3298H149.209V27.8514H150.253V27.3298Z" fill="#EAC173"/>
<path d="M152.008 27.3298H150.965V27.8514H152.008V27.3298Z" fill="#EAC173"/>
<path d="M141.329 29.0852H140.286V29.6067H141.329V29.0852Z" fill="#EAC173"/>
<path d="M143.085 29.0852H142.042V29.6067H143.085V29.0852Z" fill="#EAC173"/>
<path d="M144.91 29.0852H143.867V29.6067H144.91V29.0852Z" fill="#EAC173"/>
<path d="M146.665 29.0852H145.622V29.6067H146.665V29.0852Z" fill="#EAC173"/>
<path d="M148.427 29.0852H147.384V29.6067H148.427V29.0852Z" fill="#EAC173"/>
<path d="M150.253 29.0852H149.209V29.6067H150.253V29.0852Z" fill="#EAC173"/>
<path d="M152.008 29.0852H150.965V29.6067H152.008V29.0852Z" fill="#EAC173"/>
<path d="M124.526 5.90234H124.265V6.42388H124.526V5.90234Z" fill="#EAC173"/>
<path d="M124.526 7.72778H124.265V8.24932H124.526V7.72778Z" fill="#EAC173"/>
<path d="M124.526 9.48315H124.265V10.0047H124.526V9.48315Z" fill="#EAC173"/>
<path d="M124.526 11.2451H124.265V11.7666H124.526V11.2451Z" fill="#EAC173"/>
<path d="M124.526 13.064H124.265V13.5855H124.526V13.064Z" fill="#EAC173"/>
<path d="M102.119 5.90234H101.076V6.42388H102.119V5.90234Z" fill="#EAC173"/>
<path d="M103.945 5.90234H102.902V6.42388H103.945V5.90234Z" fill="#EAC173"/>
<path d="M105.7 5.90234H104.657V6.42388H105.7V5.90234Z" fill="#EAC173"/>
<path d="M107.462 5.90234H106.419V6.42388H107.462V5.90234Z" fill="#EAC173"/>
<path d="M109.287 5.90234H108.244V6.42388H109.287V5.90234Z" fill="#EAC173"/>
<path d="M111.042 5.90234H109.999V6.42388H111.042V5.90234Z" fill="#EAC173"/>
<path d="M112.804 5.90234H111.761V6.42388H112.804V5.90234Z" fill="#EAC173"/>
<path d="M114.623 5.90234H113.58V6.42388H114.623V5.90234Z" fill="#EAC173"/>
<path d="M116.385 5.90234H115.342V6.42388H116.385V5.90234Z" fill="#EAC173"/>
<path d="M118.14 5.90234H117.097V6.42388H118.14V5.90234Z" fill="#EAC173"/>
<path d="M119.966 5.90234H118.923V6.42388H119.966V5.90234Z" fill="#EAC173"/>
<path d="M121.721 5.90234H120.678V6.42388H121.721V5.90234Z" fill="#EAC173"/>
<path d="M123.483 5.90234H122.44V6.42388H123.483V5.90234Z" fill="#EAC173"/>
<path d="M102.119 7.72778H101.076V8.24932H102.119V7.72778Z" fill="#EAC173"/>
<path d="M103.945 7.72778H102.902V8.24932H103.945V7.72778Z" fill="#EAC173"/>
<path d="M105.7 7.72778H104.657V8.24932H105.7V7.72778Z" fill="#EAC173"/>
<path d="M107.462 7.72778H106.419V8.24932H107.462V7.72778Z" fill="#EAC173"/>
<path d="M109.287 7.72778H108.244V8.24932H109.287V7.72778Z" fill="#EAC173"/>
<path d="M111.042 7.72778H109.999V8.24932H111.042V7.72778Z" fill="#EAC173"/>
<path d="M112.804 7.72778H111.761V8.24932H112.804V7.72778Z" fill="#EAC173"/>
<path d="M114.623 7.72778H113.58V8.24932H114.623V7.72778Z" fill="#EAC173"/>
<path d="M116.385 7.72778H115.342V8.24932H116.385V7.72778Z" fill="#EAC173"/>
<path d="M118.14 7.72778H117.097V8.24932H118.14V7.72778Z" fill="#EAC173"/>
<path d="M119.966 7.72778H118.923V8.24932H119.966V7.72778Z" fill="#EAC173"/>
<path d="M121.721 7.72778H120.678V8.24932H121.721V7.72778Z" fill="#EAC173"/>
<path d="M123.483 7.72778H122.44V8.24932H123.483V7.72778Z" fill="#EAC173"/>
<path d="M102.119 9.48315H101.076V10.0047H102.119V9.48315Z" fill="#EAC173"/>
<path d="M103.945 9.48315H102.902V10.0047H103.945V9.48315Z" fill="#EAC173"/>
<path d="M105.7 9.48315H104.657V10.0047H105.7V9.48315Z" fill="#EAC173"/>
<path d="M107.462 9.48315H106.419V10.0047H107.462V9.48315Z" fill="#EAC173"/>
<path d="M109.287 9.48315H108.244V10.0047H109.287V9.48315Z" fill="#EAC173"/>
<path d="M111.042 9.48315H109.999V10.0047H111.042V9.48315Z" fill="#EAC173"/>
<path d="M112.804 9.48315H111.761V10.0047H112.804V9.48315Z" fill="#EAC173"/>
<path d="M114.623 9.48315H113.58V10.0047H114.623V9.48315Z" fill="#EAC173"/>
<path d="M116.385 9.48315H115.342V10.0047H116.385V9.48315Z" fill="#EAC173"/>
<path d="M118.14 9.48315H117.097V10.0047H118.14V9.48315Z" fill="#EAC173"/>
<path d="M119.966 9.48315H118.923V10.0047H119.966V9.48315Z" fill="#EAC173"/>
<path d="M121.721 9.48315H120.678V10.0047H121.721V9.48315Z" fill="#EAC173"/>
<path d="M123.483 9.48315H122.44V10.0047H123.483V9.48315Z" fill="#EAC173"/>
<path d="M102.119 11.2451H101.076V11.7666H102.119V11.2451Z" fill="#EAC173"/>
<path d="M103.945 11.2451H102.902V11.7666H103.945V11.2451Z" fill="#EAC173"/>
<path d="M105.7 11.2451H104.657V11.7666H105.7V11.2451Z" fill="#EAC173"/>
<path d="M107.462 11.2451H106.419V11.7666H107.462V11.2451Z" fill="#EAC173"/>
<path d="M109.287 11.2451H108.244V11.7666H109.287V11.2451Z" fill="#EAC173"/>
<path d="M111.042 11.2451H109.999V11.7666H111.042V11.2451Z" fill="#EAC173"/>
<path d="M112.804 11.2451H111.761V11.7666H112.804V11.2451Z" fill="#EAC173"/>
<path d="M114.623 11.2451H113.58V11.7666H114.623V11.2451Z" fill="#EAC173"/>
<path d="M116.385 11.2451H115.342V11.7666H116.385V11.2451Z" fill="#EAC173"/>
<path d="M118.14 11.2451H117.097V11.7666H118.14V11.2451Z" fill="#EAC173"/>
<path d="M119.966 11.2451H118.923V11.7666H119.966V11.2451Z" fill="#EAC173"/>
<path d="M121.721 11.2451H120.678V11.7666H121.721V11.2451Z" fill="#EAC173"/>
<path d="M123.483 11.2451H122.44V11.7666H123.483V11.2451Z" fill="#EAC173"/>
<path d="M102.119 13.064H101.076V13.5855H102.119V13.064Z" fill="#EAC173"/>
<path d="M103.945 13.064H102.902V13.5855H103.945V13.064Z" fill="#EAC173"/>
<path d="M105.7 13.064H104.657V13.5855H105.7V13.064Z" fill="#EAC173"/>
<path d="M107.462 13.064H106.419V13.5855H107.462V13.064Z" fill="#EAC173"/>
<path d="M109.287 13.064H108.244V13.5855H109.287V13.064Z" fill="#EAC173"/>
<path d="M111.042 13.064H109.999V13.5855H111.042V13.064Z" fill="#EAC173"/>
<path d="M112.804 13.064H111.761V13.5855H112.804V13.064Z" fill="#EAC173"/>
<path d="M114.623 13.064H113.58V13.5855H114.623V13.064Z" fill="#EAC173"/>
<path d="M116.385 13.064H115.342V13.5855H116.385V13.064Z" fill="#EAC173"/>
<path d="M118.14 13.064H117.097V13.5855H118.14V13.064Z" fill="#EAC173"/>
<path d="M119.966 13.064H118.923V13.5855H119.966V13.064Z" fill="#EAC173"/>
<path d="M121.721 13.064H120.678V13.5855H121.721V13.064Z" fill="#EAC173"/>
<path d="M123.483 13.064H122.44V13.5855H123.483V13.064Z" fill="#EAC173"/>
<path d="M102.119 14.8257H101.076V15.3472H102.119V14.8257Z" fill="#EAC173"/>
<path d="M103.945 14.8257H102.902V15.3472H103.945V14.8257Z" fill="#EAC173"/>
<path d="M105.7 14.8257H104.657V15.3472H105.7V14.8257Z" fill="#EAC173"/>
<path d="M107.462 14.8257H106.419V15.3472H107.462V14.8257Z" fill="#EAC173"/>
<path d="M109.287 14.8257H108.244V15.3472H109.287V14.8257Z" fill="#EAC173"/>
<path d="M111.042 14.8257H109.999V15.3472H111.042V14.8257Z" fill="#EAC173"/>
<path d="M112.804 14.8257H111.761V15.3472H112.804V14.8257Z" fill="#EAC173"/>
<path d="M114.623 14.8257H113.58V15.3472H114.623V14.8257Z" fill="#EAC173"/>
<path d="M116.385 14.8257H115.342V15.3472H116.385V14.8257Z" fill="#EAC173"/>
<path d="M118.14 14.8257H117.097V15.3472H118.14V14.8257Z" fill="#EAC173"/>
<path d="M119.966 14.8257H118.923V15.3472H119.966V14.8257Z" fill="#EAC173"/>
<path d="M121.721 14.8257H120.678V15.3472H121.721V14.8257Z" fill="#EAC173"/>
<path d="M123.483 14.8257H122.44V15.3472H123.483V14.8257Z" fill="#EAC173"/>
<path d="M125.308 14.8257H124.265V15.3472H125.308V14.8257Z" fill="#EAC173"/>
<path d="M127.064 14.8257H126.021V15.3472H127.064V14.8257Z" fill="#EAC173"/>
<path d="M128.889 14.8257H127.846V15.3472H128.889V14.8257Z" fill="#EAC173"/>
<path d="M130.644 14.8257H129.601V15.3472H130.644V14.8257Z" fill="#EAC173"/>
<path d="M132.406 14.8257H131.363V15.3472H132.406V14.8257Z" fill="#EAC173"/>
<path d="M134.231 14.8257H133.188V15.3472H134.231V14.8257Z" fill="#EAC173"/>
<path d="M135.987 14.8257H134.944V15.3472H135.987V14.8257Z" fill="#EAC173"/>
<path d="M137.742 14.8257H136.699V15.3472H137.742V14.8257Z" fill="#EAC173"/>
<path d="M139.568 14.8257H138.525V15.3472H139.568V14.8257Z" fill="#EAC173"/>
<path d="M102.119 16.6511H101.076V17.1726H102.119V16.6511Z" fill="#EAC173"/>
<path d="M103.945 16.6511H102.902V17.1726H103.945V16.6511Z" fill="#EAC173"/>
<path d="M105.7 16.6511H104.657V17.1726H105.7V16.6511Z" fill="#EAC173"/>
<path d="M107.462 16.6511H106.419V17.1726H107.462V16.6511Z" fill="#EAC173"/>
<path d="M109.287 16.6511H108.244V17.1726H109.287V16.6511Z" fill="#EAC173"/>
<path d="M111.042 16.6511H109.999V17.1726H111.042V16.6511Z" fill="#EAC173"/>
<path d="M112.804 16.6511H111.761V17.1726H112.804V16.6511Z" fill="#EAC173"/>
<path d="M114.623 16.6511H113.58V17.1726H114.623V16.6511Z" fill="#EAC173"/>
<path d="M116.385 16.6511H115.342V17.1726H116.385V16.6511Z" fill="#EAC173"/>
<path d="M118.14 16.6511H117.097V17.1726H118.14V16.6511Z" fill="#EAC173"/>
<path d="M119.966 16.6511H118.923V17.1726H119.966V16.6511Z" fill="#EAC173"/>
<path d="M121.721 16.6511H120.678V17.1726H121.721V16.6511Z" fill="#EAC173"/>
<path d="M123.483 16.6511H122.44V17.1726H123.483V16.6511Z" fill="#EAC173"/>
<path d="M125.308 16.6511H124.265V17.1726H125.308V16.6511Z" fill="#EAC173"/>
<path d="M127.064 16.6511H126.021V17.1726H127.064V16.6511Z" fill="#EAC173"/>
<path d="M128.889 16.6511H127.846V17.1726H128.889V16.6511Z" fill="#EAC173"/>
<path d="M130.644 16.6511H129.601V17.1726H130.644V16.6511Z" fill="#EAC173"/>
<path d="M132.406 16.6511H131.363V17.1726H132.406V16.6511Z" fill="#EAC173"/>
<path d="M134.231 16.6511H133.188V17.1726H134.231V16.6511Z" fill="#EAC173"/>
<path d="M135.987 16.6511H134.944V17.1726H135.987V16.6511Z" fill="#EAC173"/>
<path d="M137.742 16.6511H136.699V17.1726H137.742V16.6511Z" fill="#EAC173"/>
<path d="M139.568 16.6511H138.525V17.1726H139.568V16.6511Z" fill="#EAC173"/>
<path d="M102.119 18.4065H101.076V18.928H102.119V18.4065Z" fill="#EAC173"/>
<path d="M103.945 18.4065H102.902V18.928H103.945V18.4065Z" fill="#EAC173"/>
<path d="M105.7 18.4065H104.657V18.928H105.7V18.4065Z" fill="#EAC173"/>
<path d="M107.462 18.4065H106.419V18.928H107.462V18.4065Z" fill="#EAC173"/>
<path d="M109.287 18.4065H108.244V18.928H109.287V18.4065Z" fill="#EAC173"/>
<path d="M111.042 18.4065H109.999V18.928H111.042V18.4065Z" fill="#EAC173"/>
<path d="M112.804 18.4065H111.761V18.928H112.804V18.4065Z" fill="#EAC173"/>
<path d="M114.623 18.4065H113.58V18.928H114.623V18.4065Z" fill="#EAC173"/>
<path d="M116.385 18.4065H115.342V18.928H116.385V18.4065Z" fill="#EAC173"/>
<path d="M118.14 18.4065H117.097V18.928H118.14V18.4065Z" fill="#EAC173"/>
<path d="M119.966 18.4065H118.923V18.928H119.966V18.4065Z" fill="#EAC173"/>
<path d="M121.721 18.4065H120.678V18.928H121.721V18.4065Z" fill="#EAC173"/>
<path d="M123.483 18.4065H122.44V18.928H123.483V18.4065Z" fill="#EAC173"/>
<path d="M125.308 18.4065H124.265V18.928H125.308V18.4065Z" fill="#EAC173"/>
<path d="M127.064 18.4065H126.021V18.928H127.064V18.4065Z" fill="#EAC173"/>
<path d="M128.889 18.4065H127.846V18.928H128.889V18.4065Z" fill="#EAC173"/>
<path d="M130.644 18.4065H129.601V18.928H130.644V18.4065Z" fill="#EAC173"/>
<path d="M132.406 18.4065H131.363V18.928H132.406V18.4065Z" fill="#EAC173"/>
<path d="M134.231 18.4065H133.188V18.928H134.231V18.4065Z" fill="#EAC173"/>
<path d="M135.987 18.4065H134.944V18.928H135.987V18.4065Z" fill="#EAC173"/>
<path d="M137.742 18.4065H136.699V18.928H137.742V18.4065Z" fill="#EAC173"/>
<path d="M139.568 18.4065H138.525V18.928H139.568V18.4065Z" fill="#EAC173"/>
<path d="M102.119 20.1682H101.076V20.6897H102.119V20.1682Z" fill="#EAC173"/>
<path d="M103.945 20.1682H102.902V20.6897H103.945V20.1682Z" fill="#EAC173"/>
<path d="M105.7 20.1682H104.657V20.6897H105.7V20.1682Z" fill="#EAC173"/>
<path d="M107.462 20.1682H106.419V20.6897H107.462V20.1682Z" fill="#EAC173"/>
<path d="M109.287 20.1682H108.244V20.6897H109.287V20.1682Z" fill="#EAC173"/>
<path d="M111.042 20.1682H109.999V20.6897H111.042V20.1682Z" fill="#EAC173"/>
<path d="M112.804 20.1682H111.761V20.6897H112.804V20.1682Z" fill="#EAC173"/>
<path d="M114.623 20.1682H113.58V20.6897H114.623V20.1682Z" fill="#EAC173"/>
<path d="M116.385 20.1682H115.342V20.6897H116.385V20.1682Z" fill="#EAC173"/>
<path d="M118.14 20.1682H117.097V20.6897H118.14V20.1682Z" fill="#EAC173"/>
<path d="M119.966 20.1682H118.923V20.6897H119.966V20.1682Z" fill="#EAC173"/>
<path d="M121.721 20.1682H120.678V20.6897H121.721V20.1682Z" fill="#EAC173"/>
<path d="M123.483 20.1682H122.44V20.6897H123.483V20.1682Z" fill="#EAC173"/>
<path d="M125.308 20.1682H124.265V20.6897H125.308V20.1682Z" fill="#EAC173"/>
<path d="M127.064 20.1682H126.021V20.6897H127.064V20.1682Z" fill="#EAC173"/>
<path d="M128.889 20.1682H127.846V20.6897H128.889V20.1682Z" fill="#EAC173"/>
<path d="M130.644 20.1682H129.601V20.6897H130.644V20.1682Z" fill="#EAC173"/>
<path d="M132.406 20.1682H131.363V20.6897H132.406V20.1682Z" fill="#EAC173"/>
<path d="M134.231 20.1682H133.188V20.6897H134.231V20.1682Z" fill="#EAC173"/>
<path d="M135.987 20.1682H134.944V20.6897H135.987V20.1682Z" fill="#EAC173"/>
<path d="M137.742 20.1682H136.699V20.6897H137.742V20.1682Z" fill="#EAC173"/>
<path d="M139.568 20.1682H138.525V20.6897H139.568V20.1682Z" fill="#EAC173"/>
<path d="M102.119 21.9871H101.076V22.5086H102.119V21.9871Z" fill="#EAC173"/>
<path d="M103.945 21.9871H102.902V22.5086H103.945V21.9871Z" fill="#EAC173"/>
<path d="M105.7 21.9871H104.657V22.5086H105.7V21.9871Z" fill="#EAC173"/>
<path d="M107.462 21.9871H106.419V22.5086H107.462V21.9871Z" fill="#EAC173"/>
<path d="M109.287 21.9871H108.244V22.5086H109.287V21.9871Z" fill="#EAC173"/>
<path d="M111.042 21.9871H109.999V22.5086H111.042V21.9871Z" fill="#EAC173"/>
<path d="M112.804 21.9871H111.761V22.5086H112.804V21.9871Z" fill="#EAC173"/>
<path d="M114.623 21.9871H113.58V22.5086H114.623V21.9871Z" fill="#EAC173"/>
<path d="M116.385 21.9871H115.342V22.5086H116.385V21.9871Z" fill="#EAC173"/>
<path d="M118.14 21.9871H117.097V22.5086H118.14V21.9871Z" fill="#EAC173"/>
<path d="M119.966 21.9871H118.923V22.5086H119.966V21.9871Z" fill="#EAC173"/>
<path d="M121.721 21.9871H120.678V22.5086H121.721V21.9871Z" fill="#EAC173"/>
<path d="M123.483 21.9871H122.44V22.5086H123.483V21.9871Z" fill="#EAC173"/>
<path d="M125.308 21.9871H124.265V22.5086H125.308V21.9871Z" fill="#EAC173"/>
<path d="M127.064 21.9871H126.021V22.5086H127.064V21.9871Z" fill="#EAC173"/>
<path d="M128.889 21.9871H127.846V22.5086H128.889V21.9871Z" fill="#EAC173"/>
<path d="M130.644 21.9871H129.601V22.5086H130.644V21.9871Z" fill="#EAC173"/>
<path d="M132.406 21.9871H131.363V22.5086H132.406V21.9871Z" fill="#EAC173"/>
<path d="M134.231 21.9871H133.188V22.5086H134.231V21.9871Z" fill="#EAC173"/>
<path d="M135.987 21.9871H134.944V22.5086H135.987V21.9871Z" fill="#EAC173"/>
<path d="M137.742 21.9871H136.699V22.5086H137.742V21.9871Z" fill="#EAC173"/>
<path d="M139.568 21.9871H138.525V22.5086H139.568V21.9871Z" fill="#EAC173"/>
<path d="M124.914 30.9104H124.265V31.4319H124.914V30.9104Z" fill="#EAC173"/>
<path d="M124.914 32.6721H124.265V33.1937H124.914V32.6721Z" fill="#EAC173"/>
<path d="M124.914 34.4912H124.265V35.0127H124.914V34.4912Z" fill="#EAC173"/>
<path d="M124.914 36.2529H124.265V36.7744H124.914V36.2529Z" fill="#EAC173"/>
<path d="M124.914 38.0083H124.265V38.5298H124.914V38.0083Z" fill="#EAC173"/>
<path d="M102.119 23.749H101.076V24.2706H102.119V23.749Z" fill="#EAC173"/>
<path d="M103.945 23.749H102.902V24.2706H103.945V23.749Z" fill="#EAC173"/>
<path d="M105.7 23.749H104.657V24.2706H105.7V23.749Z" fill="#EAC173"/>
<path d="M107.462 23.749H106.419V24.2706H107.462V23.749Z" fill="#EAC173"/>
<path d="M109.287 23.749H108.244V24.2706H109.287V23.749Z" fill="#EAC173"/>
<path d="M111.042 23.749H109.999V24.2706H111.042V23.749Z" fill="#EAC173"/>
<path d="M112.804 23.749H111.761V24.2706H112.804V23.749Z" fill="#EAC173"/>
<path d="M114.623 23.749H113.58V24.2706H114.623V23.749Z" fill="#EAC173"/>
<path d="M116.385 23.749H115.342V24.2706H116.385V23.749Z" fill="#EAC173"/>
<path d="M118.14 23.749H117.097V24.2706H118.14V23.749Z" fill="#EAC173"/>
<path d="M119.966 23.749H118.923V24.2706H119.966V23.749Z" fill="#EAC173"/>
<path d="M121.721 23.749H120.678V24.2706H121.721V23.749Z" fill="#EAC173"/>
<path d="M123.483 23.749H122.44V24.2706H123.483V23.749Z" fill="#EAC173"/>
<path d="M125.308 23.749H124.265V24.2706H125.308V23.749Z" fill="#EAC173"/>
<path d="M127.064 23.749H126.021V24.2706H127.064V23.749Z" fill="#EAC173"/>
<path d="M128.889 23.749H127.846V24.2706H128.889V23.749Z" fill="#EAC173"/>
<path d="M130.644 23.749H129.601V24.2706H130.644V23.749Z" fill="#EAC173"/>
<path d="M132.406 23.749H131.363V24.2706H132.406V23.749Z" fill="#EAC173"/>
<path d="M134.231 23.749H133.188V24.2706H134.231V23.749Z" fill="#EAC173"/>
<path d="M135.987 23.749H134.944V24.2706H135.987V23.749Z" fill="#EAC173"/>
<path d="M137.742 23.749H136.699V24.2706H137.742V23.749Z" fill="#EAC173"/>
<path d="M139.568 23.749H138.525V24.2706H139.568V23.749Z" fill="#EAC173"/>
<path d="M102.119 25.5681H101.076V26.0896H102.119V25.5681Z" fill="#EAC173"/>
<path d="M103.945 25.5681H102.902V26.0896H103.945V25.5681Z" fill="#EAC173"/>
<path d="M105.7 25.5681H104.657V26.0896H105.7V25.5681Z" fill="#EAC173"/>
<path d="M107.462 25.5681H106.419V26.0896H107.462V25.5681Z" fill="#EAC173"/>
<path d="M109.287 25.5681H108.244V26.0896H109.287V25.5681Z" fill="#EAC173"/>
<path d="M111.042 25.5681H109.999V26.0896H111.042V25.5681Z" fill="#EAC173"/>
<path d="M112.804 25.5681H111.761V26.0896H112.804V25.5681Z" fill="#EAC173"/>
<path d="M114.623 25.5681H113.58V26.0896H114.623V25.5681Z" fill="#EAC173"/>
<path d="M116.385 25.5681H115.342V26.0896H116.385V25.5681Z" fill="#EAC173"/>
<path d="M118.14 25.5681H117.097V26.0896H118.14V25.5681Z" fill="#EAC173"/>
<path d="M119.966 25.5681H118.923V26.0896H119.966V25.5681Z" fill="#EAC173"/>
<path d="M121.721 25.5681H120.678V26.0896H121.721V25.5681Z" fill="#EAC173"/>
<path d="M123.483 25.5681H122.44V26.0896H123.483V25.5681Z" fill="#EAC173"/>
<path d="M125.308 25.5681H124.265V26.0896H125.308V25.5681Z" fill="#EAC173"/>
<path d="M127.064 25.5681H126.021V26.0896H127.064V25.5681Z" fill="#EAC173"/>
<path d="M128.889 25.5681H127.846V26.0896H128.889V25.5681Z" fill="#EAC173"/>
<path d="M130.644 25.5681H129.601V26.0896H130.644V25.5681Z" fill="#EAC173"/>
<path d="M132.406 25.5681H131.363V26.0896H132.406V25.5681Z" fill="#EAC173"/>
<path d="M134.231 25.5681H133.188V26.0896H134.231V25.5681Z" fill="#EAC173"/>
<path d="M135.987 25.5681H134.944V26.0896H135.987V25.5681Z" fill="#EAC173"/>
<path d="M137.742 25.5681H136.699V26.0896H137.742V25.5681Z" fill="#EAC173"/>
<path d="M139.568 25.5681H138.525V26.0896H139.568V25.5681Z" fill="#EAC173"/>
<path d="M102.119 27.3298H101.076V27.8514H102.119V27.3298Z" fill="#EAC173"/>
<path d="M103.945 27.3298H102.902V27.8514H103.945V27.3298Z" fill="#EAC173"/>
<path d="M105.7 27.3298H104.657V27.8514H105.7V27.3298Z" fill="#EAC173"/>
<path d="M107.462 27.3298H106.419V27.8514H107.462V27.3298Z" fill="#EAC173"/>
<path d="M109.287 27.3298H108.244V27.8514H109.287V27.3298Z" fill="#EAC173"/>
<path d="M111.042 27.3298H109.999V27.8514H111.042V27.3298Z" fill="#EAC173"/>
<path d="M112.804 27.3298H111.761V27.8514H112.804V27.3298Z" fill="#EAC173"/>
<path d="M114.623 27.3298H113.58V27.8514H114.623V27.3298Z" fill="#EAC173"/>
<path d="M116.385 27.3298H115.342V27.8514H116.385V27.3298Z" fill="#EAC173"/>
<path d="M118.14 27.3298H117.097V27.8514H118.14V27.3298Z" fill="#EAC173"/>
<path d="M119.966 27.3298H118.923V27.8514H119.966V27.3298Z" fill="#EAC173"/>
<path d="M121.721 27.3298H120.678V27.8514H121.721V27.3298Z" fill="#EAC173"/>
<path d="M123.483 27.3298H122.44V27.8514H123.483V27.3298Z" fill="#EAC173"/>
<path d="M125.308 27.3298H124.265V27.8514H125.308V27.3298Z" fill="#EAC173"/>
<path d="M127.064 27.3298H126.021V27.8514H127.064V27.3298Z" fill="#EAC173"/>
<path d="M128.889 27.3298H127.846V27.8514H128.889V27.3298Z" fill="#EAC173"/>
<path d="M130.644 27.3298H129.601V27.8514H130.644V27.3298Z" fill="#EAC173"/>
<path d="M132.406 27.3298H131.363V27.8514H132.406V27.3298Z" fill="#EAC173"/>
<path d="M134.231 27.3298H133.188V27.8514H134.231V27.3298Z" fill="#EAC173"/>
<path d="M135.987 27.3298H134.944V27.8514H135.987V27.3298Z" fill="#EAC173"/>
<path d="M137.742 27.3298H136.699V27.8514H137.742V27.3298Z" fill="#EAC173"/>
<path d="M139.568 27.3298H138.525V27.8514H139.568V27.3298Z" fill="#EAC173"/>
<path d="M102.119 29.0852H101.076V29.6067H102.119V29.0852Z" fill="#EAC173"/>
<path d="M103.945 29.0852H102.902V29.6067H103.945V29.0852Z" fill="#EAC173"/>
<path d="M105.7 29.0852H104.657V29.6067H105.7V29.0852Z" fill="#EAC173"/>
<path d="M107.462 29.0852H106.419V29.6067H107.462V29.0852Z" fill="#EAC173"/>
<path d="M109.287 29.0852H108.244V29.6067H109.287V29.0852Z" fill="#EAC173"/>
<path d="M111.042 29.0852H109.999V29.6067H111.042V29.0852Z" fill="#EAC173"/>
<path d="M112.804 29.0852H111.761V29.6067H112.804V29.0852Z" fill="#EAC173"/>
<path d="M114.623 29.0852H113.58V29.6067H114.623V29.0852Z" fill="#EAC173"/>
<path d="M116.385 29.0852H115.342V29.6067H116.385V29.0852Z" fill="#EAC173"/>
<path d="M118.14 29.0852H117.097V29.6067H118.14V29.0852Z" fill="#EAC173"/>
<path d="M119.966 29.0852H118.923V29.6067H119.966V29.0852Z" fill="#EAC173"/>
<path d="M121.721 29.0852H120.678V29.6067H121.721V29.0852Z" fill="#EAC173"/>
<path d="M123.483 29.0852H122.44V29.6067H123.483V29.0852Z" fill="#EAC173"/>
<path d="M125.308 29.0852H124.265V29.6067H125.308V29.0852Z" fill="#EAC173"/>
<path d="M127.064 29.0852H126.021V29.6067H127.064V29.0852Z" fill="#EAC173"/>
<path d="M128.889 29.0852H127.846V29.6067H128.889V29.0852Z" fill="#EAC173"/>
<path d="M130.644 29.0852H129.601V29.6067H130.644V29.0852Z" fill="#EAC173"/>
<path d="M132.406 29.0852H131.363V29.6067H132.406V29.0852Z" fill="#EAC173"/>
<path d="M134.231 29.0852H133.188V29.6067H134.231V29.0852Z" fill="#EAC173"/>
<path d="M135.987 29.0852H134.944V29.6067H135.987V29.0852Z" fill="#EAC173"/>
<path d="M137.742 29.0852H136.699V29.6067H137.742V29.0852Z" fill="#EAC173"/>
<path d="M139.568 29.0852H138.525V29.6067H139.568V29.0852Z" fill="#EAC173"/>
<path d="M102.119 30.9104H101.076V31.4319H102.119V30.9104Z" fill="#EAC173"/>
<path d="M103.945 30.9104H102.902V31.4319H103.945V30.9104Z" fill="#EAC173"/>
<path d="M105.7 30.9104H104.657V31.4319H105.7V30.9104Z" fill="#EAC173"/>
<path d="M107.462 30.9104H106.419V31.4319H107.462V30.9104Z" fill="#EAC173"/>
<path d="M109.287 30.9104H108.244V31.4319H109.287V30.9104Z" fill="#EAC173"/>
<path d="M111.042 30.9104H109.999V31.4319H111.042V30.9104Z" fill="#EAC173"/>
<path d="M112.804 30.9104H111.761V31.4319H112.804V30.9104Z" fill="#EAC173"/>
<path d="M114.623 30.9104H113.58V31.4319H114.623V30.9104Z" fill="#EAC173"/>
<path d="M116.385 30.9104H115.342V31.4319H116.385V30.9104Z" fill="#EAC173"/>
<path d="M118.14 30.9104H117.097V31.4319H118.14V30.9104Z" fill="#EAC173"/>
<path d="M119.966 30.9104H118.923V31.4319H119.966V30.9104Z" fill="#EAC173"/>
<path d="M121.721 30.9104H120.678V31.4319H121.721V30.9104Z" fill="#EAC173"/>
<path d="M123.483 30.9104H122.44V31.4319H123.483V30.9104Z" fill="#EAC173"/>
<path d="M102.119 32.6721H101.076V33.1937H102.119V32.6721Z" fill="#EAC173"/>
<path d="M103.945 32.6721H102.902V33.1937H103.945V32.6721Z" fill="#EAC173"/>
<path d="M105.7 32.6721H104.657V33.1937H105.7V32.6721Z" fill="#EAC173"/>
<path d="M107.462 32.6721H106.419V33.1937H107.462V32.6721Z" fill="#EAC173"/>
<path d="M109.287 32.6721H108.244V33.1937H109.287V32.6721Z" fill="#EAC173"/>
<path d="M111.042 32.6721H109.999V33.1937H111.042V32.6721Z" fill="#EAC173"/>
<path d="M112.804 32.6721H111.761V33.1937H112.804V32.6721Z" fill="#EAC173"/>
<path d="M114.623 32.6721H113.58V33.1937H114.623V32.6721Z" fill="#EAC173"/>
<path d="M116.385 32.6721H115.342V33.1937H116.385V32.6721Z" fill="#EAC173"/>
<path d="M118.14 32.6721H117.097V33.1937H118.14V32.6721Z" fill="#EAC173"/>
<path d="M119.966 32.6721H118.923V33.1937H119.966V32.6721Z" fill="#EAC173"/>
<path d="M121.721 32.6721H120.678V33.1937H121.721V32.6721Z" fill="#EAC173"/>
<path d="M123.483 32.6721H122.44V33.1937H123.483V32.6721Z" fill="#EAC173"/>
<path d="M102.119 34.4912H101.076V35.0127H102.119V34.4912Z" fill="#EAC173"/>
<path d="M103.945 34.4912H102.902V35.0127H103.945V34.4912Z" fill="#EAC173"/>
<path d="M105.7 34.4912H104.657V35.0127H105.7V34.4912Z" fill="#EAC173"/>
<path d="M107.462 34.4912H106.419V35.0127H107.462V34.4912Z" fill="#EAC173"/>
<path d="M109.287 34.4912H108.244V35.0127H109.287V34.4912Z" fill="#EAC173"/>
<path d="M111.042 34.4912H109.999V35.0127H111.042V34.4912Z" fill="#EAC173"/>
<path d="M112.804 34.4912H111.761V35.0127H112.804V34.4912Z" fill="#EAC173"/>
<path d="M114.623 34.4912H113.58V35.0127H114.623V34.4912Z" fill="#EAC173"/>
<path d="M116.385 34.4912H115.342V35.0127H116.385V34.4912Z" fill="#EAC173"/>
<path d="M118.14 34.4912H117.097V35.0127H118.14V34.4912Z" fill="#EAC173"/>
<path d="M119.966 34.4912H118.923V35.0127H119.966V34.4912Z" fill="#EAC173"/>
<path d="M121.721 34.4912H120.678V35.0127H121.721V34.4912Z" fill="#EAC173"/>
<path d="M123.483 34.4912H122.44V35.0127H123.483V34.4912Z" fill="#EAC173"/>
<path d="M102.119 36.2529H101.076V36.7744H102.119V36.2529Z" fill="#EAC173"/>
<path d="M103.945 36.2529H102.902V36.7744H103.945V36.2529Z" fill="#EAC173"/>
<path d="M105.7 36.2529H104.657V36.7744H105.7V36.2529Z" fill="#EAC173"/>
<path d="M107.462 36.2529H106.419V36.7744H107.462V36.2529Z" fill="#EAC173"/>
<path d="M109.287 36.2529H108.244V36.7744H109.287V36.2529Z" fill="#EAC173"/>
<path d="M111.042 36.2529H109.999V36.7744H111.042V36.2529Z" fill="#EAC173"/>
<path d="M112.804 36.2529H111.761V36.7744H112.804V36.2529Z" fill="#EAC173"/>
<path d="M114.623 36.2529H113.58V36.7744H114.623V36.2529Z" fill="#EAC173"/>
<path d="M116.385 36.2529H115.342V36.7744H116.385V36.2529Z" fill="#EAC173"/>
<path d="M118.14 36.2529H117.097V36.7744H118.14V36.2529Z" fill="#EAC173"/>
<path d="M119.966 36.2529H118.923V36.7744H119.966V36.2529Z" fill="#EAC173"/>
<path d="M121.721 36.2529H120.678V36.7744H121.721V36.2529Z" fill="#EAC173"/>
<path d="M123.483 36.2529H122.44V36.7744H123.483V36.2529Z" fill="#EAC173"/>
<path d="M102.119 38.0083H101.076V38.5298H102.119V38.0083Z" fill="#EAC173"/>
<path d="M103.945 38.0083H102.902V38.5298H103.945V38.0083Z" fill="#EAC173"/>
<path d="M105.7 38.0083H104.657V38.5298H105.7V38.0083Z" fill="#EAC173"/>
<path d="M107.462 38.0083H106.419V38.5298H107.462V38.0083Z" fill="#EAC173"/>
<path d="M109.287 38.0083H108.244V38.5298H109.287V38.0083Z" fill="#EAC173"/>
<path d="M111.042 38.0083H109.999V38.5298H111.042V38.0083Z" fill="#EAC173"/>
<path d="M112.804 38.0083H111.761V38.5298H112.804V38.0083Z" fill="#EAC173"/>
<path d="M114.623 38.0083H113.58V38.5298H114.623V38.0083Z" fill="#EAC173"/>
<path d="M116.385 38.0083H115.342V38.5298H116.385V38.0083Z" fill="#EAC173"/>
<path d="M118.14 38.0083H117.097V38.5298H118.14V38.0083Z" fill="#EAC173"/>
<path d="M119.966 38.0083H118.923V38.5298H119.966V38.0083Z" fill="#EAC173"/>
<path d="M121.721 38.0083H120.678V38.5298H121.721V38.0083Z" fill="#EAC173"/>
<path d="M123.483 38.0083H122.44V38.5298H123.483V38.0083Z" fill="#EAC173"/>
<path d="M79.0002 13.064H78.5423V13.5855H79.0002V13.064Z" fill="#EAC173"/>
<path d="M79.0002 11.2451H78.5423V11.7666H79.0002V11.2451Z" fill="#EAC173"/>
<path d="M79.0002 9.48315H78.5423V10.0047H79.0002V9.48315Z" fill="#EAC173"/>
<path d="M79.0002 7.72778H78.5423V8.24932H79.0002V7.72778Z" fill="#EAC173"/>
<path d="M79.0002 5.90234H78.5423V6.42388H79.0002V5.90234Z" fill="#EAC173"/>
<path d="M80.7556 5.90234H79.7126V6.42388H80.7556V5.90234Z" fill="#EAC173"/>
<path d="M82.5174 5.90234H81.4743V6.42388H82.5174V5.90234Z" fill="#EAC173"/>
<path d="M84.3427 5.90234H83.2997V6.42388H84.3427V5.90234Z" fill="#EAC173"/>
<path d="M86.0981 5.90234H85.0551V6.42388H86.0981V5.90234Z" fill="#EAC173"/>
<path d="M87.8599 5.90234H86.8168V6.42388H87.8599V5.90234Z" fill="#EAC173"/>
<path d="M89.6789 5.90234H88.6358V6.42388H89.6789V5.90234Z" fill="#EAC173"/>
<path d="M91.4406 5.90234H90.3975V6.42388H91.4406V5.90234Z" fill="#EAC173"/>
<path d="M93.196 5.90234H92.1529V6.42388H93.196V5.90234Z" fill="#EAC173"/>
<path d="M95.0214 5.90234H93.9783V6.42388H95.0214V5.90234Z" fill="#EAC173"/>
<path d="M96.7831 5.90234H95.74V6.42388H96.7831V5.90234Z" fill="#EAC173"/>
<path d="M98.6021 5.90234H97.559V6.42388H98.6021V5.90234Z" fill="#EAC173"/>
<path d="M100.364 5.90234H99.3208V6.42388H100.364V5.90234Z" fill="#EAC173"/>
<path d="M80.7556 7.72778H79.7126V8.24932H80.7556V7.72778Z" fill="#EAC173"/>
<path d="M82.5174 7.72778H81.4743V8.24932H82.5174V7.72778Z" fill="#EAC173"/>
<path d="M84.3427 7.72778H83.2997V8.24932H84.3427V7.72778Z" fill="#EAC173"/>
<path d="M86.0981 7.72778H85.0551V8.24932H86.0981V7.72778Z" fill="#EAC173"/>
<path d="M87.8599 7.72778H86.8168V8.24932H87.8599V7.72778Z" fill="#EAC173"/>
<path d="M89.6789 7.72778H88.6358V8.24932H89.6789V7.72778Z" fill="#EAC173"/>
<path d="M91.4406 7.72778H90.3975V8.24932H91.4406V7.72778Z" fill="#EAC173"/>
<path d="M93.196 7.72778H92.1529V8.24932H93.196V7.72778Z" fill="#EAC173"/>
<path d="M95.0214 7.72778H93.9783V8.24932H95.0214V7.72778Z" fill="#EAC173"/>
<path d="M96.7831 7.72778H95.74V8.24932H96.7831V7.72778Z" fill="#EAC173"/>
<path d="M98.6021 7.72778H97.559V8.24932H98.6021V7.72778Z" fill="#EAC173"/>
<path d="M100.364 7.72778H99.3208V8.24932H100.364V7.72778Z" fill="#EAC173"/>
<path d="M80.7556 9.48315H79.7126V10.0047H80.7556V9.48315Z" fill="#EAC173"/>
<path d="M82.5174 9.48315H81.4743V10.0047H82.5174V9.48315Z" fill="#EAC173"/>
<path d="M84.3427 9.48315H83.2997V10.0047H84.3427V9.48315Z" fill="#EAC173"/>
<path d="M86.0981 9.48315H85.0551V10.0047H86.0981V9.48315Z" fill="#EAC173"/>
<path d="M87.8599 9.48315H86.8168V10.0047H87.8599V9.48315Z" fill="#EAC173"/>
<path d="M89.6789 9.48315H88.6358V10.0047H89.6789V9.48315Z" fill="#EAC173"/>
<path d="M91.4406 9.48315H90.3975V10.0047H91.4406V9.48315Z" fill="#EAC173"/>
<path d="M93.196 9.48315H92.1529V10.0047H93.196V9.48315Z" fill="#EAC173"/>
<path d="M95.0214 9.48315H93.9783V10.0047H95.0214V9.48315Z" fill="#EAC173"/>
<path d="M96.7831 9.48315H95.74V10.0047H96.7831V9.48315Z" fill="#EAC173"/>
<path d="M98.6021 9.48315H97.559V10.0047H98.6021V9.48315Z" fill="#EAC173"/>
<path d="M100.364 9.48315H99.3208V10.0047H100.364V9.48315Z" fill="#EAC173"/>
<path d="M80.7556 11.2451H79.7126V11.7666H80.7556V11.2451Z" fill="#EAC173"/>
<path d="M82.5174 11.2451H81.4743V11.7666H82.5174V11.2451Z" fill="#EAC173"/>
<path d="M84.3427 11.2451H83.2997V11.7666H84.3427V11.2451Z" fill="#EAC173"/>
<path d="M86.0981 11.2451H85.0551V11.7666H86.0981V11.2451Z" fill="#EAC173"/>
<path d="M87.8599 11.2451H86.8168V11.7666H87.8599V11.2451Z" fill="#EAC173"/>
<path d="M89.6789 11.2451H88.6358V11.7666H89.6789V11.2451Z" fill="#EAC173"/>
<path d="M91.4406 11.2451H90.3975V11.7666H91.4406V11.2451Z" fill="#EAC173"/>
<path d="M93.196 11.2451H92.1529V11.7666H93.196V11.2451Z" fill="#EAC173"/>
<path d="M95.0214 11.2451H93.9783V11.7666H95.0214V11.2451Z" fill="#EAC173"/>
<path d="M96.7831 11.2451H95.74V11.7666H96.7831V11.2451Z" fill="#EAC173"/>
<path d="M98.6021 11.2451H97.559V11.7666H98.6021V11.2451Z" fill="#EAC173"/>
<path d="M100.364 11.2451H99.3208V11.7666H100.364V11.2451Z" fill="#EAC173"/>
<path d="M80.7556 13.064H79.7126V13.5855H80.7556V13.064Z" fill="#EAC173"/>
<path d="M82.5174 13.064H81.4743V13.5855H82.5174V13.064Z" fill="#EAC173"/>
<path d="M84.3427 13.064H83.2997V13.5855H84.3427V13.064Z" fill="#EAC173"/>
<path d="M86.0981 13.064H85.0551V13.5855H86.0981V13.064Z" fill="#EAC173"/>
<path d="M87.8599 13.064H86.8168V13.5855H87.8599V13.064Z" fill="#EAC173"/>
<path d="M89.6789 13.064H88.6358V13.5855H89.6789V13.064Z" fill="#EAC173"/>
<path d="M91.4406 13.064H90.3975V13.5855H91.4406V13.064Z" fill="#EAC173"/>
<path d="M93.196 13.064H92.1529V13.5855H93.196V13.064Z" fill="#EAC173"/>
<path d="M95.0214 13.064H93.9783V13.5855H95.0214V13.064Z" fill="#EAC173"/>
<path d="M96.7831 13.064H95.74V13.5855H96.7831V13.064Z" fill="#EAC173"/>
<path d="M98.6021 13.064H97.559V13.5855H98.6021V13.064Z" fill="#EAC173"/>
<path d="M100.364 13.064H99.3208V13.5855H100.364V13.064Z" fill="#EAC173"/>
<path d="M62.9155 14.8257H61.8725V15.3472H62.9155V14.8257Z" fill="#EAC173"/>
<path d="M64.7345 14.8257H63.6914V15.3472H64.7345V14.8257Z" fill="#EAC173"/>
<path d="M66.4963 14.8257H65.4532V15.3472H66.4963V14.8257Z" fill="#EAC173"/>
<path d="M68.3216 14.8257H67.2785V15.3472H68.3216V14.8257Z" fill="#EAC173"/>
<path d="M70.077 14.8257H69.0339V15.3472H70.077V14.8257Z" fill="#EAC173"/>
<path d="M71.8387 14.8257H70.7957V15.3472H71.8387V14.8257Z" fill="#EAC173"/>
<path d="M73.6577 14.8257H72.6147V15.3472H73.6577V14.8257Z" fill="#EAC173"/>
<path d="M75.4195 14.8257H74.3764V15.3472H75.4195V14.8257Z" fill="#EAC173"/>
<path d="M77.1749 14.8257H76.1318V15.3472H77.1749V14.8257Z" fill="#EAC173"/>
<path d="M79.0002 14.8257H77.9572V15.3472H79.0002V14.8257Z" fill="#EAC173"/>
<path d="M80.7556 14.8257H79.7126V15.3472H80.7556V14.8257Z" fill="#EAC173"/>
<path d="M82.5174 14.8257H81.4743V15.3472H82.5174V14.8257Z" fill="#EAC173"/>
<path d="M84.3427 14.8257H83.2997V15.3472H84.3427V14.8257Z" fill="#EAC173"/>
<path d="M86.0981 14.8257H85.0551V15.3472H86.0981V14.8257Z" fill="#EAC173"/>
<path d="M87.8599 14.8257H86.8168V15.3472H87.8599V14.8257Z" fill="#EAC173"/>
<path d="M89.6789 14.8257H88.6358V15.3472H89.6789V14.8257Z" fill="#EAC173"/>
<path d="M91.4406 14.8257H90.3975V15.3472H91.4406V14.8257Z" fill="#EAC173"/>
<path d="M93.196 14.8257H92.1529V15.3472H93.196V14.8257Z" fill="#EAC173"/>
<path d="M95.0214 14.8257H93.9783V15.3472H95.0214V14.8257Z" fill="#EAC173"/>
<path d="M96.7831 14.8257H95.74V15.3472H96.7831V14.8257Z" fill="#EAC173"/>
<path d="M98.6021 14.8257H97.559V15.3472H98.6021V14.8257Z" fill="#EAC173"/>
<path d="M100.364 14.8257H99.3208V15.3472H100.364V14.8257Z" fill="#EAC173"/>
<path d="M62.9155 16.6511H61.8725V17.1726H62.9155V16.6511Z" fill="#EAC173"/>
<path d="M64.7345 16.6511H63.6914V17.1726H64.7345V16.6511Z" fill="#EAC173"/>
<path d="M66.4963 16.6511H65.4532V17.1726H66.4963V16.6511Z" fill="#EAC173"/>
<path d="M68.3216 16.6511H67.2785V17.1726H68.3216V16.6511Z" fill="#EAC173"/>
<path d="M70.077 16.6511H69.0339V17.1726H70.077V16.6511Z" fill="#EAC173"/>
<path d="M71.8387 16.6511H70.7957V17.1726H71.8387V16.6511Z" fill="#EAC173"/>
<path d="M73.6577 16.6511H72.6147V17.1726H73.6577V16.6511Z" fill="#EAC173"/>
<path d="M75.4195 16.6511H74.3764V17.1726H75.4195V16.6511Z" fill="#EAC173"/>
<path d="M77.1749 16.6511H76.1318V17.1726H77.1749V16.6511Z" fill="#EAC173"/>
<path d="M79.0002 16.6511H77.9572V17.1726H79.0002V16.6511Z" fill="#EAC173"/>
<path d="M80.7556 16.6511H79.7126V17.1726H80.7556V16.6511Z" fill="#EAC173"/>
<path d="M82.5174 16.6511H81.4743V17.1726H82.5174V16.6511Z" fill="#EAC173"/>
<path d="M84.3427 16.6511H83.2997V17.1726H84.3427V16.6511Z" fill="#EAC173"/>
<path d="M86.0981 16.6511H85.0551V17.1726H86.0981V16.6511Z" fill="#EAC173"/>
<path d="M87.8599 16.6511H86.8168V17.1726H87.8599V16.6511Z" fill="#EAC173"/>
<path d="M89.6789 16.6511H88.6358V17.1726H89.6789V16.6511Z" fill="#EAC173"/>
<path d="M91.4406 16.6511H90.3975V17.1726H91.4406V16.6511Z" fill="#EAC173"/>
<path d="M93.196 16.6511H92.1529V17.1726H93.196V16.6511Z" fill="#EAC173"/>
<path d="M95.0214 16.6511H93.9783V17.1726H95.0214V16.6511Z" fill="#EAC173"/>
<path d="M96.7831 16.6511H95.74V17.1726H96.7831V16.6511Z" fill="#EAC173"/>
<path d="M98.6021 16.6511H97.559V17.1726H98.6021V16.6511Z" fill="#EAC173"/>
<path d="M100.364 16.6511H99.3208V17.1726H100.364V16.6511Z" fill="#EAC173"/>
<path d="M62.9155 18.4065H61.8725V18.928H62.9155V18.4065Z" fill="#EAC173"/>
<path d="M64.7345 18.4065H63.6914V18.928H64.7345V18.4065Z" fill="#EAC173"/>
<path d="M66.4963 18.4065H65.4532V18.928H66.4963V18.4065Z" fill="#EAC173"/>
<path d="M68.3216 18.4065H67.2785V18.928H68.3216V18.4065Z" fill="#EAC173"/>
<path d="M70.077 18.4065H69.0339V18.928H70.077V18.4065Z" fill="#EAC173"/>
<path d="M71.8387 18.4065H70.7957V18.928H71.8387V18.4065Z" fill="#EAC173"/>
<path d="M73.6577 18.4065H72.6147V18.928H73.6577V18.4065Z" fill="#EAC173"/>
<path d="M75.4195 18.4065H74.3764V18.928H75.4195V18.4065Z" fill="#EAC173"/>
<path d="M77.1749 18.4065H76.1318V18.928H77.1749V18.4065Z" fill="#EAC173"/>
<path d="M79.0002 18.4065H77.9572V18.928H79.0002V18.4065Z" fill="#EAC173"/>
<path d="M80.7556 18.4065H79.7126V18.928H80.7556V18.4065Z" fill="#EAC173"/>
<path d="M82.5174 18.4065H81.4743V18.928H82.5174V18.4065Z" fill="#EAC173"/>
<path d="M84.3427 18.4065H83.2997V18.928H84.3427V18.4065Z" fill="#EAC173"/>
<path d="M86.0981 18.4065H85.0551V18.928H86.0981V18.4065Z" fill="#EAC173"/>
<path d="M87.8599 18.4065H86.8168V18.928H87.8599V18.4065Z" fill="#EAC173"/>
<path d="M89.6789 18.4065H88.6358V18.928H89.6789V18.4065Z" fill="#EAC173"/>
<path d="M91.4406 18.4065H90.3975V18.928H91.4406V18.4065Z" fill="#EAC173"/>
<path d="M93.196 18.4065H92.1529V18.928H93.196V18.4065Z" fill="#EAC173"/>
<path d="M95.0214 18.4065H93.9783V18.928H95.0214V18.4065Z" fill="#EAC173"/>
<path d="M96.7831 18.4065H95.74V18.928H96.7831V18.4065Z" fill="#EAC173"/>
<path d="M98.6021 18.4065H97.559V18.928H98.6021V18.4065Z" fill="#EAC173"/>
<path d="M100.364 18.4065H99.3208V18.928H100.364V18.4065Z" fill="#EAC173"/>
<path d="M62.9155 20.1682H61.8725V20.6897H62.9155V20.1682Z" fill="#EAC173"/>
<path d="M64.7345 20.1682H63.6914V20.6897H64.7345V20.1682Z" fill="#EAC173"/>
<path d="M66.4963 20.1682H65.4532V20.6897H66.4963V20.1682Z" fill="#EAC173"/>
<path d="M68.3216 20.1682H67.2785V20.6897H68.3216V20.1682Z" fill="#EAC173"/>
<path d="M70.077 20.1682H69.0339V20.6897H70.077V20.1682Z" fill="#EAC173"/>
<path d="M71.8387 20.1682H70.7957V20.6897H71.8387V20.1682Z" fill="#EAC173"/>
<path d="M73.6577 20.1682H72.6147V20.6897H73.6577V20.1682Z" fill="#EAC173"/>
<path d="M75.4195 20.1682H74.3764V20.6897H75.4195V20.1682Z" fill="#EAC173"/>
<path d="M77.1749 20.1682H76.1318V20.6897H77.1749V20.1682Z" fill="#EAC173"/>
<path d="M79.0002 20.1682H77.9572V20.6897H79.0002V20.1682Z" fill="#EAC173"/>
<path d="M80.7556 20.1682H79.7126V20.6897H80.7556V20.1682Z" fill="#EAC173"/>
<path d="M82.5174 20.1682H81.4743V20.6897H82.5174V20.1682Z" fill="#EAC173"/>
<path d="M84.3427 20.1682H83.2997V20.6897H84.3427V20.1682Z" fill="#EAC173"/>
<path d="M86.0981 20.1682H85.0551V20.6897H86.0981V20.1682Z" fill="#EAC173"/>
<path d="M87.8599 20.1682H86.8168V20.6897H87.8599V20.1682Z" fill="#EAC173"/>
<path d="M89.6789 20.1682H88.6358V20.6897H89.6789V20.1682Z" fill="#EAC173"/>
<path d="M91.4406 20.1682H90.3975V20.6897H91.4406V20.1682Z" fill="#EAC173"/>
<path d="M93.196 20.1682H92.1529V20.6897H93.196V20.1682Z" fill="#EAC173"/>
<path d="M95.0214 20.1682H93.9783V20.6897H95.0214V20.1682Z" fill="#EAC173"/>
<path d="M96.7831 20.1682H95.74V20.6897H96.7831V20.1682Z" fill="#EAC173"/>
<path d="M98.6021 20.1682H97.559V20.6897H98.6021V20.1682Z" fill="#EAC173"/>
<path d="M100.364 20.1682H99.3208V20.6897H100.364V20.1682Z" fill="#EAC173"/>
<path d="M62.9155 21.9871H61.8725V22.5086H62.9155V21.9871Z" fill="#EAC173"/>
<path d="M64.7345 21.9871H63.6914V22.5086H64.7345V21.9871Z" fill="#EAC173"/>
<path d="M66.4963 21.9871H65.4532V22.5086H66.4963V21.9871Z" fill="#EAC173"/>
<path d="M68.3216 21.9871H67.2785V22.5086H68.3216V21.9871Z" fill="#EAC173"/>
<path d="M70.077 21.9871H69.0339V22.5086H70.077V21.9871Z" fill="#EAC173"/>
<path d="M71.8387 21.9871H70.7957V22.5086H71.8387V21.9871Z" fill="#EAC173"/>
<path d="M73.6577 21.9871H72.6147V22.5086H73.6577V21.9871Z" fill="#EAC173"/>
<path d="M75.4195 21.9871H74.3764V22.5086H75.4195V21.9871Z" fill="#EAC173"/>
<path d="M77.1749 21.9871H76.1318V22.5086H77.1749V21.9871Z" fill="#EAC173"/>
<path d="M79.0002 21.9871H77.9572V22.5086H79.0002V21.9871Z" fill="#EAC173"/>
<path d="M80.7556 21.9871H79.7126V22.5086H80.7556V21.9871Z" fill="#EAC173"/>
<path d="M82.5174 21.9871H81.4743V22.5086H82.5174V21.9871Z" fill="#EAC173"/>
<path d="M84.3427 21.9871H83.2997V22.5086H84.3427V21.9871Z" fill="#EAC173"/>
<path d="M86.0981 21.9871H85.0551V22.5086H86.0981V21.9871Z" fill="#EAC173"/>
<path d="M87.8599 21.9871H86.8168V22.5086H87.8599V21.9871Z" fill="#EAC173"/>
<path d="M89.6789 21.9871H88.6358V22.5086H89.6789V21.9871Z" fill="#EAC173"/>
<path d="M91.4406 21.9871H90.3975V22.5086H91.4406V21.9871Z" fill="#EAC173"/>
<path d="M93.196 21.9871H92.1529V22.5086H93.196V21.9871Z" fill="#EAC173"/>
<path d="M95.0214 21.9871H93.9783V22.5086H95.0214V21.9871Z" fill="#EAC173"/>
<path d="M96.7831 21.9871H95.74V22.5086H96.7831V21.9871Z" fill="#EAC173"/>
<path d="M98.6021 21.9871H97.559V22.5086H98.6021V21.9871Z" fill="#EAC173"/>
<path d="M100.364 21.9871H99.3208V22.5086H100.364V21.9871Z" fill="#EAC173"/>
<path d="M62.9155 23.749H61.8725V24.2706H62.9155V23.749Z" fill="#EAC173"/>
<path d="M64.7345 23.749H63.6914V24.2706H64.7345V23.749Z" fill="#EAC173"/>
<path d="M66.4963 23.749H65.4532V24.2706H66.4963V23.749Z" fill="#EAC173"/>
<path d="M68.3216 23.749H67.2785V24.2706H68.3216V23.749Z" fill="#EAC173"/>
<path d="M70.077 23.749H69.0339V24.2706H70.077V23.749Z" fill="#EAC173"/>
<path d="M71.8387 23.749H70.7957V24.2706H71.8387V23.749Z" fill="#EAC173"/>
<path d="M73.6577 23.749H72.6147V24.2706H73.6577V23.749Z" fill="#EAC173"/>
<path d="M75.4195 23.749H74.3764V24.2706H75.4195V23.749Z" fill="#EAC173"/>
<path d="M77.1749 23.749H76.1318V24.2706H77.1749V23.749Z" fill="#EAC173"/>
<path d="M79.0002 23.749H77.9572V24.2706H79.0002V23.749Z" fill="#EAC173"/>
<path d="M80.7556 23.749H79.7126V24.2706H80.7556V23.749Z" fill="#EAC173"/>
<path d="M82.5174 23.749H81.4743V24.2706H82.5174V23.749Z" fill="#EAC173"/>
<path d="M84.3427 23.749H83.2997V24.2706H84.3427V23.749Z" fill="#EAC173"/>
<path d="M86.0981 23.749H85.0551V24.2706H86.0981V23.749Z" fill="#EAC173"/>
<path d="M87.8599 23.749H86.8168V24.2706H87.8599V23.749Z" fill="#EAC173"/>
<path d="M89.6789 23.749H88.6358V24.2706H89.6789V23.749Z" fill="#EAC173"/>
<path d="M91.4406 23.749H90.3975V24.2706H91.4406V23.749Z" fill="#EAC173"/>
<path d="M93.196 23.749H92.1529V24.2706H93.196V23.749Z" fill="#EAC173"/>
<path d="M95.0214 23.749H93.9783V24.2706H95.0214V23.749Z" fill="#EAC173"/>
<path d="M96.7831 23.749H95.74V24.2706H96.7831V23.749Z" fill="#EAC173"/>
<path d="M98.6021 23.749H97.559V24.2706H98.6021V23.749Z" fill="#EAC173"/>
<path d="M100.364 23.749H99.3208V24.2706H100.364V23.749Z" fill="#EAC173"/>
<path d="M62.9155 25.5681H61.8725V26.0896H62.9155V25.5681Z" fill="#EAC173"/>
<path d="M64.7345 25.5681H63.6914V26.0896H64.7345V25.5681Z" fill="#EAC173"/>
<path d="M66.4963 25.5681H65.4532V26.0896H66.4963V25.5681Z" fill="#EAC173"/>
<path d="M68.3216 25.5681H67.2785V26.0896H68.3216V25.5681Z" fill="#EAC173"/>
<path d="M70.077 25.5681H69.0339V26.0896H70.077V25.5681Z" fill="#EAC173"/>
<path d="M71.8387 25.5681H70.7957V26.0896H71.8387V25.5681Z" fill="#EAC173"/>
<path d="M73.6577 25.5681H72.6147V26.0896H73.6577V25.5681Z" fill="#EAC173"/>
<path d="M75.4195 25.5681H74.3764V26.0896H75.4195V25.5681Z" fill="#EAC173"/>
<path d="M77.1749 25.5681H76.1318V26.0896H77.1749V25.5681Z" fill="#EAC173"/>
<path d="M79.0002 25.5681H77.9572V26.0896H79.0002V25.5681Z" fill="#EAC173"/>
<path d="M80.7556 25.5681H79.7126V26.0896H80.7556V25.5681Z" fill="#EAC173"/>
<path d="M82.5174 25.5681H81.4743V26.0896H82.5174V25.5681Z" fill="#EAC173"/>
<path d="M84.3427 25.5681H83.2997V26.0896H84.3427V25.5681Z" fill="#EAC173"/>
<path d="M86.0981 25.5681H85.0551V26.0896H86.0981V25.5681Z" fill="#EAC173"/>
<path d="M87.8599 25.5681H86.8168V26.0896H87.8599V25.5681Z" fill="#EAC173"/>
<path d="M89.6789 25.5681H88.6358V26.0896H89.6789V25.5681Z" fill="#EAC173"/>
<path d="M91.4406 25.5681H90.3975V26.0896H91.4406V25.5681Z" fill="#EAC173"/>
<path d="M93.196 25.5681H92.1529V26.0896H93.196V25.5681Z" fill="#EAC173"/>
<path d="M95.0214 25.5681H93.9783V26.0896H95.0214V25.5681Z" fill="#EAC173"/>
<path d="M96.7831 25.5681H95.74V26.0896H96.7831V25.5681Z" fill="#EAC173"/>
<path d="M98.6021 25.5681H97.559V26.0896H98.6021V25.5681Z" fill="#EAC173"/>
<path d="M100.364 25.5681H99.3208V26.0896H100.364V25.5681Z" fill="#EAC173"/>
<path d="M62.9155 27.3298H61.8725V27.8514H62.9155V27.3298Z" fill="#EAC173"/>
<path d="M64.7345 27.3298H63.6914V27.8514H64.7345V27.3298Z" fill="#EAC173"/>
<path d="M66.4963 27.3298H65.4532V27.8514H66.4963V27.3298Z" fill="#EAC173"/>
<path d="M68.3216 27.3298H67.2785V27.8514H68.3216V27.3298Z" fill="#EAC173"/>
<path d="M70.077 27.3298H69.0339V27.8514H70.077V27.3298Z" fill="#EAC173"/>
<path d="M71.8387 27.3298H70.7957V27.8514H71.8387V27.3298Z" fill="#EAC173"/>
<path d="M73.6577 27.3298H72.6147V27.8514H73.6577V27.3298Z" fill="#EAC173"/>
<path d="M75.4195 27.3298H74.3764V27.8514H75.4195V27.3298Z" fill="#EAC173"/>
<path d="M77.1749 27.3298H76.1318V27.8514H77.1749V27.3298Z" fill="#EAC173"/>
<path d="M79.0002 27.3298H77.9572V27.8514H79.0002V27.3298Z" fill="#EAC173"/>
<path d="M80.7556 27.3298H79.7126V27.8514H80.7556V27.3298Z" fill="#EAC173"/>
<path d="M82.5174 27.3298H81.4743V27.8514H82.5174V27.3298Z" fill="#EAC173"/>
<path d="M84.3427 27.3298H83.2997V27.8514H84.3427V27.3298Z" fill="#EAC173"/>
<path d="M86.0981 27.3298H85.0551V27.8514H86.0981V27.3298Z" fill="#EAC173"/>
<path d="M87.8599 27.3298H86.8168V27.8514H87.8599V27.3298Z" fill="#EAC173"/>
<path d="M89.6789 27.3298H88.6358V27.8514H89.6789V27.3298Z" fill="#EAC173"/>
<path d="M91.4406 27.3298H90.3975V27.8514H91.4406V27.3298Z" fill="#EAC173"/>
<path d="M93.196 27.3298H92.1529V27.8514H93.196V27.3298Z" fill="#EAC173"/>
<path d="M95.0214 27.3298H93.9783V27.8514H95.0214V27.3298Z" fill="#EAC173"/>
<path d="M96.7831 27.3298H95.74V27.8514H96.7831V27.3298Z" fill="#EAC173"/>
<path d="M98.6021 27.3298H97.559V27.8514H98.6021V27.3298Z" fill="#EAC173"/>
<path d="M100.364 27.3298H99.3208V27.8514H100.364V27.3298Z" fill="#EAC173"/>
<path d="M62.9155 29.0852H61.8725V29.6067H62.9155V29.0852Z" fill="#EAC173"/>
<path d="M64.7345 29.0852H63.6914V29.6067H64.7345V29.0852Z" fill="#EAC173"/>
<path d="M66.4963 29.0852H65.4532V29.6067H66.4963V29.0852Z" fill="#EAC173"/>
<path d="M68.3216 29.0852H67.2785V29.6067H68.3216V29.0852Z" fill="#EAC173"/>
<path d="M70.077 29.0852H69.0339V29.6067H70.077V29.0852Z" fill="#EAC173"/>
<path d="M71.8387 29.0852H70.7957V29.6067H71.8387V29.0852Z" fill="#EAC173"/>
<path d="M73.6577 29.0852H72.6147V29.6067H73.6577V29.0852Z" fill="#EAC173"/>
<path d="M75.4195 29.0852H74.3764V29.6067H75.4195V29.0852Z" fill="#EAC173"/>
<path d="M77.1749 29.0852H76.1318V29.6067H77.1749V29.0852Z" fill="#EAC173"/>
<path d="M79.0002 29.0852H77.9572V29.6067H79.0002V29.0852Z" fill="#EAC173"/>
<path d="M80.7556 29.0852H79.7126V29.6067H80.7556V29.0852Z" fill="#EAC173"/>
<path d="M82.5174 29.0852H81.4743V29.6067H82.5174V29.0852Z" fill="#EAC173"/>
<path d="M84.3427 29.0852H83.2997V29.6067H84.3427V29.0852Z" fill="#EAC173"/>
<path d="M86.0981 29.0852H85.0551V29.6067H86.0981V29.0852Z" fill="#EAC173"/>
<path d="M87.8599 29.0852H86.8168V29.6067H87.8599V29.0852Z" fill="#EAC173"/>
<path d="M89.6789 29.0852H88.6358V29.6067H89.6789V29.0852Z" fill="#EAC173"/>
<path d="M91.4406 29.0852H90.3975V29.6067H91.4406V29.0852Z" fill="#EAC173"/>
<path d="M93.196 29.0852H92.1529V29.6067H93.196V29.0852Z" fill="#EAC173"/>
<path d="M95.0214 29.0852H93.9783V29.6067H95.0214V29.0852Z" fill="#EAC173"/>
<path d="M96.7831 29.0852H95.74V29.6067H96.7831V29.0852Z" fill="#EAC173"/>
<path d="M98.6021 29.0852H97.559V29.6067H98.6021V29.0852Z" fill="#EAC173"/>
<path d="M100.364 29.0852H99.3208V29.6067H100.364V29.0852Z" fill="#EAC173"/>
<path d="M62.9155 30.9104H61.8725V31.4319H62.9155V30.9104Z" fill="#EAC173"/>
<path d="M64.7345 30.9104H63.6914V31.4319H64.7345V30.9104Z" fill="#EAC173"/>
<path d="M66.4963 30.9104H65.4532V31.4319H66.4963V30.9104Z" fill="#EAC173"/>
<path d="M68.3216 30.9104H67.2785V31.4319H68.3216V30.9104Z" fill="#EAC173"/>
<path d="M70.077 30.9104H69.0339V31.4319H70.077V30.9104Z" fill="#EAC173"/>
<path d="M71.8387 30.9104H70.7957V31.4319H71.8387V30.9104Z" fill="#EAC173"/>
<path d="M73.6577 30.9104H72.6147V31.4319H73.6577V30.9104Z" fill="#EAC173"/>
<path d="M75.4195 30.9104H74.3764V31.4319H75.4195V30.9104Z" fill="#EAC173"/>
<path d="M77.1749 30.9104H76.1318V31.4319H77.1749V30.9104Z" fill="#EAC173"/>
<path d="M79.0002 30.9104H77.9572V31.4319H79.0002V30.9104Z" fill="#EAC173"/>
<path d="M80.7556 30.9104H79.7126V31.4319H80.7556V30.9104Z" fill="#EAC173"/>
<path d="M82.5174 30.9104H81.4743V31.4319H82.5174V30.9104Z" fill="#EAC173"/>
<path d="M84.3427 30.9104H83.2997V31.4319H84.3427V30.9104Z" fill="#EAC173"/>
<path d="M86.0981 30.9104H85.0551V31.4319H86.0981V30.9104Z" fill="#EAC173"/>
<path d="M87.8599 30.9104H86.8168V31.4319H87.8599V30.9104Z" fill="#EAC173"/>
<path d="M89.6789 30.9104H88.6358V31.4319H89.6789V30.9104Z" fill="#EAC173"/>
<path d="M91.4406 30.9104H90.3975V31.4319H91.4406V30.9104Z" fill="#EAC173"/>
<path d="M93.196 30.9104H92.1529V31.4319H93.196V30.9104Z" fill="#EAC173"/>
<path d="M95.0214 30.9104H93.9783V31.4319H95.0214V30.9104Z" fill="#EAC173"/>
<path d="M96.7831 30.9104H95.74V31.4319H96.7831V30.9104Z" fill="#EAC173"/>
<path d="M98.6021 30.9104H97.559V31.4319H98.6021V30.9104Z" fill="#EAC173"/>
<path d="M100.364 30.9104H99.3208V31.4319H100.364V30.9104Z" fill="#EAC173"/>
<path d="M79.0002 32.6721H77.9572V33.1937H79.0002V32.6721Z" fill="#EAC173"/>
<path d="M80.7556 32.6721H79.7126V33.1937H80.7556V32.6721Z" fill="#EAC173"/>
<path d="M82.5174 32.6721H81.4743V33.1937H82.5174V32.6721Z" fill="#EAC173"/>
<path d="M84.3427 32.6721H83.2997V33.1937H84.3427V32.6721Z" fill="#EAC173"/>
<path d="M86.0981 32.6721H85.0551V33.1937H86.0981V32.6721Z" fill="#EAC173"/>
<path d="M87.8599 32.6721H86.8168V33.1937H87.8599V32.6721Z" fill="#EAC173"/>
<path d="M89.6789 32.6721H88.6358V33.1937H89.6789V32.6721Z" fill="#EAC173"/>
<path d="M91.4406 32.6721H90.3975V33.1937H91.4406V32.6721Z" fill="#EAC173"/>
<path d="M93.196 32.6721H92.1529V33.1937H93.196V32.6721Z" fill="#EAC173"/>
<path d="M95.0214 32.6721H93.9783V33.1937H95.0214V32.6721Z" fill="#EAC173"/>
<path d="M96.7831 32.6721H95.74V33.1937H96.7831V32.6721Z" fill="#EAC173"/>
<path d="M98.6021 32.6721H97.559V33.1937H98.6021V32.6721Z" fill="#EAC173"/>
<path d="M100.364 32.6721H99.3208V33.1937H100.364V32.6721Z" fill="#EAC173"/>
<path d="M79.0002 34.4912H77.9572V35.0127H79.0002V34.4912Z" fill="#EAC173"/>
<path d="M80.7556 34.4912H79.7126V35.0127H80.7556V34.4912Z" fill="#EAC173"/>
<path d="M82.5174 34.4912H81.4743V35.0127H82.5174V34.4912Z" fill="#EAC173"/>
<path d="M84.3427 34.4912H83.2997V35.0127H84.3427V34.4912Z" fill="#EAC173"/>
<path d="M86.0981 34.4912H85.0551V35.0127H86.0981V34.4912Z" fill="#EAC173"/>
<path d="M87.8599 34.4912H86.8168V35.0127H87.8599V34.4912Z" fill="#EAC173"/>
<path d="M89.6789 34.4912H88.6358V35.0127H89.6789V34.4912Z" fill="#EAC173"/>
<path d="M91.4406 34.4912H90.3975V35.0127H91.4406V34.4912Z" fill="#EAC173"/>
<path d="M93.196 34.4912H92.1529V35.0127H93.196V34.4912Z" fill="#EAC173"/>
<path d="M95.0214 34.4912H93.9783V35.0127H95.0214V34.4912Z" fill="#EAC173"/>
<path d="M96.7831 34.4912H95.74V35.0127H96.7831V34.4912Z" fill="#EAC173"/>
<path d="M98.6021 34.4912H97.559V35.0127H98.6021V34.4912Z" fill="#EAC173"/>
<path d="M100.364 34.4912H99.3208V35.0127H100.364V34.4912Z" fill="#EAC173"/>
<path d="M79.0002 36.2529H77.9572V36.7744H79.0002V36.2529Z" fill="#EAC173"/>
<path d="M80.7556 36.2529H79.7126V36.7744H80.7556V36.2529Z" fill="#EAC173"/>
<path d="M82.5174 36.2529H81.4743V36.7744H82.5174V36.2529Z" fill="#EAC173"/>
<path d="M84.3427 36.2529H83.2997V36.7744H84.3427V36.2529Z" fill="#EAC173"/>
<path d="M86.0981 36.2529H85.0551V36.7744H86.0981V36.2529Z" fill="#EAC173"/>
<path d="M87.8599 36.2529H86.8168V36.7744H87.8599V36.2529Z" fill="#EAC173"/>
<path d="M89.6789 36.2529H88.6358V36.7744H89.6789V36.2529Z" fill="#EAC173"/>
<path d="M91.4406 36.2529H90.3975V36.7744H91.4406V36.2529Z" fill="#EAC173"/>
<path d="M93.196 36.2529H92.1529V36.7744H93.196V36.2529Z" fill="#EAC173"/>
<path d="M95.0214 36.2529H93.9783V36.7744H95.0214V36.2529Z" fill="#EAC173"/>
<path d="M96.7831 36.2529H95.74V36.7744H96.7831V36.2529Z" fill="#EAC173"/>
<path d="M98.6021 36.2529H97.559V36.7744H98.6021V36.2529Z" fill="#EAC173"/>
<path d="M100.364 36.2529H99.3208V36.7744H100.364V36.2529Z" fill="#EAC173"/>
<path d="M79.0002 38.0083H77.9572V38.5298H79.0002V38.0083Z" fill="#EAC173"/>
<path d="M80.7556 38.0083H79.7126V38.5298H80.7556V38.0083Z" fill="#EAC173"/>
<path d="M82.5174 38.0083H81.4743V38.5298H82.5174V38.0083Z" fill="#EAC173"/>
<path d="M84.3427 38.0083H83.2997V38.5298H84.3427V38.0083Z" fill="#EAC173"/>
<path d="M86.0981 38.0083H85.0551V38.5298H86.0981V38.0083Z" fill="#EAC173"/>
<path d="M87.8599 38.0083H86.8168V38.5298H87.8599V38.0083Z" fill="#EAC173"/>
<path d="M89.6789 38.0083H88.6358V38.5298H89.6789V38.0083Z" fill="#EAC173"/>
<path d="M91.4406 38.0083H90.3975V38.5298H91.4406V38.0083Z" fill="#EAC173"/>
<path d="M93.196 38.0083H92.1529V38.5298H93.196V38.0083Z" fill="#EAC173"/>
<path d="M95.0214 38.0083H93.9783V38.5298H95.0214V38.0083Z" fill="#EAC173"/>
<path d="M96.7831 38.0083H95.74V38.5298H96.7831V38.0083Z" fill="#EAC173"/>
<path d="M98.6021 38.0083H97.559V38.5298H98.6021V38.0083Z" fill="#EAC173"/>
<path d="M100.364 38.0083H99.3208V38.5298H100.364V38.0083Z" fill="#EAC173"/>
<path d="M50.4751 14.8257H49.4321V15.3472H50.4751V14.8257Z" fill="#EAC173"/>
<path d="M52.2305 14.8257H51.1875V15.3472H52.2305V14.8257Z" fill="#EAC173"/>
<path d="M54.0559 14.8257H53.0128V15.3472H54.0559V14.8257Z" fill="#EAC173"/>
<path d="M55.8176 14.8257H54.7746V15.3472H55.8176V14.8257Z" fill="#EAC173"/>
<path d="M57.573 14.8257H56.53V15.3472H57.573V14.8257Z" fill="#EAC173"/>
<path d="M59.3984 14.8257H58.3553V15.3472H59.3984V14.8257Z" fill="#EAC173"/>
<path d="M61.1538 14.8257H60.1107V15.3472H61.1538V14.8257Z" fill="#EAC173"/>
<path d="M50.4751 16.6511H49.4321V17.1726H50.4751V16.6511Z" fill="#EAC173"/>
<path d="M52.2305 16.6511H51.1875V17.1726H52.2305V16.6511Z" fill="#EAC173"/>
<path d="M54.0559 16.6511H53.0128V17.1726H54.0559V16.6511Z" fill="#EAC173"/>
<path d="M55.8176 16.6511H54.7746V17.1726H55.8176V16.6511Z" fill="#EAC173"/>
<path d="M57.573 16.6511H56.53V17.1726H57.573V16.6511Z" fill="#EAC173"/>
<path d="M59.3984 16.6511H58.3553V17.1726H59.3984V16.6511Z" fill="#EAC173"/>
<path d="M61.1538 16.6511H60.1107V17.1726H61.1538V16.6511Z" fill="#EAC173"/>
<path d="M50.4751 18.4065H49.4321V18.928H50.4751V18.4065Z" fill="#EAC173"/>
<path d="M52.2305 18.4065H51.1875V18.928H52.2305V18.4065Z" fill="#EAC173"/>
<path d="M54.0559 18.4065H53.0128V18.928H54.0559V18.4065Z" fill="#EAC173"/>
<path d="M55.8176 18.4065H54.7746V18.928H55.8176V18.4065Z" fill="#EAC173"/>
<path d="M57.573 18.4065H56.53V18.928H57.573V18.4065Z" fill="#EAC173"/>
<path d="M59.3984 18.4065H58.3553V18.928H59.3984V18.4065Z" fill="#EAC173"/>
<path d="M61.1538 18.4065H60.1107V18.928H61.1538V18.4065Z" fill="#EAC173"/>
<path d="M50.4751 20.1682H49.4321V20.6897H50.4751V20.1682Z" fill="#EAC173"/>
<path d="M52.2305 20.1682H51.1875V20.6897H52.2305V20.1682Z" fill="#EAC173"/>
<path d="M54.0559 20.1682H53.0128V20.6897H54.0559V20.1682Z" fill="#EAC173"/>
<path d="M55.8176 20.1682H54.7746V20.6897H55.8176V20.1682Z" fill="#EAC173"/>
<path d="M57.573 20.1682H56.53V20.6897H57.573V20.1682Z" fill="#EAC173"/>
<path d="M59.3984 20.1682H58.3553V20.6897H59.3984V20.1682Z" fill="#EAC173"/>
<path d="M61.1538 20.1682H60.1107V20.6897H61.1538V20.1682Z" fill="#EAC173"/>
<path d="M50.4751 21.9871H49.4321V22.5086H50.4751V21.9871Z" fill="#EAC173"/>
<path d="M52.2305 21.9871H51.1875V22.5086H52.2305V21.9871Z" fill="#EAC173"/>
<path d="M54.0559 21.9871H53.0128V22.5086H54.0559V21.9871Z" fill="#EAC173"/>
<path d="M55.8176 21.9871H54.7746V22.5086H55.8176V21.9871Z" fill="#EAC173"/>
<path d="M57.573 21.9871H56.53V22.5086H57.573V21.9871Z" fill="#EAC173"/>
<path d="M59.3984 21.9871H58.3553V22.5086H59.3984V21.9871Z" fill="#EAC173"/>
<path d="M61.1538 21.9871H60.1107V22.5086H61.1538V21.9871Z" fill="#EAC173"/>
<path d="M50.4751 23.749H49.4321V24.2706H50.4751V23.749Z" fill="#EAC173"/>
<path d="M52.2305 23.749H51.1875V24.2706H52.2305V23.749Z" fill="#EAC173"/>
<path d="M54.0559 23.749H53.0128V24.2706H54.0559V23.749Z" fill="#EAC173"/>
<path d="M55.8176 23.749H54.7746V24.2706H55.8176V23.749Z" fill="#EAC173"/>
<path d="M57.573 23.749H56.53V24.2706H57.573V23.749Z" fill="#EAC173"/>
<path d="M59.3984 23.749H58.3553V24.2706H59.3984V23.749Z" fill="#EAC173"/>
<path d="M61.1538 23.749H60.1107V24.2706H61.1538V23.749Z" fill="#EAC173"/>
<path d="M50.4751 25.5681H49.4321V26.0896H50.4751V25.5681Z" fill="#EAC173"/>
<path d="M52.2305 25.5681H51.1875V26.0896H52.2305V25.5681Z" fill="#EAC173"/>
<path d="M54.0559 25.5681H53.0128V26.0896H54.0559V25.5681Z" fill="#EAC173"/>
<path d="M55.8176 25.5681H54.7746V26.0896H55.8176V25.5681Z" fill="#EAC173"/>
<path d="M57.573 25.5681H56.53V26.0896H57.573V25.5681Z" fill="#EAC173"/>
<path d="M59.3984 25.5681H58.3553V26.0896H59.3984V25.5681Z" fill="#EAC173"/>
<path d="M61.1538 25.5681H60.1107V26.0896H61.1538V25.5681Z" fill="#EAC173"/>
<path d="M50.4751 27.3298H49.4321V27.8514H50.4751V27.3298Z" fill="#EAC173"/>
<path d="M52.2305 27.3298H51.1875V27.8514H52.2305V27.3298Z" fill="#EAC173"/>
<path d="M54.0559 27.3298H53.0128V27.8514H54.0559V27.3298Z" fill="#EAC173"/>
<path d="M55.8176 27.3298H54.7746V27.8514H55.8176V27.3298Z" fill="#EAC173"/>
<path d="M57.573 27.3298H56.53V27.8514H57.573V27.3298Z" fill="#EAC173"/>
<path d="M59.3984 27.3298H58.3553V27.8514H59.3984V27.3298Z" fill="#EAC173"/>
<path d="M61.1538 27.3298H60.1107V27.8514H61.1538V27.3298Z" fill="#EAC173"/>
<path d="M50.4751 29.0852H49.4321V29.6067H50.4751V29.0852Z" fill="#EAC173"/>
<path d="M52.2305 29.0852H51.1875V29.6067H52.2305V29.0852Z" fill="#EAC173"/>
<path d="M54.0559 29.0852H53.0128V29.6067H54.0559V29.0852Z" fill="#EAC173"/>
<path d="M55.8176 29.0852H54.7746V29.6067H55.8176V29.0852Z" fill="#EAC173"/>
<path d="M57.573 29.0852H56.53V29.6067H57.573V29.0852Z" fill="#EAC173"/>
<path d="M59.3984 29.0852H58.3553V29.6067H59.3984V29.0852Z" fill="#EAC173"/>
<path d="M61.1538 29.0852H60.1107V29.6067H61.1538V29.0852Z" fill="#EAC173"/>
<path d="M50.4751 30.9104H49.4321V31.4319H50.4751V30.9104Z" fill="#EAC173"/>
<path d="M52.2305 30.9104H51.1875V31.4319H52.2305V30.9104Z" fill="#EAC173"/>
<path d="M54.0559 30.9104H53.0128V31.4319H54.0559V30.9104Z" fill="#EAC173"/>
<path d="M55.8176 30.9104H54.7746V31.4319H55.8176V30.9104Z" fill="#EAC173"/>
<path d="M57.573 30.9104H56.53V31.4319H57.573V30.9104Z" fill="#EAC173"/>
<path d="M59.3984 30.9104H58.3553V31.4319H59.3984V30.9104Z" fill="#EAC173"/>
<path d="M61.1538 30.9104H60.1107V31.4319H61.1538V30.9104Z" fill="#EAC173"/>
</g>
<path d="M46.5637 9.87744L55.6205 14.0433H83.5604L79.3246 9.87744H46.5637Z" fill="url(#paint10_linear_8_6293)"/>
<path d="M121.791 9.61684H121.657V9.54688L117.752 14.0435L153.312 13.9799L166.598 9.61684H121.791Z" fill="url(#paint11_linear_8_6293)"/>
<path d="M154.094 34.0397L145.495 29.7402H144.713L117.619 29.6067L121.594 34.0397H154.094Z" fill="url(#paint12_linear_8_6293)"/>
<defs>
<linearGradient id="paint0_linear_8_6293" x1="124.323" y1="3.43569" x2="115.786" y2="12.2752" gradientUnits="userSpaceOnUse">
<stop stop-color="#5C676E"/>
<stop offset="0.5025" stop-color="white"/>
<stop offset="1" stop-color="#8CADC2"/>
</linearGradient>
<linearGradient id="paint1_linear_8_6293" x1="152.548" y1="14.492" x2="162.092" y2="28.6412" gradientUnits="userSpaceOnUse">
<stop offset="0.4877" stop-color="#AEBEC8"/>
<stop offset="0.7438" stop-color="#8B98A1"/>
<stop offset="1" stop-color="#A9B8C2"/>
</linearGradient>
<linearGradient id="paint2_linear_8_6293" x1="153.464" y1="5.63303" x2="163.251" y2="26.6218" gradientUnits="userSpaceOnUse">
<stop stop-color="#5C676E"/>
<stop offset="0.5025" stop-color="white"/>
<stop offset="1" stop-color="#8CADC2"/>
</linearGradient>
<linearGradient id="paint3_linear_8_6293" x1="79.3248" y1="2.8414" x2="121.723" y2="2.8414" gradientUnits="userSpaceOnUse">
<stop stop-color="#5C676E"/>
<stop offset="0.5025" stop-color="white"/>
<stop offset="1" stop-color="#8CADC2"/>
</linearGradient>
<linearGradient id="paint4_linear_8_6293" x1="109.419" y1="7.18739" x2="111.816" y2="-1.75652" gradientUnits="userSpaceOnUse">
<stop offset="0.5025" stop-color="white"/>
<stop offset="1" stop-color="#8CADC2"/>
</linearGradient>
<linearGradient id="paint5_linear_8_6293" x1="47.6668" y1="45.2589" x2="70.7993" y2="18.648" gradientUnits="userSpaceOnUse">
<stop stop-color="#5C676E"/>
<stop offset="0.5025" stop-color="white"/>
<stop offset="1" stop-color="#8CADC2"/>
</linearGradient>
<linearGradient id="paint6_linear_8_6293" x1="39.6769" y1="13.538" x2="48.0523" y2="29.2898" gradientUnits="userSpaceOnUse">
<stop stop-color="#1E2124"/>
<stop offset="0.3892" stop-color="#A9B8C2"/>
<stop offset="0.6749" stop-color="#8B98A1"/>
<stop offset="1" stop-color="#AEBEC8"/>
</linearGradient>
<linearGradient id="paint7_linear_8_6293" x1="42.7255" y1="21.4326" x2="53.5356" y2="11.6991" gradientUnits="userSpaceOnUse">
<stop stop-color="#8CADC2"/>
<stop offset="0.4975" stop-color="white"/>
<stop offset="1" stop-color="#9CAEBA"/>
</linearGradient>
<linearGradient id="paint8_linear_8_6293" x1="101.11" y1="40.2897" x2="101.11" y2="3.49271" gradientUnits="userSpaceOnUse">
<stop stop-color="#C78F0F"/>
<stop offset="1" stop-color="#FBDBA8"/>
</linearGradient>
<linearGradient id="paint9_linear_8_6293" x1="97.9478" y1="6.46058" x2="154.681" y2="37.9081" gradientUnits="userSpaceOnUse">
<stop stop-color="#FBDBA8"/>
<stop offset="1" stop-color="#C78F0F"/>
</linearGradient>
<linearGradient id="paint10_linear_8_6293" x1="62.0928" y1="17.7866" x2="68.8447" y2="4.5352" gradientUnits="userSpaceOnUse">
<stop stop-color="#8CADC2"/>
<stop offset="0.4975" stop-color="white"/>
<stop offset="1" stop-color="#5C676E"/>
</linearGradient>
<linearGradient id="paint11_linear_8_6293" x1="137.932" y1="2.30391" x2="145.391" y2="19.056" gradientUnits="userSpaceOnUse">
<stop stop-color="#5C676E"/>
<stop offset="0.5025" stop-color="white"/>
<stop offset="1" stop-color="#8CADC2"/>
</linearGradient>
<linearGradient id="paint12_linear_8_6293" x1="139.961" y1="40.6269" x2="131.75" y2="23.0198" gradientUnits="userSpaceOnUse">
<stop stop-color="#5C676E"/>
<stop offset="0.5025" stop-color="white"/>
<stop offset="1" stop-color="#8CADC2"/>
</linearGradient>
</defs>
</svg>
