<svg width="200" height="209" viewBox="0 0 200 209" fill="none" xmlns="http://www.w3.org/2000/svg">
<g clip-path="url(#clip0_8_6353)">
<path fill-rule="evenodd" clip-rule="evenodd" d="M96.3805 59.9101L98.8108 51.7518C98.8108 51.7518 89.4254 28.1084 67.4408 28.1084C48.2742 28.1084 42.2904 44.6128 42.2904 44.6128C42.2904 44.6128 49.3654 32.6612 64.4789 32.6612C85.3203 32.6612 96.3805 59.9061 96.3805 59.9061V59.9101Z" fill="#ED1C24"/>
<path fill-rule="evenodd" clip-rule="evenodd" d="M35.5271 70.0271H39.0366C39.0366 70.0271 44.4129 105.806 58.579 105.806C67.9804 105.806 64.275 93.1829 64.275 93.1829C64.275 93.1829 67.5247 97.9635 67.5247 104.747C67.5247 109.032 64.5188 114.12 57.08 114.12C34.3599 114.12 35.5271 72.3215 35.5271 70.0271Z" fill="#ED1C24"/>
<path fill-rule="evenodd" clip-rule="evenodd" d="M103.62 59.9101L101.189 51.7518C101.189 51.7518 110.575 28.1084 132.559 28.1084C151.726 28.1084 157.71 44.6128 157.71 44.6128C157.71 44.6128 150.635 32.6612 135.521 32.6612C114.68 32.6612 103.62 59.9061 103.62 59.9061V59.9101Z" fill="#ED1C24"/>
<path fill-rule="evenodd" clip-rule="evenodd" d="M164.473 70.0271H160.963C160.963 70.0271 155.587 105.806 141.421 105.806C132.02 105.806 135.725 93.1829 135.725 93.1829C135.725 93.1829 132.475 97.9635 132.475 104.747C132.475 109.032 135.481 114.12 142.92 114.12C165.64 114.12 164.473 72.3215 164.473 70.0271Z" fill="#ED1C24"/>
<path fill-rule="evenodd" clip-rule="evenodd" d="M99.998 127.547L93.1588 124.84L94.8656 119.432L92.4153 102.48L85.3563 99.5542L84.0971 93.2386L88.1263 94.8855L91.9956 99.5702L90.5726 89.7331L82.7661 86.5633L80.7715 76.5583L84.9286 73.6163C84.9286 73.6163 77.206 44.4688 56.3885 44.4688C49.8331 44.4688 38.0094 48.0303 38.0094 68.1122H41.2751C41.2751 68.1122 42.93 78.1212 47.3149 86.1995C51.6998 94.2779 55.717 96.1486 57.4878 96.1486C59.2585 96.1486 61.6329 94.6816 58.6509 84.8765C55.737 75.2912 54.8736 63.7952 61.489 63.7952C65.2983 63.7952 67.113 69.0555 67.113 69.0555C67.113 69.0555 62.3244 81.7387 71.474 85.7878L78.0054 88.6738C79.7961 96.2405 81.8307 104.815 82.2025 106.261C82.814 108.628 84.9166 111.93 84.9166 111.93L89.3255 119.456L91.372 129.581C91.8997 132.195 92.4633 134.833 98.9308 134.833H101.053C107.517 134.833 108.08 132.191 108.612 129.581L110.659 119.456L115.067 111.93C115.067 111.93 117.174 108.628 117.782 106.261C118.153 104.815 120.192 96.2405 121.979 88.6738L128.51 85.7878C137.66 81.7427 132.871 69.0555 132.871 69.0555C132.871 69.0555 134.686 63.7952 138.495 63.7952C145.11 63.7952 144.247 75.2912 141.333 84.8765C138.351 94.6816 140.725 96.1486 142.496 96.1486C144.267 96.1486 148.28 94.2819 152.669 86.1995C157.054 78.1212 158.709 68.1122 158.709 68.1122H161.975C161.975 48.0303 150.147 44.4688 143.595 44.4688C122.782 44.4688 115.055 73.6163 115.055 73.6163L119.213 76.5583L117.218 86.5633L109.411 89.7331L107.988 99.5702L111.858 94.8855L115.887 93.2386L114.628 99.5542L107.569 102.48L105.118 119.432L106.825 124.84L99.986 127.547H99.998ZM129.565 69.1275L124.849 76.5503L123.042 84.2129L124.845 83.4854C127.599 82.3782 130.249 80.4516 130.249 75.6509C130.249 72.9408 129.885 70.6264 129.569 69.1315L129.565 69.1275ZM70.4267 69.1275L75.1434 76.5503L76.9501 84.2129L75.1474 83.4854C72.3933 82.3782 69.7432 80.4516 69.7432 75.6509C69.7432 72.9408 70.1069 70.6264 70.4227 69.1315L70.4267 69.1275Z" fill="#ED1C24"/>
<path fill-rule="evenodd" clip-rule="evenodd" d="M99.9979 7.15899C72.0775 7.15899 40.6835 9.40542 35.8349 9.76517C32.2853 10.029 26.5254 11.7278 26.5254 22.0686C26.5254 34.7477 27.9644 80.9673 29.2235 100.662C30.4267 119.5 36.1187 127.962 45.7919 134.546C53.8183 140.01 85.4561 156.75 99.9979 164.377C114.544 156.75 146.178 140.006 154.204 134.546C163.877 127.962 169.569 119.5 170.772 100.662C172.032 80.9673 173.471 34.7477 173.471 22.0686C173.471 11.7278 167.707 10.029 164.161 9.76517C159.316 9.40542 127.914 7.16299 99.9979 7.15899ZM99.9979 0C128.146 0 159.8 2.26242 164.689 2.62616C170.88 3.08584 180.63 6.97512 180.63 22.0686C180.63 34.8196 179.183 81.3111 177.915 101.121C176.596 121.783 170.021 132.439 158.229 140.466C152.813 144.151 137.18 152.721 122.898 160.356C113.604 165.324 104.891 169.901 99.994 172.459C95.0974 169.897 86.3835 165.324 77.09 160.356C62.808 152.721 47.1789 144.151 41.7587 140.466C29.967 132.439 23.3956 121.783 22.0725 101.121C20.8054 81.3151 19.3584 34.8236 19.3584 22.0686C19.3584 6.97512 29.1076 3.08584 35.2992 2.62616C40.1958 2.26242 71.8537 0 100.002 0H99.9979Z" fill="#ED1C24"/>
<path d="M7.7106 195.135V203.118H20.1579C24.1391 203.118 27.3688 200.648 27.3688 197.602C27.3688 194.348 24.1191 191.71 20.1139 191.71H0V186.929H22.7281C29.7032 186.929 35.3553 191.622 35.3553 197.414V198.081C35.3553 203.502 29.7032 207.899 22.7281 207.899H0V195.135H7.7106Z" fill="#58595B"/>
<path d="M90.7365 195.135V203.118H103.184C107.165 203.118 110.395 200.648 110.395 197.602C110.395 194.348 107.149 191.71 103.14 191.71H83.0259V186.929H105.754C112.729 186.929 118.381 191.622 118.381 197.414V198.081C118.381 203.502 112.729 207.899 105.754 207.899H83.0259V195.135H90.7365Z" fill="#58595B"/>
<path d="M140.514 195.135V199.488H151.25V203.118H138.803C134.822 203.118 131.592 200.648 131.592 197.602C131.592 194.348 134.842 191.71 138.847 191.71H158.957V186.929H136.229C129.257 186.929 123.601 191.622 123.601 197.414V198.081C123.601 203.502 129.253 207.899 136.229 207.899H158.957V195.135H140.51H140.514Z" fill="#58595B"/>
<path fill-rule="evenodd" clip-rule="evenodd" d="M168.018 207.899H200V203.118H176.113V199.44H198.545V195.135H176.113V191.706H200V186.929H168.018V207.899Z" fill="#58595B"/>
<path fill-rule="evenodd" clip-rule="evenodd" d="M48.6979 197.41C48.6979 193.896 51.7517 191.05 58.6629 191.05C65.5741 191.05 68.6279 193.896 68.6279 197.41C68.6279 200.923 65.4462 203.769 58.6629 203.769C51.8796 203.769 48.6979 200.923 48.6979 197.41ZM40.7794 197.41C40.7794 191.47 46.2276 186.657 58.6629 186.657C72.5452 186.657 76.5464 191.47 76.5464 197.41C76.5464 203.35 72.5492 208.162 58.6629 208.162C46.2276 208.162 40.7794 203.35 40.7794 197.41Z" fill="#58595B"/>
</g>
<defs>
<clipPath id="clip0_8_6353">
<rect width="200" height="208.162" fill="white"/>
</clipPath>
</defs>
</svg>
