<svg width="200" height="75" viewBox="0 0 200 75" fill="none" xmlns="http://www.w3.org/2000/svg">
<g clip-path="url(#clip0_8_6320)">
<path d="M99.9983 0C44.4942 0 0 16.638 0 37.498C0 58.3581 44.8588 74.9961 99.9983 74.9961C155.138 74.9961 200 58.1741 200 37.498C200 16.822 155.138 0 99.9983 0ZM199.385 34.6024C199.424 34.7829 199.451 34.9669 199.483 35.1475C199.455 34.9669 199.42 34.7829 199.385 34.6024Z" fill="#CCCCCC"/>
<path d="M100.002 1.49634C45.5983 1.49634 1.53467 17.5788 1.53467 37.4736C1.53467 57.3684 45.5983 73.4509 99.9983 73.4509C154.398 73.4509 198.462 57.365 198.462 37.4736C198.462 17.5823 154.405 1.49634 100.002 1.49634Z" fill="url(#paint0_radial_8_6320)"/>
<path d="M9.40229 38.8626C9.40229 22.3947 50.164 9.04468 100.446 9.04468C146.701 9.04468 184.893 20.3427 190.719 34.9704C186.834 19.5789 147.704 7.49268 99.9913 7.49268C49.7092 7.4892 8.94745 20.9156 8.94745 37.4876C8.94745 38.8348 9.21827 40.1646 9.74255 41.4666C9.51686 40.609 9.40229 39.741 9.40229 38.8626Z" fill="url(#paint1_linear_8_6320)"/>
<path d="M193.74 33.731C194.143 34.9635 194.351 36.2169 194.351 37.4877C194.351 55.6257 152.107 70.3297 99.9948 70.3297C53.6153 70.3297 15.0583 58.6845 7.12811 43.345C13.1625 59.3234 52.7403 71.6561 100.672 71.6561C152.777 71.6561 195.014 57.0804 195.014 39.0918C195.014 37.269 194.58 35.4774 193.743 33.7344L193.74 33.731Z" fill="url(#paint2_linear_8_6320)"/>
<path d="M117.574 40.6644C115.459 42.8657 115.303 45.7128 116.685 46.994C117.181 47.4523 117.747 47.6641 118.355 47.6988C117.452 46.553 117.029 44.3135 118.147 42.5393C117.938 42.0151 117.9 41.4213 118.018 40.8346C118.06 40.6262 117.792 40.4353 117.57 40.6644H117.574Z" fill="url(#paint3_linear_8_6320)"/>
<path d="M139.389 45.4385C139.375 45.4073 139.371 45.376 139.368 45.3413C139.368 45.3517 139.368 45.3552 139.368 45.3587C139.399 45.692 139.486 46.317 139.555 46.7857C139.666 46.5774 139.774 46.3517 139.889 46.1156C139.975 45.935 139.93 45.8795 139.857 45.8517C139.639 45.7718 139.416 45.6087 139.385 45.4385H139.389Z" fill="url(#paint4_linear_8_6320)"/>
<path d="M143.173 40.4042C143.204 40.7618 143.475 40.8035 143.697 40.491C143.756 40.4042 143.822 40.3 143.902 40.1785C143.84 40.0952 143.777 40.0118 143.711 39.9285C143.402 39.5639 142.67 38.7723 141.958 38.1543C142.663 38.8279 143.097 39.6507 143.177 40.4042H143.173Z" fill="url(#paint5_linear_8_6320)"/>
<path d="M113.911 40.154C114.008 40.0186 114.102 39.8867 114.192 39.7652C113.779 38.4909 113.14 37.241 112.689 36.7688C113.255 37.5396 113.518 38.6472 113.48 40.0603C113.473 40.4283 113.737 40.404 113.911 40.154Z" fill="url(#paint6_linear_8_6320)"/>
<path d="M130.184 53.7506C130.431 53.8825 130.677 53.9659 130.938 54.011C130.847 53.6707 130.809 53.334 130.802 53.0458C130.774 50.5702 131.545 48.0946 133.517 45.6712C135.906 42.7269 138.42 41.2582 140.166 42.0672C140.08 41.4214 139.739 40.8589 139 40.5117C137.257 39.6715 134.601 41.2061 132.195 44.1678C130.222 46.5878 129.16 49.0529 129.118 51.4521C129.104 52.3062 129.427 53.3583 130.181 53.7506H130.184Z" fill="url(#paint7_linear_8_6320)"/>
<path d="M93.1514 40.9667C93.4604 40.8313 93.4986 40.6542 93.443 40.3799C93.3389 39.9077 93.009 38.7377 92.9118 38.4634C92.9882 38.7203 92.9222 38.9182 92.6132 39.0328C89.9363 40.0501 87.2524 41.6264 85.3948 44.1089C83.2942 46.9282 82.7248 50.3273 84.1345 52.2821C84.4678 52.7404 84.8671 53.0772 85.308 53.3029C84.5511 50.9662 85.0997 47.8344 86.8843 45.4214C88.7245 42.9319 90.7904 41.991 93.1479 40.9702L93.1514 40.9667Z" fill="url(#paint8_linear_8_6320)"/>
<path d="M122.99 49.6016C122.351 50.0564 121.521 50.5599 120.487 50.9453C119.216 51.4209 118.619 51.598 117.438 51.5841C115.956 51.5737 114.619 50.9453 113.678 49.4766C113.154 48.6815 112.939 47.4732 112.886 46.5913C112.88 46.4941 112.751 46.3205 112.612 46.5427C110.119 50.3515 107.79 54.0354 105.317 57.9067C105.189 58.0872 105.074 58.2018 104.821 58.2157C103.29 58.2157 101.62 58.2122 99.9323 58.2192C99.7552 58.2192 99.6337 58.1393 99.5955 58.0178C99.7275 58.608 99.9427 59.6774 100.002 59.9274C100.043 60.0976 100.168 60.1844 100.359 60.1844C102.168 60.1844 104.39 60.1844 105.897 60.1774C106.119 60.1635 106.276 60.0385 106.394 59.8684C108.644 56.3477 111.043 52.525 113.341 48.9974C113.848 50.7751 114.105 51.6049 115.043 52.4417C115.997 53.2958 116.876 53.518 118.178 53.5319C119.358 53.5458 120.522 53.0736 121.9 52.4973C122.396 52.2924 122.841 52.0355 123.237 51.782C123.237 51.1258 123.303 50.4696 123.417 49.8446C123.428 49.7786 123.362 49.3446 122.99 49.605V49.6016Z" fill="url(#paint9_linear_8_6320)"/>
<path d="M155.631 48.2649C155.631 48.3587 155.589 48.442 155.541 48.5045C153.162 51.4106 150.527 54.157 148.01 56.1013C144.09 59.1359 140.184 59.9067 138.246 57.9624C137.524 57.2367 137.128 56.202 137.08 55.3271C137.055 54.8514 136.812 54.8306 136.587 55.0493C134.278 57.3374 130.261 59.8685 126.608 58.0665C124.723 57.136 123.737 55.3861 123.382 53.4626C123.382 53.4834 123.393 53.5077 123.396 53.5286C123.629 54.8965 123.924 56.8617 124.566 58.0769C124.983 58.879 125.917 59.7782 126.49 60.0595C129.733 61.6601 134.365 59.8442 137.337 56.9832C137.368 56.945 137.375 56.945 137.416 56.8964C137.552 57.4138 137.715 58.0353 137.743 58.1186C137.948 58.7818 138.264 59.3859 138.541 59.7053C140.576 62.0038 144.895 60.9622 149.392 57.4797C151.902 55.5389 153.766 53.5876 156.047 50.9315C156.138 50.8204 156.131 50.6572 156.079 50.4141C155.95 49.8343 155.742 48.7858 155.631 48.2615V48.2649Z" fill="url(#paint10_linear_8_6320)"/>
<path d="M122.952 45.6712C124.157 45.0185 125.216 43.6366 125.08 41.3972C125.011 40.2826 124.688 39.1334 124.167 38.2029C124.521 38.8834 124.671 39.6716 124.542 40.4979C124.313 41.9457 123.528 43.2235 122.195 43.8831C121.063 44.4352 119.744 44.3415 118.82 43.5151C118.532 43.2512 118.32 42.9353 118.174 42.5985C118.414 43.6922 118.619 44.4977 118.904 44.9282C119.778 46.2407 121.285 46.5705 122.948 45.6712H122.952Z" fill="url(#paint11_linear_8_6320)"/>
<path d="M159.335 29.1653C159.29 28.9535 158.832 26.7348 158.787 26.5334C158.801 26.5925 158.787 26.6619 158.745 26.7418C157.985 28.0577 143.34 50.3551 142.413 52.6606C142.118 53.3897 142.083 53.9487 142.381 54.3514C142.684 54.7577 143.124 54.9139 143.624 54.9035C143.673 54.6223 143.781 54.3028 143.916 53.966C144.843 51.6537 158.558 30.811 159.311 29.4916C159.377 29.3771 159.353 29.2521 159.332 29.1653H159.335Z" fill="url(#paint12_linear_8_6320)"/>
<path d="M97.9498 37.1196C97.9914 37.1648 98.0296 37.2099 98.0643 37.262C98.9462 38.5744 99.4254 40.4181 99.474 42.3242C99.5295 42.727 99.6997 42.7374 99.8976 42.5291C100.075 42.3485 100.248 42.1576 100.418 41.9701C100.161 40.9458 99.7622 40.0257 99.349 39.1369C99.1962 38.814 98.5261 37.6613 97.9463 37.1196H97.9498Z" fill="url(#paint13_linear_8_6320)"/>
<path d="M106.012 43.5811C107.04 42.7027 108.165 42.1367 108.869 42.4076C109.293 41.3173 109.092 40.7167 108.64 40.4215C107.949 39.9737 106.578 40.6472 105.418 41.5291C102.259 43.9214 99.6059 47.6503 98.2588 49.3169C97.4671 50.2995 96.7172 51.7439 94.6478 53.9938C91.3911 57.5318 87.0719 59.5629 82.9123 58.1567C80.6382 57.3929 78.9924 55.5631 78.3674 53.3237C78.2425 52.8897 77.9994 52.7681 77.7633 53.0528C77.0897 53.8896 75.7148 55.1256 74.5656 55.9034C74.4406 55.9937 74.1316 56.1777 73.8642 56.0457C73.6246 55.9381 72.7705 54.7333 72.6004 54.3861C72.5796 54.3479 72.5657 54.3062 72.5622 54.2715V54.2854C72.8608 55.7714 72.899 55.9416 73.3052 56.6256C73.767 57.3859 74.2114 57.9172 74.3121 57.9623C74.5794 58.0977 74.8537 57.9727 74.9891 57.9033C75.8815 57.445 77.621 56.1048 78.3709 55.1743C78.5966 54.959 78.8153 55.1048 78.8883 55.3305C79.2042 56.3235 79.6625 57.0908 80.1729 57.9033C80.7354 58.806 81.8603 59.7435 83.3151 60.1462C85.2039 60.674 87.2385 60.7677 89.9085 59.7435C92.0542 58.9206 94.2972 57.2505 96.0297 55.3722C98.1025 53.1223 98.8525 51.6779 99.6406 50.6953C100.984 49.0287 103.078 46.0845 106.012 43.5776V43.5811Z" fill="url(#paint14_linear_8_6320)"/>
<path d="M48.5044 49.3967C48.0843 47.7475 48.5391 45.9733 49.1988 44.647C50.2543 42.5255 51.73 41.5117 53.1847 40.5951C53.8097 40.1993 54.0875 39.8139 53.716 38.7792C53.6083 38.4876 53.5493 37.9563 53.4347 37.4841C53.4729 37.9424 53.2472 38.3417 52.8375 38.5466C51.0598 39.4528 48.9245 41.0048 47.8656 43.1262C47.008 44.8553 46.8344 46.942 48.1433 48.928C48.2544 49.0877 48.3725 49.2474 48.501 49.3932L48.5044 49.3967Z" fill="url(#paint15_linear_8_6320)"/>
<path d="M60.9413 27.1549C60.5767 24.6412 62.4586 20.5338 67.3958 18.9019C73.8538 16.7735 81.0548 18.1172 86.8427 19.3567C87.6517 18.8498 88.36 18.4991 89.0683 18.1138C89.419 17.9297 89.0232 17.711 88.9155 17.711C81.4472 16.3083 73.6872 14.4924 66.2709 17.2388C61.1357 19.1554 58.8859 23.2281 59.9691 25.9501C60.1775 26.471 60.5108 26.8702 60.9413 27.1584V27.1549Z" fill="url(#paint16_linear_8_6320)"/>
<path d="M80.6763 35.1127C83.1346 34.8071 85.3428 34.6683 87.5163 34.4634C88.1655 34.4009 88.6586 34.3454 88.8947 34.578C89.6793 35.3627 90.589 36.0814 91.1966 36.4321C91.5994 36.4355 91.9362 36.5223 92.1723 36.7376C92.4257 36.7029 92.6584 36.564 92.8077 36.4182C93.0889 36.1439 93.1028 35.821 93.0542 35.5432C92.957 35.0085 92.8146 33.9495 92.641 33.644C92.7591 33.8766 92.6861 34.2065 92.45 34.4704C92.2764 34.6683 92.0091 34.8523 91.6654 34.8453C91.3876 34.8384 91.2175 34.7446 90.8633 34.5502C90.1342 34.1544 89.2245 33.5086 88.6204 32.7413C88.4121 32.4843 88.3079 32.4774 87.7906 32.5052C85.4643 32.6406 81.8395 32.9913 79.3813 33.2968C78.7876 33.3697 78.6973 33.4808 78.5758 33.6891C74.6593 40.1506 70.4755 47.1155 65.8854 51.7785C60.9586 56.7782 56.8651 58.0941 52.5181 58.1288C47.4975 58.1636 43.0325 55.32 41.9075 50.3237C42.5117 53.1117 44.3102 56.4762 46.3899 57.9414C48.5044 59.4309 50.5911 59.9274 53.0215 59.9725C57.9623 60.0593 62.4759 58.0212 67.2638 53.1604C71.8574 48.4974 75.8363 41.9839 79.7563 35.5259C79.8882 35.2967 80.0236 35.196 80.6833 35.1127H80.6763Z" fill="url(#paint17_linear_8_6320)"/>
<path d="M72.6108 34.2864C70.3887 34.3489 68.4513 35.0086 66.5695 36.4182C66.0278 36.814 65.2466 36.7585 64.9063 36.2377C64.7918 36.0606 64.7362 35.8696 64.7327 35.6752C64.6841 36.512 65.0209 37.7411 65.2917 38.1577C65.5903 38.616 66.4271 38.8382 67.0903 38.3487C68.5867 37.2446 69.9408 36.5988 71.4546 36.314C71.8435 35.7828 72.2671 35.1926 72.7462 34.5294C72.7879 34.4773 72.7983 34.4044 72.7809 34.3732C72.7532 34.3142 72.708 34.2968 72.6108 34.2933V34.2864Z" fill="url(#paint18_linear_8_6320)"/>
<path d="M129.011 15.8499C129.042 15.895 129.073 15.9436 129.101 15.9957C129.073 15.9401 129.045 15.888 129.011 15.8499Z" fill="url(#paint19_linear_8_6320)"/>
<path d="M80.6555 30.5991C80.5652 30.7067 80.6138 30.8074 80.7701 30.797C81.468 30.7622 82.145 30.731 82.8116 30.6963C85.2282 26.9152 87.8114 24.7452 91.7591 21.8287C92.0507 21.6099 92.3459 21.4502 92.2521 20.61C100.182 22.3703 106.213 25.2868 116.456 25.3181C119.511 25.325 123.82 24.3077 126.139 22.9085C128.806 21.3044 129.511 20.1274 129.611 18.8809C129.643 18.492 129.542 17.9157 129.476 17.6171C129.386 17.197 129.327 16.6588 129.205 16.2595C129.247 16.4227 129.268 16.6067 129.254 16.8081C129.174 18.2386 128.066 19.617 125.334 21.1065C122.23 22.8078 118.983 23.3251 115.591 23.3529C107.39 23.4223 99.7482 20.2246 91.8424 18.5059C91.8528 18.8531 91.9431 19.2663 91.6514 19.4816C87.2732 22.7106 83.3151 25.9917 80.6624 30.5991H80.6555Z" fill="url(#paint20_linear_8_6320)"/>
<path d="M91.3286 28.377C91.6549 28.0889 92.0647 27.9534 92.4153 28.0125C92.7174 27.4118 92.8042 26.6931 92.4362 26.3737C92.082 26.0647 91.5161 26.1202 91.0612 26.4466C90.9605 26.5403 90.8529 26.6341 90.7453 26.7313C89.9641 27.5437 89.7245 28.6166 89.8391 29.4256C89.9016 29.7554 90.03 29.8214 90.1793 29.7936C90.3286 29.7624 90.4779 29.7138 90.6307 29.6513C90.6862 29.2034 90.8737 28.7694 91.3251 28.3736L91.3286 28.377Z" fill="url(#paint21_linear_8_6320)"/>
<path d="M94.6305 31.0713C95.0089 30.2415 95.2138 29.5888 95.0506 28.1652C94.9325 27.1688 94.7312 26.266 94.4638 25.8008C94.9777 26.8459 94.7694 28.1861 94.2138 29.2589C93.4639 30.6964 92.2209 31.4672 91.03 31.8421C91.03 31.8421 90.78 31.8977 90.8182 32.1234C90.8494 32.3803 91.6931 32.9185 92.2209 33.29C92.2973 33.2691 92.4084 33.224 92.4084 33.224C93.0194 32.9879 94.0402 32.3664 94.6305 31.0748V31.0713Z" fill="url(#paint22_linear_8_6320)"/>
<path d="M58.2053 33.8037C59.299 34.4877 60.6496 34.8661 62.1947 34.8141C67.4548 34.6335 71.4407 30.3004 72.7636 26.6374C73.1177 25.6479 72.8434 24.5889 72.6768 23.8771C72.6108 23.6028 72.5205 22.9779 72.3192 22.5334C72.4719 22.898 72.4719 23.4396 72.1838 24.1202C70.0137 29.2206 65.8681 33.2655 60.8163 33.4357C57.7713 33.5363 55.4937 31.9774 54.4277 29.672C55.2089 31.3906 56.8096 32.9253 58.2088 33.8037H58.2053Z" fill="url(#paint23_linear_8_6320)"/>
<path d="M99.9983 0C44.4942 0 0 16.638 0 37.498C0 58.3581 44.8588 74.9961 99.9983 74.9961C155.138 74.9961 200 58.1741 200 37.498C200 16.822 155.138 0 99.9983 0ZM0.687464 37.9077C0.666632 33.5191 2.60056 29.1582 6.66632 25.0577C20.9815 10.6175 58.49 0.857594 99.8316 0.683992C154.593 0.458309 199.222 16.7873 199.316 37.0849C199.337 41.4735 197.285 45.7754 193.219 49.8759C178.9 64.3196 141.51 74.1385 100.172 74.3086C45.4074 74.5343 0.781209 58.2088 0.687464 37.9077ZM199.385 34.5989C199.424 34.7794 199.451 34.9635 199.483 35.144C199.455 34.9635 199.42 34.7794 199.385 34.5989Z" fill="#333333"/>
<path d="M6.4441 24.839C20.8392 10.3154 58.3858 0.545127 99.8281 0.371525C105.571 0.34722 111.199 0.510406 116.678 0.836778C111.251 0.493046 105.679 0.3125 99.9983 0.3125C44.7164 0.3125 0.302063 16.888 0.302063 37.4981C0.302063 38.4772 0.41664 39.4459 0.614547 40.4076C0.461777 39.5848 0.378448 38.7515 0.371504 37.9147C0.350672 33.467 2.34015 28.9777 6.44063 24.8425L6.4441 24.839Z" fill="url(#paint24_linear_8_6320)"/>
<path d="M193.438 50.1049C179.091 64.5764 141.559 74.4474 100.172 74.6175C94.318 74.6418 88.5787 74.4856 83.0026 74.1453C88.5266 74.4995 94.2069 74.6765 100.002 74.6765C154.971 74.6765 199.691 57.8962 199.691 37.5014C199.691 36.7237 199.618 35.9494 199.493 35.1855C199.583 35.814 199.628 36.4494 199.632 37.0882C199.653 41.5359 197.545 45.9662 193.445 50.1014L193.438 50.1049Z" fill="url(#paint25_linear_8_6320)"/>
<path d="M99.9948 70.3296C47.8794 70.3296 5.63165 55.6255 5.63165 37.4875C5.63165 19.3496 47.876 4.64551 99.9948 4.64551C152.114 4.64551 194.351 19.3461 194.351 37.4875C194.351 55.629 152.107 70.3296 99.9948 70.3296ZM99.9948 7.48911C49.7092 7.48911 8.94745 20.9155 8.94745 37.4875C8.94745 54.0596 49.7057 67.486 99.9913 67.486C150.277 67.486 191.032 54.0561 191.032 37.4875C191.032 20.919 150.277 7.48911 99.9948 7.48911Z" fill="url(#paint26_linear_8_6320)"/>
<path d="M158.745 26.7418C158.874 26.5126 158.738 26.3459 158.45 26.3459C156.943 26.3459 154.968 26.3459 153.398 26.3459C153.023 26.3459 152.832 26.3911 152.655 26.7383C152.075 27.8493 145.013 38.4321 143.697 40.4876C143.475 40.8001 143.204 40.7584 143.173 40.4008C143.041 39.1786 141.986 37.7759 140.326 37.1058C139.059 36.5919 137.823 36.4982 136.535 36.6683C134.212 36.9808 132.142 38.2064 130.323 39.5883C127.58 41.675 125.216 44.3763 122.16 46.3727C120.494 47.4594 118.209 48.4073 116.681 46.9942C115.3 45.713 115.456 42.8659 117.57 40.6646C117.792 40.4355 118.06 40.6265 118.018 40.8348C117.82 41.8313 118.063 42.8208 118.82 43.5152C119.744 44.3415 121.063 44.4353 122.195 43.8832C123.528 43.2235 124.313 41.9458 124.542 40.498C124.896 38.2516 123.167 36.269 121.001 36.1093C119.244 35.9843 117.556 36.5989 115.914 37.953C115.091 38.637 114.622 39.1404 113.911 40.1543C113.737 40.4042 113.47 40.4285 113.48 40.0605C113.564 37.1822 112.373 35.5642 109.994 35.5121C108.147 35.4705 106.175 36.4704 104.637 37.6961C102.953 39.0501 101.477 40.8417 99.8975 42.5291C99.6996 42.7375 99.5295 42.727 99.474 42.3243C99.4253 40.4181 98.9462 38.571 98.0643 37.262C97.7518 36.8072 97.0956 36.5815 96.5436 36.8871C96.2901 37.0259 95.4013 37.4356 94.7555 37.953C94.436 38.2169 94.311 38.5988 94.4499 39.0883C95.304 41.9354 95.1131 45.1748 93.9604 47.9073C92.9014 50.4107 90.839 52.671 88.4155 53.4348C86.8184 53.9417 85.1587 53.6917 84.131 52.2786C82.7214 50.3239 83.2908 46.9282 85.3914 44.1054C87.2489 41.6229 89.9293 40.0432 92.6097 39.0293C92.9257 38.9078 92.9882 38.7064 92.9014 38.4391C92.7556 37.9981 92.5229 37.4009 92.4292 37.1266C92.1827 36.4739 91.4952 36.3663 90.6584 36.46C88.7141 36.6857 86.9573 37.3523 85.2247 38.2794C80.6867 40.7098 78.4126 45.4144 77.4126 47.9316C76.9335 49.1399 76.5203 49.8933 75.9925 50.5634C75.2773 51.4627 74.378 52.2821 72.7358 53.723C72.5865 53.8549 72.4754 54.1327 72.6004 54.3862C72.767 54.7334 73.6211 55.9382 73.8642 56.0458C74.1315 56.1777 74.4405 55.9937 74.5655 55.9034C75.7148 55.1257 77.0897 53.8897 77.7633 53.0529C77.9994 52.7647 78.2424 52.8862 78.3674 53.3237C78.9959 55.5632 80.6416 57.3929 82.9123 58.1568C87.0753 59.5595 91.391 57.5284 94.6478 53.9938C96.7172 51.7474 97.4671 50.2996 98.2587 49.317C99.6024 47.6504 102.259 43.9214 105.418 41.5292C106.578 40.6473 107.949 39.9737 108.64 40.4216C109.192 40.7792 109.373 41.6125 108.484 43.2305C105.262 49.1156 100.523 56.0284 99.651 57.702C99.4913 57.9936 99.6302 58.2228 99.9357 58.2228C101.623 58.2158 103.293 58.2193 104.824 58.2193C105.078 58.2054 105.192 58.0908 105.321 57.9103C107.793 54.0389 110.119 50.3551 112.616 46.5463C112.755 46.3206 112.883 46.4942 112.89 46.5949C112.942 47.4803 113.157 48.6885 113.682 49.4802C114.622 50.9488 115.959 51.5773 117.442 51.5877C118.622 51.6016 119.216 51.421 120.49 50.9488C121.525 50.5634 122.355 50.06 122.994 49.6052C123.365 49.3482 123.431 49.7788 123.421 49.8447C122.848 52.9175 123.556 56.5597 126.608 58.0665C130.264 59.8685 134.278 57.3374 136.587 55.0493C136.812 54.8306 137.055 54.8514 137.08 55.3271C137.128 56.1986 137.524 57.2367 138.246 57.9624C140.184 59.9067 144.09 59.1359 148.01 56.1013C150.527 54.157 153.162 51.4141 155.54 48.5045C155.627 48.3934 155.693 48.2094 155.523 48.0288C155.162 47.6504 154.638 47.2164 154.277 46.8831C154.113 46.7442 153.874 46.7824 153.735 46.89C151.298 49.2093 149.1 51.855 145.93 54.0424C144.86 54.7889 143.156 55.3896 142.388 54.3549C142.09 53.9522 142.125 53.3966 142.42 52.664C143.343 50.3586 157.992 28.0577 158.752 26.7452L158.745 26.7418ZM139.385 45.4422C139.416 45.6123 139.639 45.779 139.857 45.8554C139.934 45.8831 139.975 45.9387 139.889 46.1192C139.267 47.4525 138.694 48.2233 137.913 49.3829C137.194 50.4558 136.385 51.2891 135.406 52.0946C133.93 53.3168 131.879 54.6466 130.181 53.7542C129.427 53.3619 129.101 52.3099 129.118 51.4558C129.156 49.0566 130.222 46.5914 132.194 44.1714C134.597 41.2132 137.253 39.6786 139 40.5154C140.805 41.3764 140.229 43.4631 139.42 45.1054C139.361 45.2339 139.354 45.3415 139.389 45.4422H139.385Z" fill="url(#paint27_linear_8_6320)"/>
<path d="M52.5111 58.1323C47.0496 58.1705 42.2408 54.7957 41.6888 48.9523C41.3833 45.7163 42.2964 42.8311 44.1296 40.4527C45.7546 38.3348 48.5044 36.5744 50.8341 36.1439C51.5911 36.005 52.6118 36.0953 53.032 36.5953C53.6916 37.3626 53.5007 38.2063 52.8445 38.5431C51.0668 39.4493 48.9315 41.0013 47.8725 43.1227C47.0149 44.8518 46.8413 46.9385 48.1503 48.9245C50.3446 52.2368 56.4554 52.3271 62.1391 47.0461C63.5453 45.7545 64.8056 44.5115 66.0868 43.0428C68.5902 40.1819 69.4235 39.1368 72.7497 34.5225C72.7913 34.4704 72.8018 34.3975 72.7844 34.3662C72.7566 34.3072 72.7115 34.2898 72.6143 34.2864C70.3922 34.3489 68.4548 35.0085 66.5729 36.4182C66.0313 36.814 65.2501 36.7585 64.9098 36.2376C64.5313 35.6509 64.8022 34.8836 65.4271 34.4495C68.4548 32.342 71.7636 31.9601 75.1419 31.3907C75.1419 31.3907 75.378 31.4011 75.569 31.1442C76.9543 29.3665 78.0029 27.7589 79.482 25.9604C80.9715 24.1341 82.895 22.4571 84.3671 21.1968C86.4191 19.433 87.735 18.8392 89.0717 18.1101C89.4224 17.9261 89.0266 17.7074 88.919 17.7074C81.4506 16.3047 73.6906 14.4888 66.2743 17.2352C61.1392 19.1517 58.8893 23.2244 59.9726 25.9465C60.7434 27.877 63.2814 28.1895 65.6598 27.0263C67.6354 26.0576 69.4616 24.4987 70.7567 22.4918C71.4824 21.3773 73.0101 22.1828 72.1837 24.1167C70.0137 29.2172 65.8681 33.2621 60.8163 33.4322C56.5179 33.5711 53.7472 30.4116 53.7541 26.509C53.7715 18.8149 62.337 13.7492 71.3366 12.9889C82.1763 12.0931 92.4431 14.9818 103.206 16.2873C111.453 17.2838 119.358 17.3081 127.646 15.4019C128.625 15.1901 129.313 15.8151 129.25 16.8046C129.17 18.2351 128.063 19.6135 125.33 21.103C122.226 22.8043 118.98 23.3217 115.588 23.3494C107.387 23.4189 99.7448 20.2211 91.839 18.5025C91.8494 18.8497 91.9396 19.2628 91.648 19.4781C87.2697 22.7071 83.3116 25.9882 80.659 30.5956C80.5687 30.7032 80.6173 30.8039 80.7736 30.7935C83.0755 30.672 85.1449 30.6129 87.294 30.4393C87.669 30.4081 87.6829 30.3143 87.6517 30.0401C87.4642 28.4533 87.926 26.6409 89.3217 25.3945C90.7522 24.1133 92.5438 23.9675 93.7277 24.891C95.0784 25.943 94.9568 27.8318 94.2208 29.2519C93.4708 30.6893 92.2278 31.4601 91.0369 31.8351C91.0369 31.8351 90.7869 31.8907 90.8251 32.1163C90.8737 32.4809 92.4952 33.3802 92.634 33.6197C92.766 33.8489 92.7 34.1996 92.4535 34.4704C92.2799 34.6683 92.0126 34.8523 91.6688 34.8454C91.3911 34.8384 91.2209 34.7447 90.8668 34.5502C90.1376 34.1544 89.228 33.5086 88.6238 32.7413C88.4155 32.4844 88.3114 32.4774 87.794 32.5052C85.4678 32.6406 81.8429 32.9913 79.3847 33.2968C78.791 33.3697 78.7008 33.4808 78.5792 33.6892C74.6628 40.1506 70.479 47.1156 65.8889 51.7785C60.9621 56.7782 56.8686 58.0941 52.5216 58.1289L52.5111 58.1323ZM89.8391 29.429C89.9016 29.7588 90.03 29.8248 90.1793 29.797C90.9258 29.6477 91.7417 29.0332 92.2243 28.3214C92.6653 27.6756 92.8736 26.7451 92.4361 26.3736C92.0438 26.0403 91.4119 26.134 90.9397 26.5507C90.0022 27.377 89.7175 28.554 89.8391 29.429Z" fill="url(#paint28_linear_8_6320)"/>
</g>
<defs>
<radialGradient id="paint0_radial_8_6320" cx="0" cy="0" r="1" gradientUnits="userSpaceOnUse" gradientTransform="translate(98.8643 411.787) scale(431.082 420.168)">
<stop stop-color="#00000D"/>
<stop offset="0.22" stop-color="#000012"/>
<stop offset="0.48" stop-color="#000020"/>
<stop offset="0.7" stop-color="#000033"/>
<stop offset="0.9" stop-color="#004282"/>
<stop offset="0.91" stop-color="#055392"/>
<stop offset="0.93" stop-color="#1180BB"/>
<stop offset="0.95" stop-color="#1CA6DF"/>
</radialGradient>
<linearGradient id="paint1_linear_8_6320" x1="99.834" y1="75.819" x2="99.834" y2="-0.396844" gradientUnits="userSpaceOnUse">
<stop stop-color="#00053D"/>
<stop offset="0.23" stop-color="#000740"/>
<stop offset="0.44" stop-color="#00114B"/>
<stop offset="0.63" stop-color="#00205D"/>
<stop offset="0.81" stop-color="#003475"/>
<stop offset="0.86" stop-color="#004483"/>
<stop offset="1" stop-color="#006DA9"/>
</linearGradient>
<linearGradient id="paint2_linear_8_6320" x1="101.069" y1="75.8215" x2="101.069" y2="-0.396782" gradientUnits="userSpaceOnUse">
<stop stop-color="#00053D"/>
<stop offset="0.23" stop-color="#000740"/>
<stop offset="0.44" stop-color="#00114B"/>
<stop offset="0.63" stop-color="#00205D"/>
<stop offset="0.81" stop-color="#003475"/>
<stop offset="0.86" stop-color="#004483"/>
<stop offset="1" stop-color="#006DA9"/>
</linearGradient>
<linearGradient id="paint3_linear_8_6320" x1="117.069" y1="62.8928" x2="117.069" y2="9.49626" gradientUnits="userSpaceOnUse">
<stop stop-color="#00053D"/>
<stop offset="0.23" stop-color="#000740"/>
<stop offset="0.44" stop-color="#00114B"/>
<stop offset="0.63" stop-color="#00205D"/>
<stop offset="0.81" stop-color="#003475"/>
<stop offset="0.86" stop-color="#004483"/>
<stop offset="1" stop-color="#006DA9"/>
</linearGradient>
<linearGradient id="paint4_linear_8_6320" x1="139.653" y1="62.9342" x2="139.653" y2="9.40148" gradientUnits="userSpaceOnUse">
<stop stop-color="#00053D"/>
<stop offset="0.23" stop-color="#000740"/>
<stop offset="0.44" stop-color="#00114B"/>
<stop offset="0.63" stop-color="#00205D"/>
<stop offset="0.81" stop-color="#003475"/>
<stop offset="0.86" stop-color="#004483"/>
<stop offset="1" stop-color="#006DA9"/>
</linearGradient>
<linearGradient id="paint5_linear_8_6320" x1="142.927" y1="62.8881" x2="142.927" y2="9.49397" gradientUnits="userSpaceOnUse">
<stop stop-color="#00053D"/>
<stop offset="0.23" stop-color="#000740"/>
<stop offset="0.44" stop-color="#00114B"/>
<stop offset="0.63" stop-color="#00205D"/>
<stop offset="0.81" stop-color="#003475"/>
<stop offset="0.86" stop-color="#004483"/>
<stop offset="1" stop-color="#006DA9"/>
</linearGradient>
<linearGradient id="paint6_linear_8_6320" x1="113.438" y1="62.8976" x2="113.438" y2="9.48411" gradientUnits="userSpaceOnUse">
<stop stop-color="#00053D"/>
<stop offset="0.23" stop-color="#000740"/>
<stop offset="0.44" stop-color="#00114B"/>
<stop offset="0.63" stop-color="#00205D"/>
<stop offset="0.81" stop-color="#003475"/>
<stop offset="0.86" stop-color="#004483"/>
<stop offset="1" stop-color="#006DA9"/>
</linearGradient>
<linearGradient id="paint7_linear_8_6320" x1="134.641" y1="62.905" x2="134.641" y2="9.47687" gradientUnits="userSpaceOnUse">
<stop stop-color="#00053D"/>
<stop offset="0.23" stop-color="#000740"/>
<stop offset="0.44" stop-color="#00114B"/>
<stop offset="0.63" stop-color="#00205D"/>
<stop offset="0.81" stop-color="#003475"/>
<stop offset="0.86" stop-color="#004483"/>
<stop offset="1" stop-color="#006DA9"/>
</linearGradient>
<linearGradient id="paint8_linear_8_6320" x1="88.4096" y1="62.8979" x2="88.4096" y2="9.48433" gradientUnits="userSpaceOnUse">
<stop stop-color="#00053D"/>
<stop offset="0.23" stop-color="#000740"/>
<stop offset="0.44" stop-color="#00114B"/>
<stop offset="0.63" stop-color="#00205D"/>
<stop offset="0.81" stop-color="#003475"/>
<stop offset="0.86" stop-color="#004483"/>
<stop offset="1" stop-color="#006DA9"/>
</linearGradient>
<linearGradient id="paint9_linear_8_6320" x1="111.506" y1="62.9026" x2="111.506" y2="9.4745" gradientUnits="userSpaceOnUse">
<stop stop-color="#00053D"/>
<stop offset="0.23" stop-color="#000740"/>
<stop offset="0.44" stop-color="#00114B"/>
<stop offset="0.63" stop-color="#00205D"/>
<stop offset="0.81" stop-color="#003475"/>
<stop offset="0.86" stop-color="#004483"/>
<stop offset="1" stop-color="#006DA9"/>
</linearGradient>
<linearGradient id="paint10_linear_8_6320" x1="139.748" y1="62.9027" x2="139.748" y2="9.46488" gradientUnits="userSpaceOnUse">
<stop stop-color="#00053D"/>
<stop offset="0.23" stop-color="#000740"/>
<stop offset="0.44" stop-color="#00114B"/>
<stop offset="0.63" stop-color="#00205D"/>
<stop offset="0.81" stop-color="#003475"/>
<stop offset="0.86" stop-color="#004483"/>
<stop offset="1" stop-color="#006DA9"/>
</linearGradient>
<linearGradient id="paint11_linear_8_6320" x1="121.634" y1="62.9148" x2="121.634" y2="9.45265" gradientUnits="userSpaceOnUse">
<stop stop-color="#00053D"/>
<stop offset="0.23" stop-color="#000740"/>
<stop offset="0.44" stop-color="#00114B"/>
<stop offset="0.63" stop-color="#00205D"/>
<stop offset="0.81" stop-color="#003475"/>
<stop offset="0.86" stop-color="#004483"/>
<stop offset="1" stop-color="#006DA9"/>
</linearGradient>
<linearGradient id="paint12_linear_8_6320" x1="150.767" y1="62.9003" x2="150.767" y2="9.47704" gradientUnits="userSpaceOnUse">
<stop stop-color="#00053D"/>
<stop offset="0.23" stop-color="#000740"/>
<stop offset="0.44" stop-color="#00114B"/>
<stop offset="0.63" stop-color="#00205D"/>
<stop offset="0.81" stop-color="#003475"/>
<stop offset="0.86" stop-color="#004483"/>
<stop offset="1" stop-color="#006DA9"/>
</linearGradient>
<linearGradient id="paint13_linear_8_6320" x1="99.1837" y1="62.8881" x2="99.1837" y2="9.49156" gradientUnits="userSpaceOnUse">
<stop stop-color="#00053D"/>
<stop offset="0.23" stop-color="#000740"/>
<stop offset="0.44" stop-color="#00114B"/>
<stop offset="0.63" stop-color="#00205D"/>
<stop offset="0.81" stop-color="#003475"/>
<stop offset="0.86" stop-color="#004483"/>
<stop offset="1" stop-color="#006DA9"/>
</linearGradient>
<linearGradient id="paint14_linear_8_6320" x1="90.8303" y1="62.8881" x2="90.8303" y2="9.82453" gradientUnits="userSpaceOnUse">
<stop stop-color="#00053D"/>
<stop offset="0.23" stop-color="#000740"/>
<stop offset="0.44" stop-color="#00114B"/>
<stop offset="0.63" stop-color="#00205D"/>
<stop offset="0.81" stop-color="#003475"/>
<stop offset="0.86" stop-color="#004483"/>
<stop offset="1" stop-color="#006DA9"/>
</linearGradient>
<linearGradient id="paint15_linear_8_6320" x1="50.5387" y1="62.8977" x2="50.5387" y2="9.47933" gradientUnits="userSpaceOnUse">
<stop stop-color="#00053D"/>
<stop offset="0.23" stop-color="#000740"/>
<stop offset="0.44" stop-color="#00114B"/>
<stop offset="0.63" stop-color="#00205D"/>
<stop offset="0.81" stop-color="#003475"/>
<stop offset="0.86" stop-color="#004483"/>
<stop offset="1" stop-color="#006DA9"/>
</linearGradient>
<linearGradient id="paint16_linear_8_6320" x1="74.4566" y1="62.893" x2="74.4566" y2="9.48191" gradientUnits="userSpaceOnUse">
<stop stop-color="#00053D"/>
<stop offset="0.23" stop-color="#000740"/>
<stop offset="0.44" stop-color="#00114B"/>
<stop offset="0.63" stop-color="#00205D"/>
<stop offset="0.81" stop-color="#003475"/>
<stop offset="0.86" stop-color="#004483"/>
<stop offset="1" stop-color="#006DA9"/>
</linearGradient>
<linearGradient id="paint17_linear_8_6320" x1="67.4861" y1="62.9001" x2="67.4861" y2="9.47687" gradientUnits="userSpaceOnUse">
<stop stop-color="#00053D"/>
<stop offset="0.23" stop-color="#000740"/>
<stop offset="0.44" stop-color="#00114B"/>
<stop offset="0.63" stop-color="#00205D"/>
<stop offset="0.81" stop-color="#003475"/>
<stop offset="0.86" stop-color="#004483"/>
<stop offset="1" stop-color="#006DA9"/>
</linearGradient>
<linearGradient id="paint18_linear_8_6320" x1="68.7572" y1="62.9123" x2="68.7572" y2="9.46476" gradientUnits="userSpaceOnUse">
<stop stop-color="#00053D"/>
<stop offset="0.23" stop-color="#000740"/>
<stop offset="0.44" stop-color="#00114B"/>
<stop offset="0.63" stop-color="#00205D"/>
<stop offset="0.81" stop-color="#003475"/>
<stop offset="0.86" stop-color="#004483"/>
<stop offset="1" stop-color="#006DA9"/>
</linearGradient>
<linearGradient id="paint19_linear_8_6320" x1="129.054" y1="62.2195" x2="129.054" y2="9.57174" gradientUnits="userSpaceOnUse">
<stop stop-color="#00053D"/>
<stop offset="0.23" stop-color="#000740"/>
<stop offset="0.44" stop-color="#00114B"/>
<stop offset="0.63" stop-color="#00205D"/>
<stop offset="0.81" stop-color="#003475"/>
<stop offset="0.86" stop-color="#004483"/>
<stop offset="1" stop-color="#006DA9"/>
</linearGradient>
<linearGradient id="paint20_linear_8_6320" x1="105.109" y1="62.8953" x2="105.109" y2="9.48175" gradientUnits="userSpaceOnUse">
<stop stop-color="#00053D"/>
<stop offset="0.23" stop-color="#000740"/>
<stop offset="0.44" stop-color="#00114B"/>
<stop offset="0.63" stop-color="#00205D"/>
<stop offset="0.81" stop-color="#003475"/>
<stop offset="0.86" stop-color="#004483"/>
<stop offset="1" stop-color="#006DA9"/>
</linearGradient>
<linearGradient id="paint21_linear_8_6320" x1="91.2459" y1="62.9124" x2="91.2459" y2="9.47212" gradientUnits="userSpaceOnUse">
<stop stop-color="#00053D"/>
<stop offset="0.23" stop-color="#000740"/>
<stop offset="0.44" stop-color="#00114B"/>
<stop offset="0.63" stop-color="#00205D"/>
<stop offset="0.81" stop-color="#003475"/>
<stop offset="0.86" stop-color="#004483"/>
<stop offset="1" stop-color="#006DA9"/>
</linearGradient>
<linearGradient id="paint22_linear_8_6320" x1="92.9594" y1="62.9002" x2="92.9594" y2="9.47698" gradientUnits="userSpaceOnUse">
<stop stop-color="#00053D"/>
<stop offset="0.23" stop-color="#000740"/>
<stop offset="0.44" stop-color="#00114B"/>
<stop offset="0.63" stop-color="#00205D"/>
<stop offset="0.81" stop-color="#003475"/>
<stop offset="0.86" stop-color="#004483"/>
<stop offset="1" stop-color="#006DA9"/>
</linearGradient>
<linearGradient id="paint23_linear_8_6320" x1="63.6752" y1="62.9025" x2="63.6752" y2="9.47684" gradientUnits="userSpaceOnUse">
<stop stop-color="#00053D"/>
<stop offset="0.23" stop-color="#000740"/>
<stop offset="0.44" stop-color="#00114B"/>
<stop offset="0.63" stop-color="#00205D"/>
<stop offset="0.81" stop-color="#003475"/>
<stop offset="0.86" stop-color="#004483"/>
<stop offset="1" stop-color="#006DA9"/>
</linearGradient>
<linearGradient id="paint24_linear_8_6320" x1="78.0098" y1="92.8841" x2="54.9069" y2="6.65592" gradientUnits="userSpaceOnUse">
<stop stop-color="#A6A6A6"/>
<stop offset="0.35" stop-color="#D9D9D9"/>
<stop offset="0.65" stop-color="#D9D9D9"/>
<stop offset="1" stop-color="#A6A6A6"/>
</linearGradient>
<linearGradient id="paint25_linear_8_6320" x1="138.84" y1="45.6954" x2="115.841" y2="-40.1335" gradientUnits="userSpaceOnUse">
<stop stop-color="#A6A6A6"/>
<stop offset="0.35" stop-color="#D9D9D9"/>
<stop offset="0.65" stop-color="#D9D9D9"/>
<stop offset="1" stop-color="#A6A6A6"/>
</linearGradient>
<linearGradient id="paint26_linear_8_6320" x1="99.9913" y1="-0.899342" x2="99.9913" y2="75.7078" gradientUnits="userSpaceOnUse">
<stop stop-color="white"/>
<stop offset="0.55" stop-color="#FDFDFD"/>
<stop offset="0.69" stop-color="#F9F9F9"/>
<stop offset="0.8" stop-color="#CCCCCC"/>
<stop offset="1" stop-color="#B3B3B3"/>
</linearGradient>
<linearGradient id="paint27_linear_8_6320" x1="115.671" y1="23.5961" x2="115.671" y2="61.5872" gradientUnits="userSpaceOnUse">
<stop stop-color="white"/>
<stop offset="0.43" stop-color="#FDFDFD"/>
<stop offset="0.59" stop-color="#F6F6F6"/>
<stop offset="0.69" stop-color="#ECECEC"/>
<stop offset="0.8" stop-color="#E6E6E6"/>
<stop offset="1" stop-color="#CCCCCC"/>
</linearGradient>
<linearGradient id="paint28_linear_8_6320" x1="85.44" y1="9.13489" x2="85.44" y2="61.8335" gradientUnits="userSpaceOnUse">
<stop stop-color="white"/>
<stop offset="0.43" stop-color="#FDFDFD"/>
<stop offset="0.59" stop-color="#F6F6F6"/>
<stop offset="0.69" stop-color="#ECECEC"/>
<stop offset="0.8" stop-color="#E6E6E6"/>
<stop offset="1" stop-color="#CCCCCC"/>
</linearGradient>
<clipPath id="clip0_8_6320">
<rect width="200" height="74.9961" fill="white"/>
</clipPath>
</defs>
</svg>
