<svg width="201" height="148" viewBox="0 0 201 148" fill="none" xmlns="http://www.w3.org/2000/svg">
<path d="M21.3516 138.555H25.4062V137.422H15.8359V138.555H19.8906V147.422H21.3516V138.555Z" fill="#161413"/>
<path d="M32.5938 147.422H34V143.367C34 141.043 32.5937 140.016 30.6484 140.016C29.3516 140.016 28.2148 140.504 27.6211 141.527V137.477H26.2148V147.422H27.6211V144.07C27.6211 141.855 29.0273 140.934 30.4844 140.934C31.7813 140.934 32.5938 141.637 32.5938 143.473C32.5938 143.477 32.5938 147.422 32.5938 147.422Z" fill="#161413"/>
<path d="M37.082 144.125C37.1914 145.531 38.1094 146.664 39.7305 146.664C40.9727 146.664 41.7852 146.23 42.0547 145.258H43.5664C43.2422 146.988 41.5117 147.582 39.7812 147.582C37.1328 147.582 35.6172 146.176 35.6172 143.906C35.6172 141.367 37.2383 139.961 39.7812 139.961C42.3203 139.961 43.6172 141.258 43.6172 143.746V144.125H37.082ZM39.8359 140.879C38.4297 140.879 37.4023 141.582 37.1875 143.203H42.2695C42.2695 141.582 41.0273 140.879 39.8359 140.879Z" fill="#161413"/>
<path d="M97.2969 141.312C97.5117 141.312 97.7852 141.312 98.3242 141.422V140.18C98.1094 140.07 97.8906 140.07 97.5117 140.07C96.2148 140.07 95.2969 140.773 94.7539 141.691L94.6445 140.285H93.3477C93.3477 140.773 93.457 141.312 93.457 141.906V147.367H94.7539V143.906C94.7578 142.23 95.5664 141.312 97.2969 141.312Z" fill="#161413"/>
<path d="M139.461 141.312C139.785 141.312 140.055 141.312 140.598 141.422V140.18C140.383 140.07 140.164 140.07 139.68 140.07C138.383 140.07 137.57 140.773 136.922 141.691V140.285H135.625C135.625 140.773 135.625 141.312 135.625 141.906V147.367H137.031V143.906C137.027 142.23 137.836 141.312 139.461 141.312Z" fill="#161413"/>
<path d="M72.1094 146.395L69.8906 140.285H68.2695L71.082 147.422H73.0273L75.3516 141.422L77.8906 147.422H79.7305L82.5937 140.285H81.082L78.8125 146.395L76.3789 140.285H74.5391L72.1094 146.395Z" fill="#161413"/>
<path d="M53.9453 143.527H50.918V147.363H49.5117V137.418H53.7812C56.8086 137.308 57.8359 138.66 57.8359 140.336C57.7852 142.23 56.5938 143.527 53.9453 143.527ZM53.7305 138.449H50.8672V142.394H53.7852C55.6211 142.394 56.2187 141.691 56.2187 140.34C56.2695 139.258 55.6758 138.449 53.7305 138.449Z" fill="#161413"/>
<path d="M62.9727 147.582C60.1094 147.582 58.5938 146.285 58.5938 143.797C58.5938 141.473 60.1055 139.961 62.9727 139.961C66 139.961 67.4609 141.367 67.4609 143.797C67.4609 146.285 65.9453 147.582 62.9727 147.582ZM62.9727 140.879C61.0273 140.879 60.0547 142.121 60.0547 143.852C60.0547 145.363 61.082 146.715 62.9727 146.715C65.0273 146.715 66 145.418 66 143.852C66 142.125 65.0273 140.879 62.9727 140.879Z" fill="#161413"/>
<path d="M84.7031 144.125C84.918 145.531 85.7305 146.664 87.3516 146.664C88.5937 146.664 89.4609 146.23 89.7852 145.258H91.1914C90.8672 146.988 89.1367 147.582 87.4062 147.582C84.7578 147.582 83.3516 146.176 83.3516 143.906C83.3516 141.367 84.8633 139.961 87.4062 139.961C89.9453 139.961 91.3516 141.258 91.3516 143.746V144.125H84.7031ZM87.4609 140.879C86.0547 140.879 85.0273 141.582 84.8125 143.203H89.8945C89.8906 141.582 88.6484 140.879 87.4609 140.879Z" fill="#161413"/>
<path d="M142.703 144.125C142.813 145.531 143.73 146.664 145.352 146.664C146.594 146.664 147.406 146.23 147.676 145.258H149.188C148.863 146.988 147.133 147.582 145.352 147.582C142.813 147.582 141.297 146.176 141.297 143.906C141.297 141.367 142.918 139.961 145.461 139.961C148 139.961 149.297 141.258 149.297 143.746V144.125H142.703ZM145.461 140.879C144.055 140.879 142.922 141.582 142.813 143.203H147.895C147.891 141.582 146.648 140.879 145.461 140.879Z" fill="#161413"/>
<path d="M116.594 138.176C116.918 138.176 117.406 138.285 118.105 138.391V137.363C117.617 137.254 116.969 137.254 116.27 137.254C114.215 137.254 113.621 138.281 113.621 140.012V140.336H111.785V141.254H113.621V147.469H114.918V141.254H117.836V140.336H114.918V139.742C114.973 138.555 115.512 138.176 116.594 138.176Z" fill="#161413"/>
<path d="M106.758 147.582C103.84 147.582 102.27 146.285 102.27 143.797C102.27 141.473 103.891 139.961 106.758 139.961C109.676 139.961 111.246 141.367 111.246 143.797C111.242 146.285 109.621 147.582 106.758 147.582ZM106.758 140.879C104.812 140.879 103.84 142.121 103.84 143.852C103.84 145.363 104.867 146.715 106.758 146.715C108.703 146.715 109.676 145.418 109.676 143.852C109.676 142.125 108.812 140.879 106.758 140.879Z" fill="#161413"/>
<path d="M167.512 141.691C167.133 140.555 166 139.961 164.973 139.961C163.945 139.961 162.918 140.449 162.324 141.473L162.215 140.23H160.918C160.918 140.719 161.027 141.258 161.027 141.852V147.313H162.324V143.852C162.324 141.742 163.566 140.824 164.648 140.824C165.785 140.824 166.379 141.637 166.379 143.688V147.363H167.785V143.902C167.785 141.363 169.297 140.875 170 140.875C171.406 140.875 171.836 141.902 171.836 143.738V147.414H173.133V143.258C173.133 140.934 171.891 140.016 170.215 140.016C168.812 139.961 167.785 140.988 167.512 141.691Z" fill="#161413"/>
<path d="M178.539 147.582C181.187 147.582 182.484 146.879 182.484 145.367C182.484 144.23 181.781 143.746 180.43 143.531L178.105 143.043C177.078 142.828 176.594 142.609 176.594 142.016C176.594 141.313 177.406 140.879 178.703 140.879C179.73 140.879 180.648 141.203 180.758 142.121H182.164C182.164 140.391 180.219 140.012 178.703 140.012C176.867 140.012 175.242 140.605 175.242 142.227C175.242 143.363 176.055 143.848 177.187 144.062L179.402 144.496C180.105 144.711 180.914 144.93 180.914 145.523C180.914 146.336 180.102 146.766 178.59 146.766C177.348 146.766 176.48 146.332 176.266 145.469H174.859C175.027 146.988 176.539 147.582 178.539 147.582Z" fill="#161413"/>
<path d="M128 147.422H123.73V137.477H128C131.836 137.477 133.566 139.207 133.566 142.449C133.566 145.582 131.512 147.422 128 147.422ZM127.566 138.449H125.242V146.285H127.781C131.242 146.285 132.051 144.449 132.051 142.449C132.055 139.801 131.137 138.449 127.566 138.449Z" fill="#161413"/>
<path d="M157.242 147.422H158.539C158.539 146.988 158.539 146.609 158.539 146.016V142.555C158.539 140.824 157.133 140.016 155.078 140.016C153.566 140.016 151.727 140.449 151.512 142.125H153.023C153.133 141.422 153.836 140.883 155.078 140.883C156.32 140.883 157.133 141.371 157.133 142.613V142.938H156.32C154.699 142.938 151.023 142.828 151.023 145.262C151.023 146.668 152.266 147.586 154.051 147.586C155.457 147.586 156.375 147.477 157.078 146.344L157.242 147.422ZM157.137 144.23C157.137 145.961 156.219 146.664 154.488 146.664C153.082 146.664 152.543 146.07 152.543 145.258C152.543 143.746 155.406 143.852 156.379 143.852H157.082V144.23H157.137Z" fill="#161413"/>
<path d="M157.137 128.934V125.906L160.273 125.582C161.301 125.367 161.68 124.445 161.895 124.285L169.516 111.797C170.109 110.879 169.516 109.961 168.703 109.852L164.758 109.473V106.336H182.109C183.137 106.336 183.73 107.039 184.164 107.633L194.328 123.199C195.141 124.441 195.734 125.414 196.762 125.523L200.004 125.848V128.984H180.383V125.957L182.816 125.633C184.059 125.523 185.031 124.93 184.059 123.523L183.141 122.117H169.25L168.113 123.738C167.52 124.766 168.113 125.469 169.141 125.574L171.68 125.898V128.926H157.137V128.934ZM171.676 117.961H180.488L176 111.043L171.676 117.961Z" fill="#E11428"/>
<path d="M144.109 106.285H121.785V109.422L124.543 109.637C125.68 109.852 126.055 110.555 126.055 111.582C126.055 112.609 126.055 122.934 126.055 123.746C126.055 124.664 125.621 125.477 124.758 125.582L121.84 126.016V128.934H144.164C154.543 128.934 158.977 123.961 158.977 117.258C158.973 111.312 154.488 106.285 144.109 106.285ZM140.703 124.555H134.918V110.664H140.703C146.27 110.664 148.539 111.906 148.539 117.691C148.488 123.313 146.27 124.555 140.703 124.555Z" fill="#E11428"/>
<path d="M0 128.934H18.1641V125.906L15.0273 125.582C14.3242 125.473 13.6211 125.094 13.6211 123.527V119.852H27.6211V123.312C27.6211 124.34 27.4063 125.367 26.2148 125.422L23.0781 125.746V128.883H41.2422V125.746L38 125.422C37.4062 125.313 36.7031 124.828 36.7031 123.586V111.852C36.7031 110.609 37.1367 109.797 38.1094 109.742L41.2461 109.418V106.281H23.082V109.309L26.2188 109.687C27.3555 109.797 27.625 110.715 27.625 111.797V115.258H13.6211V111.691C13.6211 110.395 14.2148 109.746 15.1328 109.637L18.1602 109.312V106.176H0.109375V109.312L3.13672 109.637C4.27344 109.746 4.64844 110.664 4.54297 111.746V123.207C4.54297 124.504 4.21875 125.316 3.03125 125.422L0 125.746V128.934Z" fill="#E11428"/>
<path d="M42.0547 117.527C42.0547 110.391 47.8398 105.418 60.6484 105.418C73.3516 105.418 79.1367 110.391 79.1367 117.527C79.1367 124.715 73.3516 129.691 60.6484 129.691C47.8359 129.746 42.0547 124.773 42.0547 117.527ZM60.6484 109.691C55.4609 109.691 52.5391 111.637 52.5391 117.527C52.5391 123.527 55.5117 125.473 60.6484 125.473C65.7305 125.473 68.6484 123.527 68.6484 117.527C68.6484 111.637 65.7305 109.691 60.6484 109.691Z" fill="#E11428"/>
<path d="M80.1641 128.934H94.5977V125.906L91.5703 125.582C90.6523 125.473 90.1641 124.77 90.1641 123.637V112.176L102.164 128.012C102.543 128.605 103.406 128.93 104.109 128.93H115.461V111.742C115.461 110.93 115.676 109.797 116.758 109.687L119.895 109.363V106.227H105.461V109.254L108.598 109.633C109.734 109.742 109.895 110.77 109.895 111.742V122.93L98 107.203C97.5117 106.609 96.8633 106.176 96.0547 106.176H80.1094V109.312L83.0273 109.637C84.1641 109.852 84.5391 110.34 84.5391 111.746V123.207C84.5391 124.613 84.1055 125.262 83.0273 125.422L80.1094 125.746V128.934H80.1641Z" fill="#E11428"/>
<path fill-rule="evenodd" clip-rule="evenodd" d="M154.758 37.3672C155.027 29.6914 155.027 27.9062 154.164 21.6914C154.164 21.6914 153.73 9.31247 143.785 5.15231C143.57 5.04294 143.352 4.98825 143.137 4.88278C141.301 4.07028 139.301 3.47653 137.301 3.04684L137.137 2.99216C136.973 2.93747 136.867 2.93747 136.703 2.88278H136.648C123.621 0.179657 103.785 0.343719 99.8359 0.343719C95.8359 0.343719 74.6992 0.289031 62.1602 3.04684C60.6484 3.37106 59.1328 3.85934 57.8359 4.34372C57.7266 4.39841 57.6719 4.39841 57.5664 4.45309C56.9727 4.66794 56.4297 4.88669 55.9453 5.10153C45.5664 9.69528 45.5117 21.5898 45.5117 21.5898C45.1875 23.6992 44.8086 26.832 44.8086 31.914V31.9687C44.8086 32.457 44.918 32.9961 44.918 33.5898C44.918 35.9687 45.0273 38.3476 45.1328 40.7773C45.1328 41.2109 45.1875 41.6953 45.2422 42.1836C45.8906 56.6718 47.2969 72.9414 53.0273 80.3984C58.2148 87.1562 68.6484 88.4531 82.4883 88.9375C88.2734 89.2617 94.1094 89.4765 99.8945 89.4765C105.191 89.4765 110.434 89.2617 115.73 88.9883C124.918 88.7187 132.434 88.1758 138.434 85.9062C138.598 85.8515 138.703 85.7968 138.867 85.7422L138.977 85.6875C139.301 85.5234 139.625 85.4179 139.949 85.2539C141.301 84.6601 142.598 83.9023 143.734 83.039C144.816 82.2812 145.789 81.3632 146.707 80.3906C152.273 74.2812 154.004 56.6601 154.492 42.1757C154.492 41.9062 154.492 41.582 154.547 41.3125C154.703 40.0156 154.758 38.7187 154.758 37.3672ZM140.324 77.8515C139.027 78.9336 135.406 81.1484 132.434 82.1211C130.922 82.5 129.676 82.6093 129.191 82.5L129.082 82.4453H129.027C128.918 82.3906 128.863 82.3906 128.813 82.3359C128.543 82.1211 128.324 81.7968 128.273 81.3086C128.543 79.0937 129.895 68.6601 131.41 50.1211C133.52 23.6328 133.574 9.36325 133.574 8.33591C133.738 8.06638 134.062 7.84763 134.492 7.84763C135.734 8.22653 136.98 8.55075 138.223 9.03513C139.305 9.46872 140.438 9.95309 141.465 10.6015C142.004 10.9257 142.492 11.3593 142.977 11.789C143.086 11.8984 143.191 12.0039 143.301 12.1132L143.355 12.1679C143.57 12.4375 143.789 12.707 144.004 12.9258C148.168 18.6015 147.68 27.0351 147.789 33.7382C147.898 42.332 147.52 51.0351 146.328 59.5234C146.273 59.8476 146.219 60.1718 146.219 60.4961C146.164 60.7109 146.164 60.9843 146.109 61.1992C145.945 62.0117 145.84 62.7109 145.676 63.3086C145.621 63.6875 145.406 64.8203 145.188 66.0117C144.16 70.6054 143.242 73.5781 143.023 74.2265C142.754 74.7148 142.484 75.2539 142.211 75.6875C141.512 76.5547 140.863 77.2578 140.324 77.8515ZM62.3789 79.7461C60.8672 78.8828 59.6758 78.0156 59.2969 77.582C58.3789 76.6094 57.6211 75.4726 57.0273 74.2304C56.8125 73.6914 55.8906 70.664 54.8125 66.0156C54.5977 64.8281 54.3789 63.6914 54.3242 63.3125C54.2148 62.7187 54.0547 61.9609 53.8906 61.1484C53.8906 60.9336 53.8359 60.7695 53.8359 60.5547C53.7813 60.1758 53.7266 59.8515 53.6719 59.5273C52.4844 51.039 52.1055 42.3398 52.2109 33.7422C52.2656 27.0937 51.7773 18.6054 55.9961 12.9297C56.2109 12.6601 56.4297 12.4414 56.5898 12.1718L56.6992 12.0625C56.8086 11.9531 56.8633 11.8476 56.9687 11.7382C57.457 11.3047 57.9414 10.875 58.4805 10.5507C59.5078 9.90231 60.6445 9.41403 61.7227 8.98434C62.9648 8.55075 64.2109 8.17184 65.4531 7.84763C67.2383 7.90231 66.5352 10.7656 66.6406 11.9023C66.75 18.7148 67.1289 25.5234 67.3984 32.2812C68.3711 48.4961 69.5625 64.6054 71.668 80.7148C71.7773 81.9023 71.2891 82.4453 70.4258 82.6054C69.082 82.3945 65.2422 81.1484 62.3789 79.7461ZM88.3789 47.9609C86.2148 44.664 84.4336 38.8789 83.082 34.1758C81.6211 28.8242 80.0547 22.6093 78.543 16.7148C77.4609 12.5 76.4883 8.55075 76.0547 6.92966C76.1094 6.76559 76.2187 6.66012 76.4336 6.60544C76.5977 6.55075 76.8125 6.49606 77.1367 6.49606C77.6758 6.44138 78.3789 6.38669 79.4062 6.22653C79.6211 6.17184 79.8945 6.17184 80.1094 6.11716C81.4063 6.00778 83.082 5.90231 85.2969 5.84762C93.7305 5.57809 99.6211 5.5234 99.9453 5.5234C100.27 5.5234 106.109 5.57809 114.594 5.84762C116.809 5.90231 118.539 6.01169 119.781 6.11716C120.051 6.17184 120.27 6.17184 120.484 6.22653C121.512 6.33591 122.215 6.39059 122.754 6.49606C123.078 6.55075 123.293 6.60544 123.457 6.60544C123.672 6.66012 123.781 6.7695 123.836 6.92966V6.98434C123.457 8.60544 122.484 12.4453 121.457 16.4961C119.891 22.4961 118.32 28.875 116.809 34.332C115.457 39.0351 113.672 44.7109 111.566 47.9531C110.055 50.0625 108 51.6289 105.242 52.2773C103.836 52.4922 102.105 52.5468 100 52.5468C97.8906 52.5468 96.1641 52.4922 94.7578 52.2773C92 51.6289 90 50.1133 88.4883 48.0078L88.3789 47.9609ZM115.945 82.8789C115.945 82.9336 116 83.0937 116 83.2578C116 83.3672 115.945 83.4218 115.945 83.4726C115.73 83.6367 115.352 83.7422 115.082 83.7968C114.379 83.8515 112.594 83.9609 108.648 84.0664C108.434 84.0664 108.215 84.0664 108 84.0664C105.297 84.1211 102.594 84.1211 99.8906 84.1211C97.1875 84.1211 94.4844 84.1211 91.7813 84.0664C91.5664 84.0664 91.3477 84.0664 91.1328 84.0664C87.1875 83.957 85.457 83.8515 84.6992 83.7968C84.4297 83.7422 84.0508 83.6328 83.8359 83.4726C83.7812 83.4179 83.7812 83.3633 83.7812 83.2578C83.7812 83.0937 83.8359 82.9336 83.8359 82.8789C83.9453 82.5547 84 82.2304 84.1055 81.9062C84.918 79.2031 87.0234 72.4453 87.0234 72.4453C87.0781 72.3359 87.0781 72.2304 87.1328 72.1211C87.4023 71.3086 87.7266 70.5 88.1055 69.582C88.8633 67.6914 90.1602 66.3398 91.1875 65.6367C91.7813 65.2578 92.4297 64.9883 93.0781 64.7734C93.457 64.7187 93.8359 64.6093 94.2148 64.5586C94.918 64.3945 95.6211 64.289 96.3789 64.2343C97.4062 64.1797 98.4883 64.125 99.7852 64.125C101.082 64.125 102.164 64.125 103.191 64.2343C103.949 64.3437 104.703 64.4492 105.355 64.5586C105.789 64.6679 106.168 64.7226 106.492 64.7734C107.195 64.9883 107.844 65.2617 108.383 65.6367C109.465 66.3398 110.707 67.6914 111.465 69.582C111.844 70.5 112.168 71.3672 112.438 72.1211C112.492 72.2304 112.492 72.3359 112.547 72.4453C112.547 72.4453 114.656 79.3086 115.465 81.957C115.785 82.2851 115.891 82.6094 115.945 82.8789Z" fill="#B3B3B3"/>
</svg>
