<svg width="200" height="200" viewBox="0 0 200 200" fill="none" xmlns="http://www.w3.org/2000/svg">
<path d="M193.098 79.2891C191.289 78.7969 189.207 78.4687 184.879 77.9727C166.852 77.1523 122.578 75.4531 100.004 75.4531C77.4297 75.4531 33.1016 77.1523 15.1289 77.9727C10.8555 78.4648 8.71875 78.793 6.91016 79.2891C1.20703 80.6016 0 82.5742 0 86.6836V114.41C0 118.41 4.27344 121.203 7.28906 121.699C10.3047 122.301 12.1641 122.52 15.2891 122.797C31.2891 123.781 68.6055 125.922 100 125.922C131.395 125.922 168.602 123.84 184.711 122.797C187.836 122.523 189.695 122.305 192.711 121.699C195.727 121.207 200 118.41 200 114.41V86.6836C200 82.5742 198.793 80.6016 193.098 79.2891Z" fill="url(#paint0_linear_8_6398)"/>
<path d="M28 80.3828C36.8203 49.6992 65.8086 27.1797 100.273 27.1797C134.574 27.1797 163.562 49.5898 172.492 80.1641C172.492 80.2734 172.492 80.3828 172.602 80.4375C177.699 79.8359 182.301 78.957 185.477 78.1367C185.367 77.918 185.367 77.918 185.367 77.7539C175.285 41.1523 140.984 14.3555 100.27 14.3555C59.4492 14.3555 25.0898 41.3711 15.0625 77.9727C19.6172 79.1797 22.9023 79.7266 28 80.3828Z" fill="url(#paint1_radial_8_6398)"/>
<path d="M172.273 120.602C172.164 120.875 172.055 121.203 172.055 121.313C162.629 151.234 134.082 172.93 100.273 172.93C66.1914 172.93 37.4805 150.957 28.2734 120.656C22.6836 121.641 20.7656 122.082 15.2891 122.738C25.5898 159.012 59.6719 185.641 100.273 185.641C140.875 185.641 175.066 158.957 185.258 122.625C180.383 122.082 177.59 121.59 172.273 120.602Z" fill="url(#paint2_radial_8_6398)"/>
<path d="M29.918 80.2734C32 79.3984 34.1367 77.9727 37.3164 77.0937C46.9063 52.2734 71.5078 34.5742 100.441 34.5742C129.262 34.5742 153.867 52.1641 163.457 76.875C163.457 76.9844 163.566 77.0937 163.566 77.0937C165.266 77.6953 170.086 79.6133 171.566 80.2734C171.785 80.2734 172.277 80.2734 172.664 80.2734C172.664 80.1641 172.555 80.0547 172.555 80C163.672 49.4258 134.629 27.0156 100.328 27.0156C65.918 27.0156 36.9297 49.5352 28.0547 80.2227C28.6016 80.3828 29.4805 80.2734 29.918 80.2734Z" fill="url(#paint3_radial_8_6398)"/>
<path d="M99.7813 29.207C132 29.207 160.602 48.3867 171.398 80.1094C171.398 80.2187 171.508 80.3281 171.508 80.3828C171.727 80.3828 172.328 80.3828 172.605 80.3828C172.605 80.2734 172.496 80.1641 172.496 80.1094C163.617 49.5352 134.574 27.125 100.273 27.125C65.8633 27.125 36.875 49.6445 28 80.332C28.7109 80.332 28.9844 80.332 29.8086 80.2227C39.5078 50.1914 67.7813 29.207 99.7813 29.207Z" fill="white"/>
<path d="M170.52 120.711C168.219 122.027 165.313 123.23 163.012 124C163.012 124.109 162.793 124.383 162.793 124.492C152.82 148.492 128.602 165.477 100.273 165.477C71.7813 165.477 47.4531 148.27 37.5898 124.051C34.9063 123.34 31.0156 121.531 29.4805 120.762C28.8789 120.762 28.6055 120.762 28.2734 120.652C37.4805 150.848 66.1914 172.93 100.273 172.93C134.191 172.93 162.848 151.121 172.055 121.148C172.055 121.039 172.164 120.766 172.164 120.766C171.781 120.602 170.902 120.711 170.52 120.711Z" fill="url(#paint4_radial_8_6398)"/>
<path d="M191.508 81.3164C186.688 80.7148 183.508 80.8242 171.891 80.4414C171.398 80.4414 170.793 80.4414 170.301 80.332C149.316 79.6211 117.809 78.6328 100 78.6328C82.1914 78.6328 50.5742 79.6172 29.6992 80.332C29.207 80.332 28.6016 80.332 28.1094 80.4414C16.4922 80.8242 13.3164 80.7148 8.49219 81.3164C3.67187 81.918 0 83.8906 0 87.5078V113.207C0 116.715 4.49219 119.617 8.49219 119.617C8.49219 119.617 59.1758 122.742 100 122.797C140.82 122.797 191.508 119.617 191.508 119.617C195.508 119.617 200 116.715 200 113.207V87.5078C200 83.8906 196.273 81.918 191.508 81.3164Z" fill="url(#paint5_radial_8_6398)"/>
<path d="M170.52 120.711C160.492 150.191 132.492 170.793 100.93 170.793C68.9297 170.793 40.6562 151.891 29.6406 120.711C29.2578 120.711 28.8203 120.711 28.4336 120.602C37.6406 150.793 66.3516 172.875 100.434 172.875C134.516 172.875 163.227 150.793 172.434 120.602C171.727 120.602 171.125 120.711 170.52 120.711Z" fill="white"/>
<path d="M170.52 120.711C168.109 122.027 165.203 123.23 162.902 124C162.902 124.109 162.684 124.383 162.684 124.492C159.504 132.109 154.957 139.012 149.258 144.875C158.301 138.301 165.48 130.082 170.52 120.711Z" fill="#8C8C8C"/>
<path d="M53.207 146.684C46.5234 140.273 41.207 132.602 37.6992 124C35.0156 123.289 31.125 121.48 29.5898 120.711C31.1797 124.109 33.0977 127.23 35.1797 130.191C39.5625 135.891 44.9883 141.094 50.9609 145.371C51.7266 145.809 52.4922 146.301 53.207 146.684Z" fill="#4D4D4D"/>
<path d="M28.2734 120.602C22.6836 121.586 20.7656 122.027 15.2891 122.684C15.6719 124.273 16.1641 125.809 16.7695 127.395L28.2734 120.602Z" fill="#252525"/>
<path d="M140.602 92.6016C138.902 88.875 139.504 89.3125 135.891 89.2031C135.617 89.0937 134.793 89.0937 133.699 89.0937C132.602 89.0937 132.383 89.0937 131.508 89.2031C128.109 89.2031 128.715 88.9844 127.508 91.5039C127.508 91.5039 121.59 104.711 119.125 110.187L119.016 110.406C118.523 111.391 118.797 111.391 119.617 111.391H124.934C125.316 111.391 125.535 111.172 125.645 111.008C125.645 111.008 126.465 109.309 127.453 107.008H140.328C141.312 109.309 142.027 110.898 142.027 111.008C142.137 111.281 142.41 111.391 142.738 111.391H148.219C149.039 111.391 149.203 111.5 148.93 110.789C147.891 108.383 141.48 94.6836 140.602 92.6016ZM129.426 102.301C131.125 98.4102 132.715 94.5742 132.715 94.5195C132.824 94.3008 132.988 94.2461 133.316 94.2461C133.426 94.1367 133.699 94.1367 134.027 94.1367C134.246 94.1367 134.52 94.1367 134.629 94.2461C134.848 94.2461 135.012 94.3555 135.121 94.6289C135.504 95.7266 137.039 99.0117 138.301 102.355H129.426V102.301ZM58.6836 88.875C59.1758 88.875 59.2852 89.0937 59.2852 89.4766V110.461C59.2852 110.953 59.1758 111.172 58.5742 111.172H53.4766C52.875 111.172 52.7656 111.062 52.7656 110.461V89.4766C52.7656 89.0937 52.875 88.875 53.2578 88.875H58.6836ZM47.7812 89.0977C48.3828 89.0977 48.4922 89.3164 48.4922 89.8086V110.684C48.4922 111.285 48.3828 111.395 47.7812 111.395H41.8086C38.3008 111.395 38.0273 111.395 36.8242 109.422C34.4141 105.641 27.0156 94.2969 27.0156 94.2969V110.68C27.0156 111.281 26.9062 111.391 26.3047 111.391H21.918C21.3164 111.391 21.207 111.281 21.207 110.68V89.8047C21.207 89.3125 21.3164 89.0937 21.918 89.0937C21.918 89.0937 23.125 89.0937 27.0156 89.0937C30.7969 89.0937 31.2891 88.9844 32.7148 91.0117C33.8125 92.8203 42.7422 106.52 42.7422 106.52V89.8086C42.7422 89.3164 42.8516 89.0977 43.4531 89.0977H47.7812ZM178.793 89.0977C179.395 89.0977 179.504 89.3164 179.504 89.8086V110.684C179.504 111.285 179.395 111.395 178.793 111.395H172.766C169.258 111.395 168.984 111.395 167.781 109.422C165.262 105.641 157.973 94.2969 157.973 94.2969V110.68C157.973 111.281 157.863 111.391 157.262 111.391H152.879C152.277 111.391 152.168 111.281 152.168 110.68V89.8047C152.168 89.3125 152.277 89.0937 152.879 89.0937C152.879 89.0937 154.086 89.0937 157.977 89.0937C161.758 89.0937 162.25 88.9844 163.676 91.0117C164.883 92.8203 173.703 106.52 173.703 106.52V89.8086C173.703 89.3164 173.812 89.0977 174.414 89.0977H178.793ZM81.207 97.5898C85.0977 97.9727 88 98.6875 88.8242 102.41C88.8242 102.684 88.9336 103.727 88.9336 104.82C88.9336 105.531 88.9336 106.41 88.7148 107.23C88.0039 110.738 85.4258 111.449 81.207 111.449H64.7148C64.1133 111.449 64.0039 111.34 64.0039 110.738V107.23C64.0039 106.629 64.1133 106.52 64.7148 106.52C64.7148 106.52 81.0977 106.52 81.4258 106.52C82.1367 106.52 82.3008 106.301 82.4102 105.809C82.4102 105.426 82.4102 105.207 82.4102 104.934C82.4102 104.66 82.4102 104.441 82.4102 104.332C82.3008 103.949 82.1914 103.348 81.3125 103.234C79.3945 103.125 73.9141 102.633 70.1875 102.25C65.3672 101.758 64.2148 99.7305 63.9961 97.9766C63.8867 97.375 63.8867 96.5508 63.8867 95.8945C63.8867 95.293 63.8867 94.4141 63.9961 93.7031C64.707 90.5781 67.0117 89.1016 71.1758 89.1016H87.1758C87.7773 89.1016 87.9961 89.2109 87.9961 89.7031V93.3203C87.9961 93.8125 87.7773 94.0312 87.1758 93.9219C87.1758 93.9219 71.8867 93.9219 71.4492 93.9219C70.7383 93.9219 70.4648 94.1953 70.3516 94.9063C70.3516 95.0156 70.3516 95.125 70.3516 95.2891C70.3516 95.5078 70.3516 95.5625 70.3516 95.7812C70.3516 96.2734 70.625 96.6562 71.3359 96.7656C73.207 96.9844 79.0156 97.4258 81.207 97.5898ZM109.48 97.5898C113.371 97.9727 116.273 98.6875 117.098 102.41C117.098 102.684 117.207 103.727 117.207 104.82C117.207 105.531 117.207 106.41 116.988 107.23C116.277 110.738 113.699 111.449 109.48 111.449H93.0977C92.4961 111.449 92.3867 111.34 92.3867 110.738V107.23C92.3867 106.629 92.4961 106.52 93.0977 106.52C93.0977 106.52 109.48 106.52 109.809 106.52C110.52 106.52 110.684 106.301 110.793 105.809C110.793 105.426 110.793 105.207 110.793 104.934C110.793 104.66 110.793 104.441 110.793 104.332C110.684 103.949 110.52 103.348 109.695 103.234C107.777 103.125 102.297 102.633 98.5703 102.25C93.75 101.758 92.6523 99.7305 92.3789 97.9766C92.2695 97.375 92.2695 96.5508 92.2695 95.8945C92.2695 95.293 92.2695 94.4141 92.3789 93.7031C93.0898 90.5781 95.3945 89.1016 99.5586 89.1016H115.559C116.16 89.1016 116.379 89.2109 116.379 89.7031V93.3203C116.379 93.8125 116.16 94.0312 115.559 93.9219C115.559 93.9219 100.27 93.9219 99.832 93.9219C99.1211 93.9219 98.8477 94.1953 98.7344 94.9063C98.7344 95.0156 98.7344 95.125 98.7344 95.2891C98.7344 95.5078 98.7344 95.5625 98.7344 95.7812C98.7344 96.2734 98.9531 96.6562 99.7187 96.7656C101.59 96.9844 107.398 97.4258 109.48 97.5898Z" fill="url(#paint6_radial_8_6398)"/>
<defs>
<linearGradient id="paint0_linear_8_6398" x1="100" y1="16.8977" x2="99.9999" y2="156.299" gradientUnits="userSpaceOnUse">
<stop offset="0.1944" stop-color="white"/>
<stop offset="0.2085" stop-color="#F8F8F8"/>
<stop offset="0.3657" stop-color="#AEAEAE"/>
<stop offset="0.5133" stop-color="#707070"/>
<stop offset="0.6468" stop-color="#404040"/>
<stop offset="0.7637" stop-color="#1D1D1D"/>
<stop offset="0.8595" stop-color="#080808"/>
<stop offset="0.9222"/>
</linearGradient>
<radialGradient id="paint1_radial_8_6398" cx="0" cy="0" r="1" gradientUnits="userSpaceOnUse" gradientTransform="translate(43.8561 -20.0569) scale(139.462 139.462)">
<stop offset="0.2022" stop-color="white"/>
<stop offset="0.3822" stop-color="#FDFDFD"/>
<stop offset="0.4874" stop-color="#F4F4F4"/>
<stop offset="0.5732" stop-color="#E6E6E6"/>
<stop offset="0.6483" stop-color="#D2D2D2"/>
<stop offset="0.6889" stop-color="#C4C4C4"/>
<stop offset="1" stop-color="#333333"/>
</radialGradient>
<radialGradient id="paint2_radial_8_6398" cx="0" cy="0" r="1" gradientUnits="userSpaceOnUse" gradientTransform="translate(381.368 203.325) scale(290.451 290.451)">
<stop offset="0.2022" stop-color="white"/>
<stop offset="0.368" stop-color="#E4E4E4"/>
<stop offset="0.5944" stop-color="#C4C4C4"/>
<stop offset="1" stop-color="#333333"/>
</radialGradient>
<radialGradient id="paint3_radial_8_6398" cx="0" cy="0" r="1" gradientUnits="userSpaceOnUse" gradientTransform="translate(77.3551 139.229) scale(89.1694 89.1694)">
<stop offset="0.2022" stop-color="white"/>
<stop offset="0.368" stop-color="#E4E4E4"/>
<stop offset="0.5944" stop-color="#C4C4C4"/>
<stop offset="1" stop-color="#333333"/>
</radialGradient>
<radialGradient id="paint4_radial_8_6398" cx="0" cy="0" r="1" gradientUnits="userSpaceOnUse" gradientTransform="translate(149.312 230.408) scale(169.193 169.193)">
<stop offset="0.2022" stop-color="white"/>
<stop offset="0.368" stop-color="#E4E4E4"/>
<stop offset="0.5944" stop-color="#C4C4C4"/>
<stop offset="1" stop-color="#333333"/>
</radialGradient>
<radialGradient id="paint5_radial_8_6398" cx="0" cy="0" r="1" gradientUnits="userSpaceOnUse" gradientTransform="translate(98.6598 32.0125) scale(134.452 134.452)">
<stop offset="0.2022" stop-color="white"/>
<stop offset="0.3966" stop-color="#FDFDFD"/>
<stop offset="0.5101" stop-color="#F4F4F4"/>
<stop offset="0.6029" stop-color="#E6E6E6"/>
<stop offset="0.6839" stop-color="#D2D2D2"/>
<stop offset="0.7278" stop-color="#C4C4C4"/>
<stop offset="1" stop-color="#4D4D4D"/>
</radialGradient>
<radialGradient id="paint6_radial_8_6398" cx="0" cy="0" r="1" gradientUnits="userSpaceOnUse" gradientTransform="translate(101.775 45.4784) scale(90.5596 90.5596)">
<stop offset="0.1111" stop-color="#4D4D4D"/>
<stop offset="0.248" stop-color="#494949"/>
<stop offset="0.3546" stop-color="#404040"/>
<stop offset="0.451" stop-color="#2F2F2F"/>
<stop offset="0.5409" stop-color="#181818"/>
<stop offset="0.6111"/>
</radialGradient>
</defs>
</svg>
