<svg width="200" height="165" viewBox="0 0 200 165" fill="none" xmlns="http://www.w3.org/2000/svg">
<path d="M12.6285 57.1715C12.6285 88.3715 51.8285 113.743 100 113.743C148.171 113.743 187.371 88.3715 187.371 57.1715C187.371 25.9715 148.171 0.600098 100 0.600098C51.8285 0.600098 12.6285 25.9715 12.6285 57.1715ZM13.4857 57.1715C13.4857 26.4858 52.2857 1.45724 100 1.45724C147.714 1.45724 186.514 26.4287 186.514 57.1715C186.514 87.8572 147.714 112.886 100 112.886C52.2857 112.886 13.4857 87.9144 13.4857 57.1715Z" fill="#808184"/>
<path d="M91.7143 11.0571C71.7143 12.3143 56.6857 17.9143 54.2857 24.9429C54.0572 25.6286 53.9429 26.3143 53.9429 27C53.9429 28.0857 54.2286 29.1714 54.8572 30.2571C57.6 35.1143 66.2286 39.1143 78.6286 41.3429L79.0286 41.4L79.0857 40.9429C81.2 27.5143 85.8857 16.8857 91.9429 11.8571L92.9714 11L91.7143 11.0571ZM55.6 29.8C55.0857 28.8857 54.8 27.9143 54.8 27C54.8 26.4286 54.9143 25.8571 55.0857 25.2857C57.3143 18.8286 71.8286 13.4571 90.5714 12.0857C84.8572 17.4571 80.4572 27.6286 78.4 40.4286C66.6286 38.2571 58.1143 34.3143 55.6 29.8Z" fill="#808184"/>
<path d="M88.8001 42.1429L88.7429 42.6L89.2001 42.6572C92.7429 42.9429 96.3429 43.0572 100 43.0572C103.657 43.0572 107.314 42.9429 110.8 42.6572L111.257 42.6L111.2 42.1429C109.257 30.8857 104.971 23.9143 100 23.9143C95.0286 23.9143 90.7429 30.8857 88.8001 42.1429ZM100 24.7714C104.457 24.7714 108.4 31.2857 110.286 41.8C106.914 42.0286 103.486 42.2 100 42.2C96.5143 42.2 93.0858 42.0857 89.7143 41.8C91.6001 31.2857 95.5429 24.7714 100 24.7714Z" fill="#808184"/>
<path d="M108 11.8571C114.057 16.9429 118.743 27.5143 120.857 40.9429L120.914 41.4L121.314 41.3429C133.714 39.1714 142.4 35.1143 145.086 30.2571C146.057 28.5429 146.229 26.7714 145.657 24.9429C143.257 17.9143 128.229 12.3143 108.229 11.0571L106.914 11L108 11.8571ZM109.429 12.0286C128.171 13.4 142.686 18.7714 144.914 25.2286C145.086 25.8 145.2 26.3714 145.2 26.9429C145.2 27.9143 144.914 28.8286 144.4 29.7429C141.886 34.2571 133.371 38.1429 121.6 40.3143C119.543 27.6286 115.143 17.4571 109.429 12.0286Z" fill="#808184"/>
<path d="M40.9143 30.943C31.8286 38.8287 27.0286 48.2001 27.0286 58.0287C27.0286 81.2858 54.5143 101 90.9714 103.857L92.2857 103.972L91.3143 103.114C83.0286 95.743 77.8857 78.3144 77.8857 57.743L77.9428 53.743L77.6 53.6858C57.4857 49.9144 43.7143 41.343 41.6571 31.2858L41.4857 30.543L40.9143 30.943ZM27.9428 58.0287C27.9428 48.6573 32.4571 39.6858 41.0286 32.0858C43.6571 42.143 57.3143 50.6573 77.1429 54.4287C77.1429 55.0573 77.0857 57.743 77.0857 57.743C77.0857 77.8001 82 94.8858 89.8857 102.886C54.4571 99.6858 27.9428 80.6001 27.9428 58.0287Z" fill="#808184"/>
<path d="M87.7142 55.5145V56.0288C87.7142 74.086 93.1428 88.2002 99.9999 88.2002C106.914 88.2002 112.286 74.086 112.286 56.0288V55.0574L111.829 55.1145C107.943 55.4574 104 55.6288 99.9999 55.6288C95.9999 55.6288 91.9999 55.4574 88.1714 55.1145L87.7142 55.0574V55.5145ZM88.5714 55.9717C92.2857 56.2574 96.1714 56.4288 99.9999 56.4288C103.886 56.4288 107.714 56.2574 111.429 55.9145V55.9717C111.429 73.5145 106.4 87.2859 99.9999 87.2859C93.5999 87.2859 88.5714 73.5717 88.5714 55.9717Z" fill="#808184"/>
<path d="M158.4 31.1716C156.343 41.2287 142.514 49.8573 122.457 53.5716L122.114 53.6287L122.171 57.6287C122.171 78.2573 117.029 95.6287 108.743 103L107.771 103.857L109.086 103.743C145.543 100.886 173.029 81.2287 173.029 57.9144C173.029 48.0859 168.229 38.7144 159.143 30.8287L158.629 30.3716L158.4 31.1716ZM159.029 32.0859C167.543 39.743 172.114 48.6573 172.114 58.0287C172.114 80.6002 145.543 99.6859 110.171 102.829C118.114 94.8287 122.971 77.743 122.971 57.6859C122.971 57.6859 122.914 55.0002 122.914 54.3716C142.686 50.6002 156.4 42.143 159.029 32.0859Z" fill="#808184"/>
<path d="M158.4 23.6858C158.514 24.0287 158.629 24.4287 158.743 24.7715C159.257 26.8858 159.143 28.943 158.514 31.0001C167.314 38.543 172.514 47.9144 172.514 58.0287C172.514 83.2858 140.057 103.743 100 103.743C59.9429 103.743 27.4858 83.2858 27.4858 58.0287C27.4858 47.9144 32.6858 38.6001 41.4858 31.0001C40.8 29.0001 40.7429 26.8858 41.2572 24.7715C41.3715 24.3715 41.4858 24.0287 41.6572 23.6287C29.6572 32.5429 22.3429 44.2572 22.3429 57.0572C22.3429 85.0001 57.0858 107.686 100 107.686C142.857 107.686 177.657 85.0001 177.657 57.0572C177.657 44.2572 170.4 32.6001 158.4 23.6858Z" fill="url(#paint0_linear_8_6367)"/>
<path d="M89.2 42.2L86.9714 43.9142C88.8 29.4 93.9429 20.1428 100 20.1428C106.057 20.1428 111.2 29.4 113.029 43.9142L110.8 42.2C108.914 31.2285 104.8 24.3143 100 24.3143C95.2 24.3143 91.0857 31.2285 89.2 42.2Z" fill="url(#paint1_linear_8_6367)"/>
<path d="M113.714 52.0859L111.886 55.5145C111.886 55.6859 111.886 55.8574 111.886 56.0288C111.886 74.0859 106.571 87.8002 99.9999 87.8002C93.4285 87.8002 88.1142 74.1431 88.1142 56.0288C88.1142 55.8574 88.1142 55.6288 88.1142 55.4574L86.2857 52.1431C86.2285 53.4002 86.2285 54.7145 86.2285 56.0859C86.2285 76.5431 92.3999 92.0288 99.9999 92.0288C107.6 92.0288 113.771 76.5431 113.771 56.0859C113.771 54.6574 113.714 53.3431 113.714 52.0859Z" fill="url(#paint2_linear_8_6367)"/>
<path d="M110.8 42.2002C107.371 42.4859 103.771 42.6002 100 42.6002C96.2286 42.6002 92.6286 42.4288 89.2 42.2002L86.9715 43.9145C91.0857 44.3145 95.4286 44.4859 100 44.4859C104.571 44.4859 108.914 44.2573 113.029 43.9145L110.8 42.2002ZM150.457 24.4859C147.714 15.1145 125.257 8.2002 100 8.2002C74.7429 8.2002 52.2857 15.1145 49.5429 24.4859C47.2 32.6002 60.1143 40.1431 80.4572 43.1716L78.6857 40.943C62.2286 38.0288 52.4 31.8002 54.6857 25.1716C57.4286 17.1145 77.3143 11.2859 100 11.2859C122.686 11.2859 142.571 17.1145 145.314 25.1716C147.6 31.8002 137.771 38.0288 121.314 40.943L119.543 43.1716C139.886 40.1431 152.8 32.6002 150.457 24.4859Z" fill="url(#paint3_linear_8_6367)"/>
<path d="M158.514 31.0001C161.886 33.9143 164.743 37.0572 166.972 40.4286C166.172 34.9429 164.114 29.9715 161.029 25.7429C160.172 25.0572 159.314 24.3715 158.457 23.7429C158.572 24.0858 158.686 24.4858 158.8 24.8286C159.257 26.8858 159.143 29.0001 158.514 31.0001Z" fill="#404041"/>
<path d="M41.4857 31.0001C40.8 29.0001 40.7428 26.8858 41.2571 24.7715C41.3714 24.3715 41.4857 24.0287 41.6571 23.6287C40.7428 24.3144 39.8286 25.0001 38.9714 25.743C35.9428 29.9715 33.8286 35.0001 33.0286 40.4287C35.3143 37.0572 38.1143 33.9144 41.4857 31.0001Z" fill="#404041"/>
<path d="M13.0286 57.1717C13.0286 26.1431 51.9429 1.05737 100 1.05737C148 1.05737 186.971 26.2002 186.971 57.1717C186.971 88.2002 148.057 113.286 100 113.286C52 113.343 13.0286 88.2002 13.0286 57.1717ZM100 107.686C142.857 107.686 177.657 85.0002 177.657 57.0574C177.657 29.1145 142.914 6.4288 100 6.4288C57.0857 6.4288 22.3428 29.1145 22.3428 57.0574C22.3428 85.0002 57.0857 107.686 100 107.686Z" fill="url(#paint4_linear_8_6367)"/>
<path d="M21.8285 57.0572C21.8285 85.2857 56.9142 108.2 99.9999 108.2C143.086 108.2 178.171 85.2286 178.171 57.0572C178.171 28.8857 143.086 5.91431 99.9999 5.91431C56.9142 5.91431 21.8285 28.8286 21.8285 57.0572ZM22.8571 57.0572C22.8571 29.4572 57.4856 6.94288 99.9999 6.94288C142.514 6.94288 177.143 29.4 177.143 57.0572C177.143 84.6572 142.514 107.171 99.9999 107.171C57.4856 107.171 22.8571 84.6572 22.8571 57.0572Z" fill="white"/>
<path d="M79.6 57.6859C79.6 30.6573 88.7428 8.2002 100 8.2002C111.257 8.2002 120.4 30.6573 120.4 57.6859C120.4 85.0002 111.257 107.172 100 107.172C88.7428 107.172 79.6 85.0002 79.6 57.6859ZM100 91.9716C107.6 91.9716 113.771 76.4859 113.771 56.0288C113.771 34.7716 107.6 20.1431 100 20.1431C92.4 20.1431 86.2285 34.7716 86.2285 56.0288C86.2285 76.4288 92.4 91.9716 100 91.9716Z" fill="url(#paint5_linear_8_6367)"/>
<path d="M41.2572 24.8285C43.4857 15.5714 70.6286 2.14282 100 2.14282C129.429 2.14282 155.6 11.7428 158.743 24.8285C162.286 39.5143 136.171 52.7714 100 52.7714C63.8286 52.7142 37.7143 39.4571 41.2572 24.8285ZM100 8.19996C74.7429 8.19996 52.2857 15.1142 49.5429 24.4857C46.5143 35 68.9143 44.4857 100 44.4857C131.086 44.4857 153.486 35 150.457 24.4857C147.714 15.1142 125.257 8.19996 100 8.19996Z" fill="url(#paint6_linear_8_6367)"/>
<path d="M86.2856 52.0857L88.1714 55.5143C91.9428 55.8571 95.9428 56.0286 99.9999 56.0286C104.114 56.0286 108.057 55.8571 111.886 55.5143L113.714 52.0857C109.371 52.5429 104.743 52.7714 99.9999 52.7714C95.2571 52.7143 90.6285 52.4857 86.2856 52.0857ZM159.086 27.9714C158.628 38.4857 143.143 47.7429 120.286 51.2286L122.514 54.0286C144.857 49.8572 159.6 39.5714 159.086 27.9714ZM40.9142 27.9714C40.3999 39.5714 55.0856 49.8572 77.4856 54.0286L79.7142 51.2286C56.8571 47.7429 41.4285 38.4286 40.9142 27.9714Z" fill="url(#paint7_linear_8_6367)"/>
<path d="M119.543 43.1145L121.314 40.8859C118.229 21.3431 109.886 8.2002 100.057 8.2002C109.2 8.2002 116.914 23.0573 119.543 43.1145Z" fill="url(#paint8_linear_8_6367)"/>
<path d="M80.4571 43.1145C83.0285 23.0002 90.8 8.2002 100 8.2002C90.1714 8.2002 81.7714 21.3431 78.6857 40.8859L80.4571 43.1145Z" fill="url(#paint9_linear_8_6367)"/>
<path d="M79.6 57.6859C79.6 55.5145 79.6571 53.343 79.7714 51.2288L77.5429 54.0288C77.4857 55.2288 77.4857 56.4288 77.4857 57.6859C77.4857 86.6002 87.3714 107.172 100.057 107.172C88.7429 107.172 79.6 85.0002 79.6 57.6859Z" fill="url(#paint10_linear_8_6367)"/>
<path d="M122.514 54.0288L120.286 51.2288C120.4 53.343 120.457 55.5145 120.457 57.6859C120.457 85.0002 111.314 107.172 100.057 107.172C112.686 107.172 122.629 86.6573 122.629 57.6859C122.572 56.4288 122.514 55.2288 122.514 54.0288Z" fill="url(#paint11_linear_8_6367)"/>
<path d="M99.8285 146.771C99.8285 137 107.771 129.057 117.543 129.057C127.314 129.057 135.257 137 135.257 146.771C135.257 156.543 127.314 164.486 117.543 164.486C107.771 164.486 99.8285 156.543 99.8285 146.771ZM117.543 157.971C123.029 157.971 127.428 152.943 127.428 146.771C127.428 140.6 123.029 135.571 117.543 135.571C112.114 135.571 107.657 140.6 107.657 146.771C107.657 152.943 112.114 157.971 117.543 157.971Z" fill="#FF0000"/>
<path d="M155.314 136.429V163.686H147.886V136.486H137.429V130.314H165.714V136.486L155.314 136.429Z" fill="#FF0000"/>
<path d="M174.743 156.143L171.886 163.629H163.2L176.971 130.257H181.6H186.229L200 163.686H191.314L188.457 156.2H181.6H174.743V156.143ZM181.6 150.543H186.286L181.6 138.314H181.543L176.857 150.543H181.6Z" fill="#FF0000"/>
<path d="M17.8857 136.429V163.686H10.4V136.486H0V130.314H28.2857V136.486L17.8857 136.429Z" fill="#FF0000"/>
<path d="M30.1715 146.771C30.1715 137 38.1144 129.057 47.8858 129.057C57.6572 129.057 65.6001 137 65.6001 146.771C65.6001 156.543 57.6572 164.486 47.8858 164.486C38.1144 164.486 30.1715 156.543 30.1715 146.771ZM47.8858 157.971C53.3144 157.971 57.7715 152.943 57.7715 146.771C57.7715 140.6 53.3715 135.571 47.8858 135.571C42.4001 135.571 38.0001 140.6 38.0001 146.771C38.0001 152.943 42.4001 157.971 47.8858 157.971Z" fill="#FF0000"/>
<path d="M82.6857 163.686H86.4571V151.172V151L99.4857 130.314H90.8L82.7429 144.314L74.6857 130.314H66L79.0286 151V151.172V163.686H82.6857Z" fill="#FF0000"/>
<defs>
<linearGradient id="paint0_linear_8_6367" x1="100.001" y1="101.431" x2="100.001" y2="37.4716" gradientUnits="userSpaceOnUse">
<stop stop-color="#D0D2D3"/>
<stop offset="0.1575" stop-color="#F1F1F2"/>
<stop offset="0.1639" stop-color="#F0F0F1"/>
<stop offset="0.2592" stop-color="#E8E9EA"/>
<stop offset="0.44" stop-color="#E6E7E8"/>
<stop offset="0.5594" stop-color="#CFD0D1"/>
<stop offset="0.8087" stop-color="#949597"/>
<stop offset="1" stop-color="#626366"/>
</linearGradient>
<linearGradient id="paint1_linear_8_6367" x1="111.295" y1="45.9812" x2="90.0541" y2="28.1577" gradientUnits="userSpaceOnUse">
<stop stop-color="#E6E7E8"/>
<stop offset="0.44" stop-color="#E6E7E8"/>
<stop offset="0.5594" stop-color="#CFD0D1"/>
<stop offset="0.8087" stop-color="#949597"/>
<stop offset="1" stop-color="#626366"/>
</linearGradient>
<linearGradient id="paint2_linear_8_6367" x1="113.334" y1="76.2083" x2="82.6089" y2="58.469" gradientUnits="userSpaceOnUse">
<stop stop-color="#E6E7E8"/>
<stop offset="0.44" stop-color="#E6E7E8"/>
<stop offset="0.5594" stop-color="#CFD0D1"/>
<stop offset="0.8087" stop-color="#949597"/>
<stop offset="1" stop-color="#626366"/>
</linearGradient>
<linearGradient id="paint3_linear_8_6367" x1="100" y1="52.6929" x2="100" y2="18.0355" gradientUnits="userSpaceOnUse">
<stop stop-color="#E6E7E8"/>
<stop offset="0.44" stop-color="#E6E7E8"/>
<stop offset="0.5594" stop-color="#CFD0D1"/>
<stop offset="0.8087" stop-color="#949597"/>
<stop offset="1" stop-color="#626366"/>
</linearGradient>
<linearGradient id="paint4_linear_8_6367" x1="100" y1="1.06109" x2="100" y2="113.328" gradientUnits="userSpaceOnUse">
<stop stop-color="#C5C7C9"/>
<stop offset="0.0475881" stop-color="#D4D5D7"/>
<stop offset="0.12" stop-color="#E6E7E8"/>
<stop offset="0.1242" stop-color="#E8E9EA"/>
<stop offset="0.1469" stop-color="#EFEFF0"/>
<stop offset="0.21" stop-color="#F1F1F2"/>
<stop offset="0.545" stop-color="#F1F1F2"/>
<stop offset="0.6115" stop-color="#CCCCCE"/>
<stop offset="0.692" stop-color="#A6A7A9"/>
<stop offset="0.7722" stop-color="#88898B"/>
<stop offset="0.851" stop-color="#737477"/>
<stop offset="0.9278" stop-color="#66676A"/>
<stop offset="1" stop-color="#626366"/>
</linearGradient>
<linearGradient id="paint5_linear_8_6367" x1="100.001" y1="1.05654" x2="100.001" y2="113.321" gradientUnits="userSpaceOnUse">
<stop stop-color="#C5C7C9"/>
<stop offset="0.0475881" stop-color="#D4D5D7"/>
<stop offset="0.12" stop-color="#E6E7E8"/>
<stop offset="0.1242" stop-color="#E8E9EA"/>
<stop offset="0.1469" stop-color="#EFEFF0"/>
<stop offset="0.21" stop-color="#F1F1F2"/>
<stop offset="0.545" stop-color="#F1F1F2"/>
<stop offset="0.6115" stop-color="#CCCCCE"/>
<stop offset="0.692" stop-color="#A6A7A9"/>
<stop offset="0.7722" stop-color="#88898B"/>
<stop offset="0.851" stop-color="#737477"/>
<stop offset="0.9278" stop-color="#66676A"/>
<stop offset="1" stop-color="#626366"/>
</linearGradient>
<linearGradient id="paint6_linear_8_6367" x1="100" y1="1.06397" x2="100" y2="113.332" gradientUnits="userSpaceOnUse">
<stop stop-color="#C5C7C9"/>
<stop offset="0.0475881" stop-color="#D4D5D7"/>
<stop offset="0.12" stop-color="#E6E7E8"/>
<stop offset="0.1242" stop-color="#E8E9EA"/>
<stop offset="0.1469" stop-color="#EFEFF0"/>
<stop offset="0.21" stop-color="#F1F1F2"/>
<stop offset="0.545" stop-color="#F1F1F2"/>
<stop offset="0.6115" stop-color="#CCCCCE"/>
<stop offset="0.692" stop-color="#A6A7A9"/>
<stop offset="0.7722" stop-color="#88898B"/>
<stop offset="0.851" stop-color="#737477"/>
<stop offset="0.9278" stop-color="#66676A"/>
<stop offset="1" stop-color="#626366"/>
</linearGradient>
<linearGradient id="paint7_linear_8_6367" x1="100.001" y1="24.3394" x2="100.001" y2="56.3373" gradientUnits="userSpaceOnUse">
<stop offset="0.005618" stop-color="#E6E7E8"/>
<stop offset="1" stop-color="#6D6E70"/>
</linearGradient>
<linearGradient id="paint8_linear_8_6367" x1="110.643" y1="1.05974" x2="110.643" y2="56.022" gradientUnits="userSpaceOnUse">
<stop stop-color="#E6E7E8"/>
<stop offset="0.44" stop-color="#E6E7E8"/>
<stop offset="0.5594" stop-color="#CFD0D1"/>
<stop offset="0.8087" stop-color="#949597"/>
<stop offset="1" stop-color="#626366"/>
</linearGradient>
<linearGradient id="paint9_linear_8_6367" x1="89.358" y1="1.05974" x2="89.358" y2="56.022" gradientUnits="userSpaceOnUse">
<stop stop-color="#E6E7E8"/>
<stop offset="0.44" stop-color="#E6E7E8"/>
<stop offset="0.5594" stop-color="#CFD0D1"/>
<stop offset="0.8087" stop-color="#949597"/>
<stop offset="1" stop-color="#626366"/>
</linearGradient>
<linearGradient id="paint10_linear_8_6367" x1="88.7255" y1="1.0595" x2="88.7255" y2="91.9544" gradientUnits="userSpaceOnUse">
<stop stop-color="#E6E7E8"/>
<stop offset="0.44" stop-color="#E6E7E8"/>
<stop offset="0.5594" stop-color="#CFD0D1"/>
<stop offset="0.8087" stop-color="#949597"/>
<stop offset="1" stop-color="#626366"/>
</linearGradient>
<linearGradient id="paint11_linear_8_6367" x1="111.277" y1="1.0595" x2="111.277" y2="91.9544" gradientUnits="userSpaceOnUse">
<stop stop-color="#E6E7E8"/>
<stop offset="0.44" stop-color="#E6E7E8"/>
<stop offset="0.5594" stop-color="#CFD0D1"/>
<stop offset="0.8087" stop-color="#949597"/>
<stop offset="1" stop-color="#626366"/>
</linearGradient>
</defs>
</svg>
