<svg width="200" height="63" viewBox="0 0 200 63" fill="none" xmlns="http://www.w3.org/2000/svg">
<path d="M128.094 7.45386C126.26 17.8731 112.137 22.5684 93.9519 24.6553C58.7069 28.6948 8.19826 22.8964 2.16882 29.8425C8.19826 21.5996 29.5659 19.9525 53.1172 19.2444H53.2216C84.9711 18.283 120.663 18.9985 128.086 7.45386H128.094Z" fill="url(#paint0_linear_2_371)"/>
<path d="M197.734 17.6122C167.028 25.408 140.376 1.84174 94.2576 5.68747C82.6682 6.65635 45.7836 19.5127 45.7836 19.5127C54.8464 13.9677 86.6332 3.44413 94.0936 2.54977C100.801 1.7374 126.752 -2.18285 157.645 6.84268H157.66C160.335 7.63269 163.048 8.50468 165.791 9.49593C185.623 16.6433 197.734 17.6122 197.734 17.6122Z" fill="url(#paint1_linear_2_371)"/>
<path d="M197.734 17.6122C185.705 31.184 156.661 25.7583 132.163 24.8043C124.531 24.4987 117.339 24.6329 111.243 25.9073C133.318 15.667 157.228 18.827 174.831 20.1909C185.213 20.9884 193.404 21.1747 197.727 17.6122H197.734Z" fill="url(#paint2_linear_2_371)"/>
<path d="M22.3365 29.5742C20.3689 34.985 13.4674 34.9925 7.87028 34.8882C4.43447 34.8285 1.47564 34.7167 0.45459 35.7974C1.80357 30.6027 9.99437 29.2686 16.0685 29.1717C18.9752 29.127 21.3899 29.3581 22.3365 29.5816V29.5742Z" fill="url(#paint3_linear_2_371)"/>
<path d="M128.094 7.45386C126.26 17.8731 112.137 22.5684 93.9519 24.6553C79.6572 25.3186 74.224 18.7376 53.2216 19.2444C84.9711 18.2755 120.663 18.9985 128.086 7.45386H128.094Z" fill="url(#paint4_linear_2_371)"/>
<path d="M157.645 6.83523C138.141 3.77952 121.163 1.08155 94.2501 5.68002C82.6608 6.64891 45.7761 19.5053 45.7761 19.5053C54.8389 13.9603 86.6258 3.43668 94.0862 2.54233C100.794 1.72996 126.745 -2.1903 157.637 6.83523H157.645Z" fill="url(#paint5_linear_2_371)"/>
<path d="M174.831 20.1909C160.186 19.9226 155.879 25.2291 132.163 24.7968C124.531 24.4987 117.339 24.6328 111.243 25.9073C133.318 15.6669 157.228 18.827 174.831 20.1909Z" fill="url(#paint6_linear_2_371)"/>
<path d="M179.49 29.0748C192.1 27.5395 197.473 22.1808 197.473 22.1808C199.024 28.5531 196.601 33.6584 179.49 29.0748Z" fill="url(#paint7_linear_2_371)"/>
<path fill-rule="evenodd" clip-rule="evenodd" d="M0.268306 52.4026C0.0894355 53.2895 0 54.1242 0 54.8919C0 57.1278 0.715484 58.8792 2.1539 60.1611C3.58487 61.4356 5.56736 62.0765 8.10136 62.0765C10.1584 62.0765 12.126 61.7859 14.0041 61.212L14.7494 57.6793C12.9681 58.35 11.1124 58.6854 9.17459 58.6854C7.37097 58.6854 6.0667 58.3649 5.26178 57.724C4.44941 57.083 4.04695 56.0993 4.04695 54.7726C4.04695 54.0422 4.14384 53.2522 4.34507 52.4026C4.82206 50.1443 5.64934 48.4823 6.83436 47.4017C8.01938 46.321 9.68884 45.7844 11.8502 45.7844C13.7656 45.7844 15.5021 46.1272 17.0449 46.8203L17.7902 43.3174C16.1655 42.6839 14.3395 42.3709 12.2974 42.3709C5.69406 42.3709 1.68437 45.7173 0.283212 52.4026H0.268306ZM29.6404 42.669L18.3045 61.7784H22.6347L25.3624 57.1799H32.398L33.2551 61.7784H37.2574L34.0228 42.669H29.6404ZM26.6444 54.0944L31.1832 46.4104L32.4875 54.0944H26.6444ZM47.0579 42.669H56.2176C57.902 42.669 59.1913 43.0789 60.0931 43.8988C60.9949 44.7186 61.4421 45.8514 61.4421 47.2973C61.4421 47.9085 61.3751 48.5047 61.2334 49.0786C60.9577 50.3828 60.3913 51.5157 59.5416 52.4622C58.692 53.4162 57.6113 54.0646 56.307 54.4223C56.5455 54.6757 56.7319 54.9515 56.8735 55.2496C57.0151 55.5477 57.1343 55.9427 57.2312 56.4346L58.4162 61.7784H54.2649L53.0799 56.6433C52.9607 56.1887 52.7967 55.8831 52.6029 55.7117C52.4092 55.5403 52.044 55.4583 51.5073 55.4583H48.3622L47.0281 61.7784H43.0259L47.0579 42.669ZM55.8524 51.4039C56.5157 50.9269 56.9555 50.1443 57.1716 49.0786H57.179C57.2759 48.6836 57.3281 48.2662 57.3281 47.8339C57.3281 47.1781 57.1269 46.716 56.7319 46.4253C56.3369 46.1347 55.6735 45.9931 54.7419 45.9931H50.3819L49.0777 52.1343H53.1992C54.3022 52.1343 55.1891 51.8883 55.8524 51.4039ZM90.0168 42.669H82.0048L77.9728 61.7784H85.9847C89.033 61.7784 91.3956 61.0182 93.0725 59.5053C94.7494 57.9923 95.9419 55.5925 96.635 52.3132C96.8735 51.1878 96.9927 50.1667 96.9927 49.2574C96.9927 47.0812 96.389 45.4415 95.1817 44.331C93.9743 43.2206 92.2526 42.669 90.0168 42.669ZM92.5657 52.3132C92.2079 53.9975 91.7309 55.3018 91.1273 56.226C90.5236 57.1576 89.8081 57.7985 88.9883 58.1563C88.1684 58.514 87.1921 58.6929 86.0667 58.6929H82.6234L85.3214 45.9931H88.8541C90.3372 45.9931 91.3956 46.2166 92.0291 46.6638C92.6626 47.111 92.9756 47.9234 92.9756 49.1084C92.9756 49.8984 92.834 50.9716 92.5582 52.3132H92.5657ZM114.112 61.7784H100.406L104.438 42.669H118.144L117.496 45.7844H107.792L106.756 50.681H115.357L114.708 53.7665H106.1L105.064 58.6929H114.768L114.112 61.7784ZM130.613 42.669L119.277 61.7784H123.607L126.335 57.1799H133.363L134.22 61.7784H138.23L134.995 42.669H130.613ZM127.617 54.0944L132.156 46.4104L133.46 54.0944H127.617ZM148.023 42.669H152.033L148.649 58.6929H158.055L157.399 61.7784H143.991L148.023 42.669ZM162.117 61.7784H175.83L176.478 58.6929H166.775L167.818 53.7665H176.419L177.075 50.681H168.467L169.51 45.7844H179.206L179.862 42.669H166.156L162.117 61.7784ZM194.783 42.669C196.467 42.669 197.757 43.0789 198.658 43.8988H198.651C199.553 44.7186 200 45.8514 200 47.2973C200 47.9085 199.933 48.5047 199.791 49.0786C199.516 50.3828 198.949 51.5157 198.099 52.4622C197.25 53.4162 196.169 54.0646 194.865 54.4223C195.103 54.6757 195.29 54.9515 195.431 55.2496C195.573 55.5477 195.692 55.9427 195.789 56.4346L196.974 61.7784H192.823L191.638 56.6433C191.519 56.1887 191.362 55.8831 191.161 55.7117C190.967 55.5403 190.602 55.4583 190.065 55.4583H186.92L185.586 61.7784H181.584L185.616 42.669H194.783ZM194.418 51.4039C195.081 50.9269 195.521 50.1443 195.737 49.0786H195.744C195.841 48.6836 195.893 48.2662 195.893 47.8339C195.893 47.1781 195.692 46.7085 195.297 46.4253C194.902 46.1347 194.239 45.9931 193.307 45.9931H188.947L187.643 52.1343H191.764C192.868 52.1343 193.754 51.8883 194.418 51.4039Z" fill="#212121"/>
<defs>
<linearGradient id="paint0_linear_2_371" x1="2.39947" y1="17.5148" x2="127.879" y2="19.7927" gradientUnits="userSpaceOnUse">
<stop stop-color="#5CB8FF"/>
<stop offset="1" stop-color="#2F2569"/>
</linearGradient>
<linearGradient id="paint1_linear_2_371" x1="107.208" y1="14.0802" x2="191.191" y2="31.5045" gradientUnits="userSpaceOnUse">
<stop stop-color="#5CB8FF"/>
<stop offset="1" stop-color="#2F2569"/>
</linearGradient>
<linearGradient id="paint2_linear_2_371" x1="141.989" y1="23.5299" x2="195.908" y2="20.5207" gradientUnits="userSpaceOnUse">
<stop stop-color="#5CB8FF"/>
<stop offset="1" stop-color="#2F2569"/>
</linearGradient>
<linearGradient id="paint3_linear_2_371" x1="11.1032" y1="29.9796" x2="11.6963" y2="35.499" gradientUnits="userSpaceOnUse">
<stop stop-color="white"/>
<stop offset="1" stop-color="#686869"/>
</linearGradient>
<linearGradient id="paint4_linear_2_371" x1="53.304" y1="15.0547" x2="0.605418" y2="14.098" gradientUnits="userSpaceOnUse">
<stop stop-color="#5CB8FF"/>
<stop offset="1" stop-color="#2F2569"/>
</linearGradient>
<linearGradient id="paint5_linear_2_371" x1="45.9637" y1="9.60657" x2="157.568" y2="11.6326" gradientUnits="userSpaceOnUse">
<stop stop-color="#5CB8FF"/>
<stop offset="1" stop-color="#2F2569"/>
</linearGradient>
<linearGradient id="paint6_linear_2_371" x1="136.93" y1="21.7757" x2="171.514" y2="28.9483" gradientUnits="userSpaceOnUse">
<stop stop-color="#5CB8FF"/>
<stop offset="1" stop-color="#2F2569"/>
</linearGradient>
<linearGradient id="paint7_linear_2_371" x1="179.434" y1="26.8201" x2="197.891" y2="26.4206" gradientUnits="userSpaceOnUse">
<stop stop-color="#FF8778"/>
<stop offset="1" stop-color="#9C122B"/>
</linearGradient>
</defs>
</svg>
